<svg width="25" height="27" viewBox="0 0 25 27" fill="none" xmlns="http://www.w3.org/2000/svg">
<path d="M13.7755 1.92641L13.7755 1.9264L13.7757 1.92569C13.9046 1.37957 14.0217 0.858069 14.0837 0.581683C14.1029 0.496108 14.1168 0.434031 14.1242 0.401995C14.1609 0.216404 14.3289 0.119401 14.4817 0.102755C14.6356 0.0859976 14.8213 0.14577 14.8933 0.325841L14.8933 0.325835L14.894 0.327515C14.9559 0.49071 14.9708 0.699256 14.9523 0.879345C14.943 0.970172 14.9247 1.05795 14.8971 1.13258C14.8711 1.20272 14.8325 1.2732 14.7743 1.31793C14.7731 1.31957 14.7708 1.32287 14.7675 1.32846C14.7597 1.34166 14.7498 1.36152 14.7379 1.38906C14.7144 1.44392 14.6865 1.52133 14.6551 1.61948C14.5925 1.81529 14.5183 2.08589 14.4388 2.40657C14.2798 3.04752 14.1007 3.88313 13.9515 4.709L13.9515 4.709L13.9514 4.70937C13.8923 5.0297 13.848 5.23063 13.7904 5.35426C13.7601 5.41918 13.7228 5.47073 13.6713 5.5075C13.6202 5.54398 13.5642 5.55926 13.5096 5.56788C13.4603 5.57567 13.4113 5.58064 13.367 5.57564C13.3198 5.57031 13.2715 5.55282 13.234 5.51107C13.199 5.47224 13.1835 5.4234 13.1753 5.37693C13.1671 5.32983 13.1646 5.27358 13.1646 5.20981C13.1646 5.00432 13.2266 4.58346 13.3322 4.0208C13.4384 3.45437 13.5908 2.73496 13.7755 1.92641Z" fill="black" stroke="black" stroke-width="0.2"/>
<path d="M21.4908 6.03735L21.4908 6.03735L21.4914 6.0367C21.8411 5.68704 22.1157 5.42987 22.3241 5.25956C22.4282 5.17452 22.5182 5.10918 22.5943 5.06462C22.667 5.02213 22.7408 4.99017 22.8088 4.99017C22.8657 4.99017 22.9199 4.99509 22.9667 5.00944C23.0137 5.0239 23.0629 5.05113 23.0929 5.10237C23.1232 5.15397 23.1231 5.21107 23.1113 5.26171C23.0996 5.31172 23.0746 5.36469 23.0416 5.41969C22.9116 5.63581 22.5973 5.97662 22.0813 6.48762C21.5103 7.05366 21.0225 7.6036 20.6782 8.05769C20.5059 8.2849 20.371 8.48633 20.2796 8.65255C20.1856 8.82356 20.1463 8.94236 20.1463 9.00952C20.1463 9.18289 20.0759 9.3319 19.9436 9.39518C19.8074 9.46029 19.651 9.41385 19.5268 9.28966C19.4306 9.19352 19.356 9.10365 19.3541 8.96849C19.3533 8.9062 19.368 8.841 19.3918 8.76947C19.4157 8.69768 19.451 8.61295 19.4959 8.51057L19.4961 8.51032C19.6161 8.23883 19.8472 7.89409 20.1792 7.48315C20.5122 7.07092 20.9509 6.58724 21.4908 6.03735Z" fill="black" stroke="black" stroke-width="0.2"/>
<path d="M3.45117 7.59335L3.51178 7.5138C3.82726 7.75417 4.07977 7.96358 4.25678 8.13167C4.34513 8.21557 4.41654 8.29094 4.46791 8.35604C4.51557 8.41644 4.55801 8.48249 4.5673 8.54588C4.57566 8.60161 4.57774 8.65571 4.56801 8.70416C4.558 8.75403 4.53404 8.80369 4.48658 8.83754C4.44021 8.87061 4.38571 8.87831 4.33505 8.87468C4.28462 8.87107 4.22985 8.85582 4.17255 8.8333C3.94765 8.74495 3.59766 8.5088 3.11073 8.13118C2.1946 7.42417 1.63284 6.96867 1.31551 6.64626C1.15707 6.48528 1.0525 6.35061 0.99687 6.22824C0.938875 6.10065 0.934052 5.98599 0.97335 5.87464L0.973297 5.87463L0.974525 5.87149C1.00224 5.80066 1.04906 5.73288 1.13061 5.70569C1.20866 5.67968 1.29071 5.70063 1.36623 5.73663C1.51655 5.80827 1.71713 5.97714 1.98471 6.23481L1.98485 6.23494C2.28018 6.52043 2.96497 7.09624 3.51186 7.51387L3.45117 7.59335ZM3.45117 7.59335C2.90266 7.17448 2.21453 6.59606 1.91535 6.30684L3.17193 8.0521C4.14928 8.81004 4.52825 8.95963 4.46841 8.56072C4.44846 8.4211 4.07947 8.07205 3.45117 7.59335Z" fill="black" stroke="black" stroke-width="0.2"/>
<path d="M7 8L9.5 6.5H12L16 7.5L18.5 9.5L20 11.5V14.5L19 17.5L17 19L13.5 21H11L8.5 20.5L6.5 18.5L5 15L5.5 11.5L7 8Z" fill="#E8B952"/>
<path d="M9.54815 6.2405L9.54832 6.24046C9.95847 6.12624 10.7177 6.09223 11.4885 6.11967C12.2616 6.14719 13.0664 6.2373 13.5716 6.38018L13.5722 6.38036C16.1597 7.12965 17.8382 7.98379 18.815 9.08271C20.1436 10.5737 20.6988 12.7199 20.3045 14.8024L20.3045 14.8027C19.7793 17.5395 18.2308 19.4691 15.4926 20.7879L15.4925 20.7879C14.2316 21.3931 13.3275 21.5864 11.9635 21.5157L11.9632 21.5157C10.6733 21.4451 9.96236 21.2622 8.76403 20.6882L8.76375 20.6881C7.44953 20.0536 6.49555 19.2618 5.85371 18.2235C5.2124 17.1859 4.88818 15.911 4.8179 14.3195L4.81789 14.3194C4.73733 12.4463 5.07064 10.9733 5.9555 9.22369L5.95568 9.22335C6.0747 8.99026 6.18351 8.7627 6.26231 8.58293C6.30177 8.49291 6.33322 8.41598 6.3546 8.35687C6.36532 8.32725 6.37307 8.30332 6.37801 8.28515C6.38272 8.26782 6.38342 8.26086 6.38353 8.26087C6.38355 8.26087 6.38354 8.26111 6.38354 8.26156C6.38354 8.17512 6.42492 8.08815 6.48013 8.00828C6.53695 7.92608 6.61716 7.83899 6.71365 7.74991C6.9069 7.57147 7.17561 7.37575 7.48281 7.18438C8.09699 6.80178 8.8786 6.42818 9.54815 6.2405ZM16.493 8.25198L16.493 8.25199L16.4918 8.25143C15.9347 7.97532 15.1122 7.66292 14.3078 7.40435C13.5026 7.14548 12.7247 6.9435 12.2557 6.88483C11.0967 6.74616 10.5422 6.76691 9.75095 6.98181L9.75019 6.98201C9.56062 7.03189 9.37821 7.07937 9.23933 7.1144C9.16996 7.1319 9.11098 7.14642 9.06722 7.1566C9.04542 7.16167 9.02674 7.16583 9.01216 7.16877L9.01143 7.16891C9.00924 7.16935 9.00662 7.16988 9.0037 7.17044C9.00011 7.17519 8.99552 7.18205 8.99022 7.1914C8.97399 7.22004 8.95688 7.26182 8.9436 7.31053C8.92099 7.39342 8.86124 7.46514 8.79199 7.51818C8.72155 7.57214 8.63263 7.61365 8.53728 7.63167C8.14027 7.7131 7.84482 7.85699 7.56027 8.14154C7.27115 8.43066 6.9902 8.86793 6.63176 9.54499C5.27859 12.1032 5.15296 15.171 6.29419 17.5125L6.2943 17.5127C7.05321 19.0792 9.16188 20.4026 11.4752 20.7585C12.7472 20.9542 13.8137 20.7607 15.2758 20.0494L15.2762 20.0491C17.0248 19.2095 18.2426 18.0575 18.9492 16.5758L18.9494 16.5754C19.9244 14.5564 19.9319 12.3861 18.9909 10.5921C18.5329 9.72488 17.4725 8.72216 16.493 8.25198Z" fill="black" stroke="black" stroke-width="0.2"/>
<path d="M20.3815 15.9845L20.3815 15.9845L20.3824 15.9824C20.4117 15.9113 20.4702 15.8616 20.5313 15.8288C20.5932 15.7955 20.6659 15.7747 20.739 15.7654C20.8804 15.7474 21.0523 15.7692 21.1667 15.8635L21.167 15.8631L21.1691 15.8652C21.1694 15.8653 21.1696 15.8655 21.1698 15.8656C21.1748 15.8684 21.1827 15.8726 21.1942 15.878C21.217 15.8889 21.2495 15.9029 21.2912 15.9198C21.3745 15.9535 21.4902 15.9969 21.6306 16.0472C21.911 16.1477 22.2864 16.2745 22.6895 16.4039L22.6895 16.4039L22.6902 16.4041C23.4188 16.6437 23.942 16.8371 24.2842 16.9956C24.4547 17.0745 24.5851 17.1469 24.6744 17.2147C24.7191 17.2485 24.757 17.2839 24.7846 17.3216C24.8122 17.3592 24.8333 17.4048 24.8333 17.4565C24.8333 17.5426 24.7965 17.6164 24.7243 17.6636C24.6589 17.7064 24.5741 17.7211 24.4852 17.7211C24.3063 17.7211 24.0585 17.6612 23.7613 17.5504C23.4339 17.4314 22.5983 17.1528 21.9107 16.9335C21.2651 16.7299 20.8632 16.5874 20.6356 16.4606C20.5223 16.3974 20.4373 16.3303 20.3921 16.2485C20.3424 16.1589 20.3492 16.0686 20.3815 15.9845Z" fill="black" stroke="black" stroke-width="0.2"/>
<path d="M1.92412 18.9849L1.92412 18.9849L1.9235 18.9852C1.18475 19.2876 0.753272 19.4567 0.50687 19.5102C0.444052 19.5238 0.388048 19.5312 0.33904 19.5299C0.289961 19.5286 0.241083 19.5185 0.19918 19.4906C0.11051 19.4316 0.100195 19.3279 0.100195 19.2517C0.100195 19.1851 0.10821 19.1142 0.15882 19.0424C0.20549 18.9762 0.281707 18.919 0.391452 18.8568C0.611325 18.732 1.01759 18.5597 1.75725 18.2519C2.35876 17.9984 2.75143 17.8497 3.00656 17.7951C3.13332 17.7679 3.24028 17.7605 3.32668 17.7851C3.42249 17.8125 3.48212 17.8757 3.51457 17.9586L3.51489 17.9595C3.53744 18.0187 3.55845 18.0964 3.51621 18.1803C3.47936 18.2535 3.40262 18.3126 3.29845 18.3732C3.0855 18.4971 2.67342 18.6723 1.92412 18.9849Z" fill="black" stroke="black" stroke-width="0.2"/>
<path d="M17.421 20.5258C17.3817 20.5878 17.3531 20.6636 17.3531 20.7377C17.3531 20.7587 17.3582 20.7781 17.3623 20.7912C17.3668 20.8059 17.373 20.8214 17.3798 20.8371C17.3935 20.8685 17.4127 20.9061 17.4358 20.9481C17.4822 21.0324 17.5479 21.1409 17.6263 21.2644C17.7834 21.5117 17.9947 21.8242 18.2128 22.1341C18.4309 22.4441 18.6566 22.7527 18.8425 22.9924C18.9353 23.1121 19.019 23.2156 19.0872 23.2937C19.1213 23.3327 19.1523 23.3664 19.1793 23.393C19.2041 23.4174 19.2316 23.442 19.258 23.4571C19.3664 23.5206 19.4889 23.5308 19.5893 23.4757C19.6909 23.4199 19.7472 23.3099 19.7472 23.1811C19.7472 23.1604 19.7417 23.1419 19.7383 23.1316C19.7343 23.1191 19.7289 23.106 19.7231 23.0929C19.7114 23.0668 19.6951 23.035 19.6754 22.9993C19.6359 22.9275 19.5795 22.8337 19.5111 22.7251C19.3741 22.5077 19.1862 22.227 18.981 21.9367C18.7727 21.6392 18.5874 21.3525 18.4545 21.1248C18.3879 21.0108 18.3354 20.9131 18.2998 20.837C18.2819 20.7988 18.2691 20.7677 18.2609 20.7435C18.253 20.7205 18.2515 20.7098 18.2513 20.708C18.2512 20.7077 18.2512 20.7077 18.2512 20.7078C18.2512 20.6263 18.2296 20.5431 18.1937 20.4745C18.1595 20.4089 18.1038 20.3413 18.025 20.3143M17.421 20.5258L17.9917 20.4086M17.421 20.5258C17.4598 20.4647 17.5156 20.4065 17.5835 20.3713M17.421 20.5258L17.6326 20.4585M18.025 20.3143C18.0244 20.3141 18.0239 20.3139 18.0233 20.3137L17.9917 20.4086M18.025 20.3143C18.0254 20.3145 18.0258 20.3146 18.0262 20.3148L17.9917 20.4086M18.025 20.3143C18.0088 20.3083 17.9928 20.3022 17.9775 20.2963C17.9543 20.2874 17.9331 20.2793 17.9167 20.2738C17.8854 20.2634 17.8492 20.2543 17.8072 20.2595C17.7672 20.2645 17.7326 20.2814 17.7012 20.2991C17.679 20.3117 17.6518 20.3287 17.6198 20.3486C17.6083 20.3558 17.5962 20.3634 17.5835 20.3713M17.9917 20.4086C17.9028 20.3758 17.8643 20.3563 17.827 20.3581C17.7847 20.3602 17.7438 20.3896 17.6326 20.4585M17.5835 20.3713C17.585 20.3705 17.5864 20.3698 17.5879 20.369L17.6326 20.4585M17.5835 20.3713C17.5823 20.372 17.5812 20.3727 17.58 20.3734L17.6326 20.4585" fill="black" stroke="black" stroke-width="0.2"/>
<path d="M9.40838 21.92L9.40851 21.9198C9.51466 21.7938 9.69399 21.7442 9.8468 21.7484C9.99426 21.7525 10.1734 21.8104 10.2361 21.967C10.2686 22.0483 10.2573 22.1342 10.2249 22.2086C10.1926 22.2831 10.1368 22.3524 10.0676 22.4101L10.0676 22.4101L10.0656 22.4118C10.0656 22.4117 10.0656 22.4118 10.0654 22.4119C10.0643 22.4131 10.0578 22.4197 10.0461 22.4372C10.0337 22.4556 10.0189 22.4809 10.002 22.5135C9.96803 22.5784 9.92823 22.6664 9.88428 22.7731C9.79654 22.9861 9.69484 23.2673 9.59368 23.5738C9.39102 24.188 9.19336 24.8956 9.11482 25.3521L9.11483 25.3521L9.11466 25.353C9.06265 25.6391 8.94566 25.8685 8.80531 25.9795C8.73407 26.0359 8.64227 26.0718 8.54733 26.042C8.45428 26.0128 8.39222 25.9307 8.35451 25.8299C8.34001 25.793 8.33801 25.7475 8.33855 25.7087C8.33916 25.6651 8.34366 25.6124 8.35102 25.5532C8.36578 25.4346 8.39308 25.2821 8.42923 25.1082C8.50162 24.7598 8.61095 24.3189 8.73157 23.8777C8.85222 23.4363 8.9846 22.9931 9.10334 22.6402C9.16267 22.4638 9.21898 22.3089 9.26904 22.1875C9.31711 22.071 9.36452 21.9723 9.40838 21.92Z" fill="black" stroke="black" stroke-width="0.2"/>
</svg>
