<svg width="25" height="30" viewBox="0 0 25 30" fill="none" xmlns="http://www.w3.org/2000/svg">
<path fill-rule="evenodd" clip-rule="evenodd" d="M18.948 27.4593C18.9684 27.442 18.9889 27.4247 19.0095 27.4074C19.1386 27.2986 19.2677 27.1897 19.3866 27.0702C19.8477 26.7887 20.2166 26.4151 20.5838 26.0432C20.6638 25.9622 20.7437 25.8813 20.8245 25.8014C20.8411 25.785 20.8577 25.7686 20.8744 25.7521C21.179 25.4517 21.4897 25.1451 21.6567 24.7481C21.8487 24.6317 21.968 24.461 22.0874 24.2903C22.147 24.2049 22.2067 24.1196 22.2755 24.041C22.2968 24.0113 22.3181 23.98 22.3359 23.9487C22.528 23.657 22.688 23.3504 22.8231 23.0322C23.0096 22.8695 23.0888 22.6584 23.1683 22.4463C23.1927 22.3814 23.2171 22.3163 23.2446 22.2526C23.2392 22.152 23.2624 22.0746 23.3993 22.096C23.4011 22.0729 23.4024 22.0498 23.4037 22.0268C23.4051 22.0037 23.4064 21.9806 23.4082 21.9575C23.4618 21.8788 23.4916 21.7916 23.5213 21.7045C23.5389 21.6531 23.5564 21.6016 23.5789 21.552C23.5949 21.5009 23.6109 21.4498 23.6269 21.4004C23.761 21.3564 23.7945 21.2543 23.8279 21.1526C23.8445 21.1019 23.8611 21.0514 23.8901 21.0081C23.9061 20.9751 23.9221 20.9421 23.9345 20.9092C23.9418 20.8918 23.9491 20.8743 23.9564 20.8569C24.0617 20.6057 24.1671 20.3543 24.1621 20.0784C24.1497 20.0537 24.1568 20.0339 24.1799 20.0174C24.3481 19.6985 24.4199 19.3555 24.4916 19.0126C24.5192 18.8806 24.5469 18.7486 24.58 18.618C24.59 18.5722 24.5872 18.5246 24.5845 18.477C24.5794 18.3893 24.5744 18.3016 24.6493 18.2257C24.7294 18.0625 24.7952 17.8944 24.8396 17.7197C24.8343 17.5779 24.8663 17.4428 24.9178 17.3092C24.9303 17.2713 24.9392 17.2318 24.9427 17.1906C24.9713 17.0974 24.9521 17.006 24.9329 16.9148C24.9151 16.8301 24.8973 16.7455 24.9178 16.6598C24.9205 16.6244 24.9236 16.5885 24.9267 16.5527C24.9298 16.5168 24.933 16.481 24.9356 16.4455C24.9709 16.3063 24.9708 16.1648 24.9707 16.0234C24.9707 15.8937 24.9706 15.764 24.9979 15.6362V15.6349C24.9979 15.2431 24.9979 14.8528 24.9996 14.4609C24.9392 14.1807 24.957 13.9005 24.9872 13.6203C25.0085 13.556 25.0032 13.495 24.973 13.434C24.8965 13.2626 24.8396 13.0895 24.9125 12.9033C24.9196 12.8637 24.925 12.8242 24.9285 12.7846C24.9252 12.7112 24.9097 12.6392 24.8942 12.5671C24.8767 12.4855 24.8592 12.4038 24.8592 12.3198C24.8361 12.1813 24.7898 12.0511 24.6867 11.944L24.6707 11.8005C24.651 11.7586 24.6519 11.7124 24.6529 11.6662C24.6543 11.5999 24.6557 11.5335 24.596 11.4791C24.5864 11.444 24.5768 11.409 24.5672 11.3739C24.5199 11.2017 24.4729 11.0303 24.4271 10.8577C24.4642 10.765 24.4394 10.6776 24.4143 10.5896C24.4082 10.568 24.4021 10.5464 24.3968 10.5247C24.3515 10.4367 24.3189 10.344 24.2862 10.2513C24.2369 10.1113 24.1876 9.97123 24.0945 9.84728C24.0512 9.78979 24.0443 9.71979 24.0374 9.64987C24.0278 9.55339 24.0183 9.45707 23.9132 9.39399C23.8812 9.28026 23.8385 9.17147 23.7691 9.07257C23.6749 9.00664 23.6731 8.93411 23.7514 8.85499C23.7302 8.81888 23.7139 8.78091 23.6976 8.74302C23.6796 8.70135 23.6618 8.65978 23.6376 8.62093C23.5923 8.54951 23.5417 8.48106 23.491 8.41248C23.4282 8.32752 23.3653 8.24236 23.3121 8.15116L23.3175 8.15775C23.2464 7.89072 23.0952 7.66325 22.8996 7.45886H22.9014C22.864 7.4047 22.8383 7.34392 22.8126 7.28318C22.7625 7.16461 22.7124 7.04622 22.576 6.97755C22.4977 6.96436 22.4924 6.90832 22.4888 6.85063C22.4764 6.79788 22.4551 6.74843 22.4319 6.69733C21.9323 5.9935 21.3633 5.33582 20.6626 4.8067C20.1861 4.44572 19.8802 4.10781 20.1452 3.52595C20.1486 3.50637 20.1484 3.48571 20.1483 3.46501C20.1479 3.40902 20.1475 3.35272 20.2163 3.31662C20.2694 3.25305 20.3125 3.18381 20.3557 3.11451C20.3965 3.04904 20.4374 2.98352 20.4866 2.92267C20.3956 2.83828 20.4306 2.75133 20.4658 2.66408C20.4704 2.65248 20.4751 2.64087 20.4795 2.62927C20.451 2.43476 20.4066 2.23367 20.1594 2.1974C19.9051 2.15949 19.6509 2.14136 19.4499 2.37048C19.297 2.5452 19.2205 2.73805 19.1583 2.9441C19.0854 2.99355 19.0321 3.05948 18.9787 3.12541C18.936 3.17981 18.9058 3.24079 18.8827 3.30508C18.7547 3.49464 18.6711 3.3809 18.6124 3.26057C18.5823 3.19912 18.5848 3.13085 18.5874 3.06244C18.5886 3.02993 18.5898 2.99738 18.5875 2.96552C18.5786 2.8864 18.5626 2.81058 18.5199 2.74135C18.4247 2.64011 18.4324 2.52069 18.4401 2.40123C18.447 2.29453 18.4539 2.1878 18.3874 2.09395L18.3883 2.09521C18.3643 2.05066 18.3581 1.99923 18.3518 1.94788C18.3405 1.85486 18.3292 1.76213 18.2123 1.71115C18.0612 1.48038 17.8478 1.39302 17.5633 1.47049H17.5686C17.2894 1.515 17.0458 1.6139 16.9089 1.86279C16.7969 1.92543 16.7506 2.02598 16.724 2.13642C16.7083 2.17118 16.7016 2.21202 16.6948 2.25285C16.6784 2.35143 16.6621 2.44996 16.5213 2.46278C16.3932 2.47432 16.3505 2.36224 16.3541 2.2485C16.347 2.21224 16.3292 2.18257 16.299 2.16114C16.299 1.6474 16.2972 1.13366 16.2954 0.618291L16.2954 0.611715C16.2934 0.601836 16.2913 0.59194 16.2893 0.582041C16.242 0.35247 16.1945 0.121699 15.8758 0.0727131L15.8811 0.0760097C15.4864 -0.0706912 15.3654 -0.0245381 15.0614 0.387543C14.864 0.497981 14.8284 0.680945 14.8124 0.872151C14.7395 0.921601 14.7217 0.995775 14.7128 1.07325C14.6646 1.15647 14.6355 1.24621 14.6066 1.33555C14.581 1.4143 14.5556 1.49273 14.5172 1.5661C14.495 1.60903 14.4752 1.65404 14.4554 1.69915C14.3741 1.8844 14.292 2.07121 14.0318 2.12158C13.8784 2.12313 13.7423 2.06963 13.6042 2.0154C13.595 2.01178 13.5858 2.00816 13.5766 2.00455C13.493 1.9409 13.4758 1.85266 13.4584 1.76401C13.4489 1.71493 13.4392 1.66572 13.4183 1.62049C13.2992 1.365 13.0947 1.20346 12.8031 1.17379C12.547 1.14742 12.3034 1.19522 12.2163 1.47544L12.2234 1.46884C11.9993 1.75565 11.8286 2.06554 11.7113 2.4018C11.5973 2.48861 11.5427 2.60836 11.4882 2.72798C11.4475 2.81733 11.4068 2.9066 11.3414 2.98201C11.2863 3.07102 11.2543 3.16827 11.2472 3.27046C11.0968 3.78441 10.9285 4.29372 10.7602 4.80305C10.5145 5.54665 10.2688 6.29028 10.0789 7.04843C10.1162 6.8737 10.15 6.70063 10.1482 6.52096C10.1482 6.31093 10.1488 6.10089 10.1494 5.89085C10.1509 5.36574 10.1523 4.84062 10.1447 4.3155C10.1411 4.02705 10.2034 3.80947 10.4896 3.62815C10.92 3.35453 10.8382 2.91278 10.3563 2.70344H10.3598C10.1216 2.60454 9.9064 2.65894 9.70013 2.78586C9.30893 2.78915 8.93907 2.8386 8.69724 3.17486C8.14813 3.33217 7.67823 3.62145 7.20781 3.91106C7.07194 3.9947 6.93602 4.07838 6.79814 4.15891C6.72122 4.20394 6.64976 4.25751 6.57826 4.31112C6.43032 4.42202 6.28217 4.53309 6.08507 4.56903C5.66143 4.49374 5.50516 4.57317 5.33647 4.95176C5.25906 5.25312 5.03689 5.46039 4.81321 5.66907C4.80566 5.67611 4.79811 5.68316 4.79056 5.69021C4.66314 5.87409 4.50174 6.03098 4.34007 6.18813C4.28291 6.2437 4.22572 6.29929 4.16998 6.35613C3.82145 6.71052 3.47826 7.07645 3.25421 7.5182C3.10288 7.62192 3.01304 7.76906 2.92322 7.91619C2.83889 8.0543 2.75458 8.1924 2.6194 8.29456C2.61508 8.29821 2.61074 8.30185 2.60641 8.30549C2.56967 8.33628 2.53301 8.36701 2.50915 8.40829C2.4982 8.43185 2.48768 8.45565 2.47716 8.47947C2.43983 8.56394 2.40243 8.64855 2.34556 8.72312C2.34351 8.72605 2.34145 8.729 2.33938 8.73196C2.3216 8.75735 2.30299 8.78392 2.28866 8.81049C2.17956 8.92951 2.12236 9.07284 2.06525 9.21593C2.01718 9.33637 1.96918 9.45665 1.89034 9.56212C1.60228 9.94618 1.43157 10.3731 1.31066 10.8214L1.0546 11.311C0.937236 11.4148 0.866109 11.5352 0.892781 11.6918C0.887123 11.7127 0.881456 11.7337 0.875791 11.7547C0.794229 12.0566 0.71293 12.3576 0.658061 12.6643L0.665174 12.6906L0.643835 12.7088C0.569166 12.7953 0.551957 12.8981 0.534708 13.0011C0.522382 13.0747 0.510036 13.1484 0.476686 13.2165C0.448235 13.2412 0.426897 13.2692 0.412671 13.3022C0.387892 13.3735 0.384156 13.4475 0.380417 13.5215C0.379059 13.5484 0.377699 13.5754 0.375329 13.6022C0.366439 13.6335 0.359326 13.6648 0.355769 13.6978C0.364047 13.7566 0.351393 13.8132 0.338723 13.8699C0.326896 13.9228 0.315055 13.9758 0.320206 14.0307C0.313093 14.0818 0.30598 14.1329 0.297089 14.184C0.266402 14.2366 0.263434 14.2937 0.260465 14.3508C0.257757 14.4029 0.255048 14.4551 0.231296 14.5038C0.245522 14.5302 0.240187 14.5533 0.217071 14.5714C0.181442 14.6382 0.171994 14.7115 0.162531 14.7849C0.151214 14.8727 0.139876 14.9607 0.0837071 15.0379C0.0657744 15.0908 0.0768056 15.1419 0.0878583 15.193C0.0943412 15.223 0.100832 15.253 0.101489 15.2835C0.115515 15.42 0.0808623 15.5493 0.0463994 15.6779C0.0371707 15.7124 0.0279555 15.7468 0.0196924 15.7813C0.0188033 15.815 0.0188033 15.8488 0.0188033 15.8826C0.0188033 15.9164 0.0188033 15.9502 0.0179142 15.984C0.0214706 16.2323 0.0155433 16.4807 0.009616 16.729C-0.00223857 17.2257 -0.0140931 17.7224 0.0499215 18.2191L0.0712598 18.501C0.101711 18.5941 0.0875476 18.6868 0.07342 18.7791C0.062798 18.8486 0.0521959 18.9179 0.0605907 18.9872C0.0605907 19.0518 0.0784201 19.1115 0.0963588 19.1716C0.101778 19.1897 0.107207 19.2079 0.112158 19.2263C0.159866 19.3026 0.168205 19.3871 0.176525 19.4714C0.184021 19.5474 0.191502 19.6232 0.22774 19.6927C0.249653 19.7517 0.245433 19.8148 0.24122 19.8779C0.234833 19.9735 0.228458 20.0689 0.313093 20.1493C0.316667 20.1722 0.320176 20.1951 0.323685 20.218C0.35684 20.4343 0.390024 20.6507 0.478464 20.8564C0.52302 20.9002 0.519073 20.9547 0.515126 21.0091C0.51104 21.0655 0.506955 21.1219 0.556704 21.1663C0.559372 21.2141 0.561594 21.2623 0.563817 21.3106C0.56604 21.3588 0.568263 21.407 0.57093 21.4548C0.617089 21.5279 0.64978 21.6069 0.682464 21.6859C0.71903 21.7743 0.755588 21.8626 0.810985 21.9427C0.848461 21.9752 0.844878 22.0194 0.84128 22.0638C0.837025 22.1164 0.832747 22.1692 0.896338 22.2031C0.951462 22.4982 1.06882 22.7702 1.24131 23.0207C1.26522 23.0766 1.28099 23.1358 1.29675 23.1949C1.33255 23.3291 1.36826 23.4631 1.49914 23.5581H1.49736C1.54004 23.7971 1.59516 24.0311 1.81922 24.1927C1.83344 24.2174 1.84722 24.2417 1.861 24.266C1.87478 24.2903 1.88857 24.3146 1.90279 24.3394C1.93087 24.3703 1.94664 24.4082 1.96241 24.446C1.98358 24.4968 2.00475 24.5476 2.05571 24.5817C2.07172 24.6089 2.08816 24.6356 2.1046 24.6624C2.12106 24.6892 2.13751 24.716 2.15352 24.7432C2.21415 24.8128 2.2506 24.8977 2.28705 24.9825C2.34892 25.1265 2.41077 25.2704 2.59095 25.3399C2.60236 25.3613 2.61384 25.3826 2.6253 25.4039C2.69604 25.5353 2.76628 25.6657 2.81678 25.8047C2.84879 25.8707 2.88968 25.93 2.96081 25.9679C3.15784 26.0393 3.26542 26.1894 3.37374 26.3406C3.458 26.4581 3.54271 26.5763 3.67031 26.6586C3.84635 26.7723 4.03661 26.9157 3.84101 27.1679C3.7521 27.2833 3.87302 27.3607 3.96549 27.4135C4.00799 27.4382 4.04987 27.4648 4.09185 27.4914C4.22376 27.5752 4.3567 27.6596 4.51317 27.6871C4.86539 27.7487 5.13209 27.9334 5.40278 28.1209C5.47237 28.1691 5.54223 28.2175 5.61386 28.264C5.67931 28.3064 5.74459 28.3494 5.80995 28.3925C6.30581 28.719 6.80683 29.049 7.42583 29.164H7.42939C7.53964 29.2382 7.65522 29.2975 7.7957 29.3058C7.85793 29.3618 7.92728 29.4063 8.01797 29.4047C8.1239 29.4228 8.22242 29.4643 8.32103 29.5058C8.46411 29.5661 8.60738 29.6264 8.7737 29.6156C9.17379 29.7772 9.59878 29.8233 10.0255 29.8678C10.1625 29.975 10.3207 29.9634 10.4825 29.9371C10.4923 29.9354 10.5021 29.9342 10.5119 29.933C10.5217 29.9317 10.5314 29.9305 10.5412 29.9288L10.8648 29.9486C10.9593 29.9542 11.0538 29.961 11.1483 29.9678C11.5837 29.9991 12.0191 30.0303 12.4545 29.9437C12.4777 29.942 12.5012 29.94 12.5248 29.9379C12.5483 29.9358 12.5719 29.9338 12.595 29.9321C12.6896 29.8915 12.7904 29.8963 12.8914 29.9011C12.9993 29.9063 13.1075 29.9115 13.2085 29.8612C13.4033 29.8225 13.5977 29.7833 13.792 29.7442C13.9862 29.705 14.1804 29.6659 14.375 29.6272C14.4085 29.6033 14.4499 29.6042 14.4911 29.6051C14.5441 29.6061 14.5969 29.6072 14.6328 29.5563C14.7109 29.4761 14.8153 29.4678 14.9198 29.4595C15.0128 29.4522 15.1059 29.4448 15.1805 29.3865C15.2196 29.3769 15.2598 29.3699 15.3 29.3628C15.4186 29.342 15.5374 29.3211 15.6304 29.2349C15.6704 29.2227 15.711 29.2116 15.7516 29.2005C15.9149 29.1559 16.0787 29.1111 16.2083 28.9975C16.3522 28.9621 16.4888 28.9098 16.6253 28.8575C16.6794 28.8368 16.7335 28.8161 16.788 28.7964C16.8416 28.7773 16.8894 28.7617 16.9318 28.75L18.2265 28.03L18.9378 27.453L18.948 27.4593ZM16.1372 3.71222C16.1301 3.89188 16.1247 4.0699 16.1194 4.24957C16.1171 4.26281 16.1129 4.27685 16.1088 4.29091C16.0908 4.3521 16.0728 4.41348 16.203 4.40946C16.2287 4.29737 16.2541 4.18529 16.2794 4.07321C16.3048 3.96112 16.3301 3.84903 16.3559 3.73694C16.379 3.63969 16.3292 3.58529 16.235 3.5787C16.1408 3.57235 16.139 3.64392 16.1374 3.70515C16.1373 3.70752 16.1372 3.70988 16.1372 3.71222ZM13.7096 3.17064C13.5501 3.1397 13.3774 3.1062 13.3774 3.3875C13.3762 3.94212 13.3766 4.49675 13.377 5.06149C13.3772 5.3477 13.3774 5.6365 13.3774 5.92921C13.443 5.66259 13.5078 5.3978 13.5723 5.13431C13.7108 4.56866 13.8478 4.00901 13.9873 3.45013C13.9921 3.43125 13.9985 3.4112 14.005 3.3909C14.0398 3.28183 14.0769 3.16581 13.87 3.18805C13.8243 3.1929 13.7678 3.18194 13.7096 3.17064ZM8.52653 4.39297C7.78503 4.77374 7.14666 5.18252 6.56697 5.66548H6.56342C6.43183 5.77592 6.34825 5.92262 6.3447 6.10888C6.32514 7.24293 6.46561 8.3506 6.92439 9.41048C6.93903 9.44424 6.95201 9.48227 6.9653 9.52121C7.01495 9.66666 7.06893 9.82481 7.23023 9.82091C7.35958 9.81696 7.41393 9.65714 7.46233 9.51487C7.47448 9.47915 7.48625 9.44454 7.49874 9.41377C7.95944 8.28695 8.124 7.11029 8.2915 5.91255C8.36192 5.40904 8.43285 4.9018 8.52653 4.39297ZM3.56895 24.8817C6.05663 28.2591 10.134 29.7063 14.2185 28.6234L14.2149 28.6217C17.1027 27.8569 19.2792 26.169 20.9489 23.9108C23.2055 20.8597 24.1372 17.4642 23.8438 13.7802C23.6482 11.3093 22.8409 9.03136 21.253 7.01546C20.7551 6.38415 20.2074 5.79405 19.5264 5.30285C19.4964 5.37729 19.4697 5.44707 19.4442 5.51363C19.3985 5.63278 19.3567 5.74163 19.3077 5.84844C19.1779 6.13196 18.9431 6.31822 18.6124 6.338C18.2834 6.35778 18.0203 6.20283 17.846 5.94405C17.6913 5.71328 17.6077 5.45614 17.5384 5.19076C17.5116 5.08836 17.5015 4.98255 17.4913 4.87524C17.473 4.68376 17.4543 4.48752 17.3392 4.29737C17.3262 4.35777 17.3143 4.41509 17.3029 4.47023C17.2769 4.59568 17.2533 4.70983 17.2236 4.82319C17.1505 5.10534 17.0903 5.39039 17.03 5.67546C16.9087 6.24972 16.7873 6.82403 16.5604 7.37479C16.4235 7.70776 16.171 7.92369 15.7744 7.90391C15.3885 7.88413 15.1521 7.6616 15.0294 7.3204C14.976 7.1704 14.9529 7.0204 14.9458 6.86546C14.9097 6.12412 14.9359 5.38406 14.9621 4.64302C14.9656 4.54375 14.9691 4.44447 14.9725 4.34517C15.0027 4.2677 14.9707 4.25287 14.896 4.27924C14.7182 5.15285 14.4817 6.01163 14.2381 6.87041C14.2295 6.90032 14.221 6.93024 14.2125 6.96016C14.097 7.36548 13.9817 7.77036 13.7846 8.14951C13.6281 8.4495 13.3721 8.63906 12.9916 8.61434C12.6146 8.58961 12.3994 8.37203 12.2643 8.0605C12.1878 7.88577 12.1807 7.70611 12.1807 7.52809C12.1851 6.7547 12.1957 5.98245 12.2063 5.20944C12.2085 5.05325 12.2106 4.89703 12.2127 4.74077C12.214 4.71846 12.2215 4.69406 12.2289 4.6696C12.2518 4.59465 12.2749 4.51916 12.122 4.50176C12.0812 4.62781 12.0409 4.75385 12.0005 4.87982C11.8984 5.19864 11.7965 5.51697 11.6881 5.83361C11.6107 6.05922 11.5402 6.28712 11.4696 6.51503C11.2794 7.12968 11.0891 7.74438 10.7635 8.31434C10.2745 9.16982 9.60411 9.19784 9.03331 8.39511C9.02495 8.38403 9.00613 8.37891 8.98714 8.37373C8.97788 8.37121 8.96857 8.36868 8.96041 8.36544C8.95238 8.39395 8.94437 8.42247 8.93636 8.45098C8.7652 9.06026 8.59469 9.66725 8.26514 10.2231C7.7388 11.1099 6.76791 11.1412 6.19533 10.2808C5.88593 9.81596 5.71878 9.29674 5.57652 8.76928C5.42394 8.20044 5.35179 7.6187 5.27208 6.9759C5.26632 6.92952 5.26053 6.88283 5.25467 6.83579C5.18815 6.90681 5.12699 6.97066 5.06999 7.03016C4.95634 7.14881 4.85923 7.25018 4.76923 7.35666C2.2691 10.3022 1.08305 13.6582 1.13106 17.395C1.16662 20.1048 1.90635 22.6251 3.56895 24.8817Z" fill="#2A2927"/>
<path d="M7.54133 14.6192L7.54195 14.5192C7.38801 14.5182 7.25295 14.5619 7.14763 14.6458C7.04249 14.7295 6.97339 14.8482 6.94236 14.986C6.91911 15.0876 6.91032 15.19 6.90555 15.2885C6.90342 15.3325 6.90212 15.3736 6.90086 15.4138C6.89914 15.4682 6.89748 15.5209 6.89386 15.577L6.88699 15.6834H6.89822C6.90379 15.9542 6.93307 16.2245 7.00368 16.4909L7.00368 16.4909L7.00379 16.4913C7.07314 16.7484 7.20349 17.0065 7.50597 17.1343L7.50624 17.1344C7.79257 17.2544 8.09804 17.2441 8.34517 17.0169C8.44509 16.9252 8.52172 16.8051 8.545 16.6787C8.56915 16.5476 8.53446 16.4111 8.41447 16.311L8.4144 16.311C8.19233 16.126 8.19426 15.9265 8.19672 15.6718C8.19726 15.6162 8.19783 15.5579 8.19609 15.4965L8.19608 15.4964C8.19514 15.4648 8.1951 15.4315 8.19505 15.397C8.19485 15.2534 8.19462 15.0877 8.13019 14.9279L8.13019 14.9279L8.12995 14.9273C8.07903 14.8033 8.00455 14.7 7.90344 14.628C7.80179 14.5555 7.67953 14.5192 7.54133 14.5192V14.6192ZM7.54133 14.6192C7.27283 14.6175 7.09323 14.7708 7.03988 15.0082L8.35041 16.3878C8.08901 16.1701 8.09254 15.9172 8.09616 15.6584C8.09689 15.6055 8.09763 15.5524 8.09613 15.4994C8.09503 15.4623 8.09491 15.4253 8.09479 15.3884C8.09435 15.2463 8.0939 15.1053 8.03745 14.9653C7.94676 14.7444 7.78139 14.6192 7.54133 14.6192Z" fill="#2A2927" stroke="#2A2927" stroke-width="0.2"/>
<path d="M16.3929 14.2609C16.3987 14.3973 16.4304 14.5344 16.5123 14.6447C16.5964 14.7582 16.725 14.8317 16.9001 14.8535L16.9003 14.8536C17.0753 14.8749 17.2245 14.8432 17.345 14.7602C17.464 14.6783 17.5441 14.5539 17.5968 14.4094C17.6507 14.2614 17.6606 14.1138 17.6608 13.9802C17.6609 13.9301 17.6598 13.8839 17.6587 13.8403C17.6568 13.7613 17.6551 13.6906 17.6611 13.6206L17.6615 13.6206V13.612C17.6615 13.5411 17.6619 13.4741 17.6623 13.4099C17.6631 13.2887 17.6638 13.1772 17.6614 13.0676L17.6614 13.0675C17.6567 12.8569 17.6035 12.6768 17.499 12.5455C17.3926 12.4118 17.2401 12.338 17.0589 12.3303L17.0589 12.3303C16.6739 12.3142 16.3886 12.6292 16.3768 13.0587L16.3768 13.0588C16.3661 13.4608 16.375 13.8623 16.3929 14.2609ZM16.3929 14.2609C16.3929 14.2609 16.3929 14.261 16.3929 14.261L16.4928 14.2565L16.3929 14.2608C16.3929 14.2608 16.3929 14.2608 16.3929 14.2609Z" fill="#2A2927" stroke="#2A2927" stroke-width="0.2"/>
<path d="M15.9355 18.3615C15.7679 17.9979 15.354 17.8759 14.9815 18.1476C14.1393 18.7573 13.1584 18.9691 12.2085 19.2921C11.2939 19.6023 10.2943 19.4055 9.40451 19.8312C9.36106 19.8526 9.25966 19.7777 9.20171 19.7285C8.94511 19.5103 8.66988 19.3884 8.35327 19.5702C8.01803 19.7627 7.9725 20.1007 8.01182 20.4473C8.10494 21.2517 8.35741 22.0111 8.69678 22.7363C9.07341 23.5428 9.67767 24.0092 10.6379 23.9921C11.1221 24.0477 11.5484 23.8059 11.9312 23.4337C12.9535 22.4432 13.8268 21.3158 14.7415 20.2248C14.9505 19.9745 15.1491 19.7371 15.5009 19.6472C15.8962 19.5467 16.1259 18.7744 15.9355 18.3615ZM11.9064 21.6239C11.6539 21.9063 11.3953 22.1822 11.1242 22.4432C10.6937 22.8582 10.1743 22.7791 9.86598 22.2614C9.79769 22.148 9.73975 22.0282 9.69423 21.9041C9.5949 21.626 9.50798 21.3437 9.41693 21.0591C10.5365 20.8388 11.6188 20.8367 12.6617 20.5243C12.6886 20.565 12.7155 20.6035 12.7424 20.6441C12.4651 20.9714 12.194 21.303 11.9085 21.6239H11.9064Z" fill="#2A2927"/>
</svg>
