<svg width="42" height="42" viewBox="0 0 42 42" fill="none" xmlns="http://www.w3.org/2000/svg">
<path d="M1.45492 19.0469C1.45022 19.0664 1.44619 19.0838 1.4415 19.1006L1.42271 19.159C1.41801 19.1751 1.41331 19.1912 1.40861 19.208L1.37774 19.3188L1.34553 19.4262C1.31868 19.5134 1.31264 19.5544 1.30929 19.5886L1.265 19.7484L1.24017 19.8572C1.22607 19.8907 1.20997 19.9344 1.19185 19.9894C1.19252 19.9847 1.19386 19.9787 1.19453 19.9746C1.19722 19.9323 1.20527 19.8686 1.16031 20.0095C1.08917 20.2391 1.03682 20.4734 0.976425 20.7064C0.96703 20.7366 0.957634 20.7735 0.94891 20.8124C0.946225 20.8245 0.943541 20.8366 0.941528 20.8487C0.909986 20.9588 0.885827 21.0957 0.854285 21.2051C0.854285 21.1998 0.854285 21.1944 0.854285 21.189C0.864351 21.1306 0.874418 21.0736 0.885155 21.0131C0.902604 20.9198 0.903946 20.8842 0.881129 20.9453C0.853614 21.0198 0.848916 21.0769 0.83885 21.1353L0.822072 21.2387C0.801268 21.3421 0.825428 21.2783 0.823415 21.3146L0.816704 21.3871C0.815361 21.3944 0.814019 21.3998 0.812677 21.4072C0.803282 21.4596 0.795228 21.5086 0.787175 21.5576L0.783149 21.5817L0.71671 21.8456C0.718052 21.8858 0.735501 21.8603 0.708657 22.0134C0.707986 22.0174 0.707314 22.0221 0.707314 22.0261C0.691879 22.0912 0.679128 22.1443 0.663022 22.2114C0.663022 22.2054 0.66168 22.2094 0.656982 22.2248L0.636178 22.2853C0.620072 22.3369 0.622756 22.2698 0.599268 22.3692C0.597254 22.3766 0.596583 22.3833 0.595241 22.39C0.59457 22.3705 0.589201 22.3759 0.583832 22.3846L0.574437 22.3759L0.571753 22.3383C0.560344 22.3416 0.559002 22.3041 0.566384 22.2242C0.573095 22.151 0.561686 22.1637 0.534171 22.3114C0.522091 22.3698 0.516723 22.4289 0.508669 22.4873L0.500616 22.6028C0.48451 22.7109 0.465719 22.8236 0.452297 22.9257C0.448271 22.9586 0.416729 23.1519 0.448271 23.0385C0.473772 22.9357 0.488537 22.8236 0.499945 22.7102L0.524105 22.5504C0.55766 22.4336 0.562357 22.5021 0.569068 22.5605C0.563028 22.6464 0.573766 22.639 0.58853 22.5887C0.602623 22.5403 0.617387 22.4786 0.630809 22.437C0.629467 22.4531 0.628125 22.4692 0.626112 22.4873C0.589201 22.7988 0.537527 23.1345 0.495248 23.454C0.485181 23.5433 0.479812 23.6312 0.465048 23.7245C0.461693 23.744 0.458337 23.7614 0.455653 23.7789C0.44156 23.8407 0.44156 23.7836 0.438875 23.7507C0.431493 23.7171 0.428138 23.6312 0.398609 23.8507C0.398609 23.8615 0.397267 23.8682 0.397267 23.8769H0.389214C0.389885 23.742 0.361028 23.8903 0.344922 23.9205C0.317407 23.942 0.281838 24.1615 0.24627 24.3676L0.238888 24.4247L0.240901 24.4187C0.220768 24.5583 0.220768 24.6596 0.219426 24.7603C0.218084 24.7785 0.216071 24.7979 0.214058 24.8187C0.208018 24.902 0.204662 24.9772 0.204662 25.0409C0.204662 25.047 0.204662 25.0537 0.204662 25.0618L0.201978 25.09C0.19728 25.151 0.1852 25.2081 0.187885 25.2739C0.189227 25.3101 0.19124 25.333 0.199293 25.2625L0.240901 25.145C0.249626 25.0362 0.265732 24.8912 0.263719 24.8261C0.260363 24.7288 0.265061 24.6429 0.273785 24.561C0.285194 24.4797 0.299958 24.4025 0.31338 24.322C0.326802 24.2307 0.328815 24.275 0.336197 24.2569C0.346935 24.2663 0.342908 24.3696 0.343579 24.4381C0.344251 24.4938 0.342237 24.5489 0.344922 24.6046C0.343579 24.667 0.342237 24.7281 0.346935 24.7523C0.359015 24.6362 0.357001 24.5831 0.355659 24.5428L0.369752 24.3253C0.381161 24.2904 0.389885 24.1884 0.399952 24.1293C0.399952 24.1367 0.399952 24.1454 0.400623 24.1521C0.406663 24.1978 0.403978 24.2864 0.390556 24.4254C0.381832 24.5106 0.373779 24.5972 0.379148 24.6429C0.35633 24.8986 0.355659 25.1128 0.338211 25.3591C0.336868 25.384 0.334855 25.4088 0.333513 25.4343L0.317407 25.4746C0.317407 25.4565 0.317407 25.4397 0.317407 25.4243C0.316735 25.3726 0.316064 25.3101 0.304656 25.3887C0.293247 25.4652 0.291905 25.5411 0.293247 25.5988C0.283852 25.821 0.284523 26.0432 0.279825 26.2647C0.269759 26.4581 0.255666 26.6548 0.25231 26.8528C0.250968 27.0508 0.249626 27.2495 0.248283 27.4476C0.248283 27.4825 0.250297 27.5154 0.252981 27.5422L0.254994 27.6503C0.24627 27.896 0.273785 28.1276 0.279154 28.3713L0.294589 28.762L0.302642 28.9573C0.305998 29.0224 0.312038 29.0876 0.316735 29.1527L0.376463 30.0374C0.378477 30.0744 0.382503 30.1106 0.385859 30.1475C0.387872 30.1858 0.39257 30.2207 0.399281 30.2523L0.42948 30.265C0.458337 30.4718 0.481154 30.6947 0.512696 30.8934C0.519407 30.9356 0.526118 30.9766 0.532158 31.0169C0.541553 31.0954 0.548935 31.174 0.562357 31.2512L0.575779 31.3351L0.574437 31.3378C0.575108 31.3888 0.583832 31.4653 0.597926 31.5593C0.60061 31.5754 0.603294 31.5902 0.605979 31.6049L0.618059 31.7365C0.640876 31.8842 0.64356 31.8493 0.650271 31.8453C0.651613 31.8553 0.652956 31.8661 0.654298 31.8768C0.663022 31.9446 0.671746 32.0144 0.6798 32.0809C0.689195 32.1621 0.703959 32.2682 0.693221 32.2628C0.683826 32.2581 0.66772 32.1621 0.653627 32.0849C0.638191 31.9963 0.622756 31.9131 0.607321 31.8594V31.8614C0.575108 31.7748 0.592557 31.9104 0.617387 32.0802L0.64356 32.2736L0.677115 32.4655L0.709328 32.6293L0.724092 32.7394C0.736172 32.8321 0.754291 32.9227 0.77778 33.0127C0.807308 33.1624 0.806637 33.0872 0.828112 33.1637C0.843547 33.2181 0.858312 33.2758 0.873747 33.3369C0.890524 33.3973 0.907302 33.4604 0.92475 33.5242C0.958305 33.6531 0.993873 33.788 1.0281 33.9203C1.05964 34.0565 1.09185 34.1948 1.12407 34.3324C1.15427 34.4701 1.19722 34.6043 1.23748 34.7366C1.24218 34.752 1.24688 34.7674 1.25157 34.7836C1.25761 34.7775 1.28043 34.8225 1.26701 34.754C1.2301 34.5607 1.20326 34.4036 1.24688 34.4667C1.24688 34.466 1.24352 34.4519 1.24151 34.4439C1.23547 34.3868 1.23144 34.3391 1.28446 34.5318L1.45156 35.1326L1.47102 35.183C1.48109 35.2031 1.49921 35.2555 1.49854 35.2327C1.49518 35.2132 1.49183 35.1937 1.4878 35.1736L1.48445 35.1588C1.4878 35.144 1.51196 35.2004 1.50189 35.1414C1.50525 35.144 1.50592 35.1407 1.50391 35.1266L1.5133 35.1232C1.5133 35.0809 1.53948 35.142 1.569 35.2186L1.58444 35.2689C1.60591 35.3468 1.61598 35.4005 1.62269 35.4408C1.64215 35.5448 1.67571 35.6421 1.71866 35.7415C1.76564 35.8737 1.76631 35.8429 1.77302 35.8341C1.7804 35.8429 1.7851 35.8395 1.80792 35.9133C1.85892 36.0765 1.90388 36.1913 1.94885 36.3047C1.98643 36.3745 2.02669 36.4611 2.06226 36.5075C2.10253 36.5638 2.15689 36.6666 2.2448 36.8814C2.29647 37.0069 2.34211 37.1546 2.39043 37.258L2.38841 37.2506C2.43606 37.358 2.42264 37.2909 2.43338 37.2922C2.46156 37.3238 2.43002 37.2257 2.38036 37.0895C2.38238 37.0673 2.4119 37.1197 2.39043 37.0358C2.39915 37.0176 2.3515 36.9015 2.32198 36.8216C2.28909 36.7337 2.2542 36.6457 2.22064 36.5638C2.1589 36.4148 2.1495 36.3638 2.15957 36.351C2.16897 36.3383 2.18709 36.3557 2.21393 36.4007C2.24212 36.4457 2.27835 36.5182 2.32198 36.6182C2.40653 36.8116 2.38439 36.7303 2.3515 36.6115C2.33204 36.5424 2.30855 36.4638 2.27567 36.3698C2.22735 36.2228 2.20051 36.1852 2.1589 36.0711C2.08978 35.8603 2.03944 35.7751 1.96697 35.5602C1.97972 35.5643 2.00656 35.624 2.01797 35.6314C2.02871 35.6381 2.05421 35.6858 2.00992 35.5401L1.94952 35.3589C1.93006 35.2984 1.91328 35.2367 1.89516 35.1756C1.87637 35.0722 1.82402 34.9185 1.80389 34.8138L1.77839 34.5808C1.78644 34.5687 1.81463 34.6238 1.79785 34.5271C1.79516 34.5238 1.79315 34.5224 1.79181 34.5231C1.77235 34.4472 1.75221 34.3767 1.73141 34.3083C1.71061 34.2391 1.6945 34.1707 1.67504 34.1008C1.62672 33.9203 1.57907 33.743 1.53142 33.5625C1.50793 33.4718 1.48377 33.3805 1.45962 33.2872C1.43478 33.1939 1.41868 33.0966 1.39855 32.9979C1.38781 32.9234 1.37573 32.8737 1.36231 32.8374C1.30996 32.5938 1.25292 32.3474 1.20997 32.0903C1.20393 32.0366 1.19655 31.9822 1.18514 31.9292L1.17574 31.8782L1.16836 31.8211L1.15359 31.7285C1.14621 31.6721 1.13816 31.6157 1.12809 31.5579C1.11132 31.4505 1.09454 31.3431 1.07977 31.2377C1.07373 31.1954 1.06635 31.1572 1.05897 31.1223C1.0489 31.0491 1.04152 30.9759 1.0328 30.9028L1.03145 30.8987L1.03011 30.8497C1.02877 30.8034 1.0234 30.7537 1.01468 30.7V30.7014C1.01468 30.7014 1.01669 30.6993 1.01535 30.6859L1.00461 30.5825C1.00461 30.5389 0.995887 30.4785 0.989847 30.4214L0.975083 30.4181H0.965687C0.951594 30.2167 0.938172 30.0442 0.943541 29.8904C0.945554 29.9153 0.948239 29.9394 0.951594 29.9616C0.952936 29.9717 0.954279 29.9831 0.955621 29.9931C0.956963 30.0079 0.956963 30.022 0.958976 30.0368L0.985149 30.2456C0.995887 30.3409 1.00461 30.4389 1.02072 30.5235L1.04689 30.7343L1.06837 30.8242L1.05494 30.6819C1.05025 30.5819 1.03213 30.4664 1.02072 30.3583H1.0187C1.01132 30.2912 1.00662 30.2247 0.995216 30.159C0.995216 30.1569 0.995216 30.1569 0.993873 30.1549C0.987834 30.1066 0.981794 30.0596 0.976425 30.0126L0.970385 29.926L0.964345 29.8723L0.960319 29.8179C0.93683 29.5199 0.917368 29.2191 0.889853 28.9244C0.888511 28.8942 0.887169 28.8647 0.884484 28.8358C0.883142 28.819 0.882471 28.8023 0.8818 28.7868C0.877102 28.6619 0.872405 28.5364 0.867707 28.4122L0.85093 28.0437L0.842876 27.8597L0.841534 27.6751L0.836165 26.9374C0.838179 26.9065 0.83885 26.8723 0.837508 26.8353C0.836165 26.8152 0.835494 26.7964 0.834823 26.7789L0.837508 26.7239L0.854285 26.5567L0.856298 26.5024C0.856298 26.4587 0.859654 26.399 0.854956 26.3836L0.849587 26.399C0.848916 26.3131 0.842205 26.3654 0.836837 26.3862L0.840192 26.2862L0.844219 26.1781C0.848916 26.0781 0.848916 25.97 0.858983 25.8814C0.865694 25.8452 0.872405 25.8035 0.877773 25.7418V25.7317C0.891867 25.629 0.900591 25.5209 0.901933 25.4095C0.940857 25.0208 0.956292 24.6133 1.01602 24.2273C1.03213 24.1501 1.03951 24.0441 1.05226 23.9548V23.9293C1.0536 23.9239 1.05427 23.9185 1.05561 23.9138C1.06367 23.8601 1.07038 23.8037 1.07642 23.746C1.07977 23.7138 1.08313 23.6822 1.08581 23.6514C1.09252 23.5923 1.09924 23.5285 1.1093 23.4681L1.15158 23.1949C1.15561 23.1801 1.16098 23.1512 1.16567 23.1257L1.17104 23.0895L1.17239 23.0868L1.21399 22.8189C1.21735 22.8022 1.22003 22.786 1.22272 22.7706L1.23547 22.688C1.25225 22.5947 1.26433 22.5001 1.28379 22.4041L1.29251 22.3531L1.30593 22.2886L1.33613 22.1255L1.38781 21.859V21.8637C1.40995 21.765 1.42942 21.663 1.44888 21.5616C1.44888 21.5656 1.45156 21.5576 1.45559 21.5374L1.47639 21.4314L1.50122 21.326L1.55088 21.1152L1.65021 20.6943C1.6851 20.554 1.71262 20.4116 1.75356 20.2734L1.86831 19.8558C1.89516 19.7605 1.91932 19.6645 1.94817 19.5698L2.03609 19.2859L2.06964 19.1832C2.1193 19.0523 2.15689 18.9039 2.20588 18.7643L2.43472 18.101C2.54411 17.8137 2.65081 17.5257 2.7649 17.2404L2.94274 16.8155L3.03133 16.6027C3.06153 16.5322 3.09441 16.4624 3.12595 16.3926L3.12461 16.3979C3.14072 16.3825 3.16555 16.3436 3.20581 16.265C3.24943 16.1945 3.29238 16.1261 3.33802 16.0529C3.42258 15.9099 3.50982 15.7454 3.62055 15.4997C3.64337 15.4494 3.66216 15.4058 3.67827 15.3661C3.66216 15.4306 3.64672 15.4944 3.63196 15.5568C3.59639 15.7119 3.56149 15.8609 3.53129 16.0133C3.53129 16.0133 3.52995 16.0133 3.52928 16.0133L3.51653 16.0677C3.49908 16.1469 3.47626 16.2348 3.46821 16.2986L3.47492 16.2899C3.47492 16.2939 3.47626 16.2979 3.47626 16.3019L3.44472 16.4584L3.42862 16.5322C3.41922 16.5684 3.41184 16.6054 3.40379 16.6403C3.38298 16.7416 3.36151 16.8403 3.33936 16.9377C3.28366 17.1941 3.28903 17.2512 3.30581 17.2599C3.31386 17.2666 3.32862 17.2391 3.32728 17.2941C3.32393 17.4109 3.27494 17.6774 3.26755 17.8063C3.24205 18.0567 3.20715 18.3239 3.19642 18.5367L3.15414 18.9294C3.14139 19.0409 3.13333 19.1523 3.12461 19.2637C3.10917 19.3832 3.10381 19.4866 3.09374 19.5974C3.08434 19.6732 3.07897 19.7497 3.07226 19.8263C3.09173 19.7665 3.09642 19.6584 3.10381 19.547L3.15078 19.104C3.15145 19.0892 3.15078 19.0852 3.15078 19.0865C3.16353 18.967 3.18769 18.8502 3.19709 18.73C3.19843 18.7159 3.19843 18.7079 3.19776 18.7032C3.19776 18.6992 3.1991 18.6938 3.19977 18.6898C3.20447 18.6555 3.2085 18.6226 3.21252 18.5911C3.21655 18.5629 3.21991 18.5374 3.22393 18.5179C3.22393 18.528 3.22393 18.5448 3.22192 18.573C3.20447 18.7549 3.17695 18.9462 3.15615 19.1368C3.13602 19.3423 3.11521 19.5443 3.09978 19.7464C3.08569 19.9491 3.07159 20.1519 3.0575 20.3579C3.05616 20.4002 3.05549 20.4378 3.05549 20.4727L3.03267 20.8453L3.02864 20.9339L3.02663 20.9507L2.99643 21.5717L2.98972 22.0778C2.98838 22.1322 2.98838 22.1866 2.98905 22.2409C2.99509 22.488 2.97227 22.3672 2.9669 22.4658C2.94945 22.6256 2.95818 22.8478 2.9763 22.9666C3.00583 23.1902 2.9924 22.786 3.00851 22.7726C3.02394 22.9284 3.03267 23.117 3.04005 23.3097C3.04945 23.5003 3.0481 23.6963 3.07226 23.8803L3.08166 23.9883C3.08971 24.1052 3.09642 24.224 3.11186 24.3227C3.11589 24.4093 3.12394 24.4797 3.13333 24.5455C3.13803 24.6214 3.14541 24.6449 3.15347 24.6737C3.17427 24.9027 3.1944 25.0268 3.21252 24.9933C3.24608 25.2652 3.27024 25.5471 3.29641 25.774C3.31856 26.0036 3.34339 26.2379 3.3803 26.501C3.39104 26.595 3.40983 26.7064 3.4313 26.8253C3.41385 26.7635 3.40379 26.7568 3.39036 26.7239C3.38969 26.6514 3.36889 26.5467 3.34339 26.4023C3.33869 26.3822 3.33533 26.3674 3.33265 26.3554L3.31386 26.2312C3.30581 26.2117 3.29909 26.152 3.29171 26.1137C3.28232 25.9861 3.2548 25.8331 3.23333 25.6921C3.22796 25.6525 3.22058 25.6008 3.21454 25.5552C3.20984 25.5095 3.2038 25.4699 3.19709 25.4551C3.18367 25.4243 3.18769 25.5404 3.20246 25.6465C3.21185 25.729 3.21991 25.8089 3.23131 25.8942C3.24675 26.0123 3.26487 26.1177 3.27896 26.1224C3.30111 26.2104 3.30782 26.3017 3.3199 26.3916C3.3246 26.4648 3.31856 26.4621 3.30245 26.3963C3.27628 26.2432 3.25078 26.1412 3.22527 26.017C3.21387 25.9385 3.19977 25.8338 3.19306 25.8613C3.18903 25.8794 3.19977 25.9559 3.21454 26.0123C3.22595 26.0989 3.22125 26.1345 3.2387 26.2385L3.23467 26.2956C3.21252 26.2359 3.23266 26.3822 3.2387 26.4514C3.24474 26.5292 3.25749 26.6011 3.25883 26.6494C3.22527 26.5156 3.217 26.5131 3.234 26.642L3.24205 26.7649C3.22997 26.7367 3.22997 26.7702 3.22997 26.8038C3.20984 26.7346 3.19977 26.6554 3.18635 26.5796C3.15749 26.4305 3.15212 26.2976 3.12327 26.1439C3.11186 26.064 3.10045 25.9828 3.09575 25.9183C3.0924 25.8599 3.07965 25.7827 3.06891 25.7109C3.0622 25.6659 3.05213 25.6015 3.0481 25.6082C3.04274 25.6169 3.05616 25.6908 3.06354 25.7418C3.07294 25.8734 3.10313 26.0539 3.11924 26.2023L3.12595 26.258C3.13937 26.3661 3.14541 26.4728 3.17561 26.595V26.589L3.18501 26.6501L3.21655 26.8112C3.21655 26.8165 3.21588 26.8212 3.21454 26.8233L3.17628 26.8327C3.20447 27.0267 3.21319 26.9716 3.23266 27.0515L3.28366 27.2643L3.30513 27.3294C3.31654 27.3637 3.32191 27.365 3.31654 27.3146C3.31856 27.3234 3.32057 27.3314 3.32258 27.3408C3.35345 27.4214 3.3454 27.3099 3.34943 27.2583C3.34943 27.1992 3.35949 27.1952 3.37963 27.2428C3.39305 27.2744 3.40714 27.3059 3.41788 27.3193C3.42593 27.3314 3.43533 27.3482 3.43197 27.3046C3.44204 27.3449 3.44405 27.3402 3.44338 27.3247C3.44607 27.3368 3.44875 27.3496 3.45143 27.3616C3.49707 27.559 3.55009 27.7564 3.5984 27.9557C3.62324 28.0558 3.64739 28.1558 3.67223 28.2558C3.69571 28.3565 3.72793 28.4552 3.75544 28.5559C3.78363 28.6526 3.8145 28.7452 3.83732 28.8479C3.83128 28.8741 3.7796 28.7063 3.76953 28.7143C3.76953 28.7157 3.76819 28.7143 3.76752 28.7157L3.66484 28.4632L3.65343 28.4545C3.66887 28.5559 3.67625 28.5847 3.74269 28.7694C3.74336 28.7741 3.74403 28.7767 3.7447 28.7821C3.76215 28.8546 3.78161 28.9251 3.80376 28.9942C3.81047 29.0137 3.81584 29.0285 3.82054 29.0419C3.84336 29.1218 3.86282 29.203 3.88832 29.2822C3.89302 29.2983 3.89771 29.3145 3.90308 29.3319C3.92053 29.4044 3.94805 29.4856 3.97422 29.5662C3.97825 29.5823 3.9816 29.5971 3.9863 29.6172C4.01516 29.7213 4.04267 29.8233 4.08495 29.9441C4.08696 29.9482 4.08764 29.9495 4.08898 29.9535C4.12253 30.0858 4.1279 30.1247 4.05072 29.9012C4.0071 29.7736 3.96348 29.6454 3.91986 29.5172C3.87758 29.3883 3.83128 29.2594 3.79772 29.1251C3.75477 28.9674 3.71249 28.8311 3.66417 28.6754C3.68296 28.7734 3.70242 28.8654 3.73195 28.9593C3.76685 29.0674 3.79571 29.1789 3.82926 29.2889C3.86483 29.3984 3.9004 29.5085 3.9353 29.6172C3.97154 29.73 4.00643 29.8481 4.04603 29.9502C4.08025 30.0489 4.11179 30.1482 4.15206 30.2449C4.15542 30.2556 4.15877 30.267 4.16213 30.2784C4.20642 30.4053 4.25004 30.506 4.28896 30.5933C4.34802 30.7262 4.39768 30.8571 4.45003 31.0135C4.50372 31.1518 4.56143 31.2982 4.61512 31.4358C4.69498 31.6452 4.72853 31.7144 4.76813 31.7546C4.77887 31.7654 4.7896 31.7775 4.79631 31.7795C4.83792 31.7942 4.94194 31.9547 5.13388 32.3158C5.21441 32.4655 5.31105 32.6629 5.36205 32.7126V32.7139C5.45533 32.8844 5.51976 32.9757 5.59492 33.0966L5.78686 33.4383C5.84725 33.5383 5.91235 33.6363 5.97476 33.735L6.00496 33.7759C6.02979 33.8149 6.05664 33.8598 6.07207 33.8753L6.27407 34.2109C6.26803 34.2143 6.22307 34.1498 6.21367 34.1451C6.19555 34.1344 6.16938 34.1297 6.30629 34.3217C6.36937 34.4116 6.4291 34.4935 6.47876 34.552C6.64855 34.7836 6.73109 34.9339 6.80088 35.0561C6.84585 35.1306 6.89685 35.2098 6.96128 35.3058C6.99148 35.3723 7.09952 35.5253 7.17938 35.6475C7.21025 35.6932 7.2418 35.7402 7.27334 35.7865C7.30421 35.8328 7.33911 35.8751 7.36863 35.916C7.41829 35.9838 7.45655 36.0328 7.52903 36.1006C7.60083 36.1678 7.70351 36.2799 7.79344 36.3732C7.86055 36.443 7.9337 36.5222 7.97195 36.5444C7.88001 36.445 7.80149 36.3571 7.71828 36.2691C7.62164 36.1644 7.52835 36.061 7.43843 35.9583C7.39413 35.9066 7.35051 35.8556 7.30756 35.8046C7.2673 35.7516 7.22904 35.6979 7.19213 35.6448L7.01899 35.3736L7.02235 35.3763C7.02906 35.3407 6.8331 35.0715 6.80894 34.9984C6.93913 35.1742 7.02235 35.3085 7.17536 35.4978C7.25388 35.5911 7.33038 35.7019 7.4136 35.7912C7.45051 35.8328 7.48809 35.8737 7.52567 35.914C7.53372 35.9227 7.54245 35.9315 7.55117 35.9409L7.6968 36.1067C7.79612 36.2242 7.878 36.3242 7.8686 36.3376C7.7364 36.2181 7.74445 36.2389 7.9384 36.4732C7.97665 36.5162 8.02698 36.5652 8.07127 36.6115L8.06054 36.6008V36.6021C8.02765 36.5773 7.97195 36.5262 7.97665 36.5424C8.05382 36.6202 8.09342 36.6491 8.14711 36.6968C8.20952 36.7572 8.25113 36.8089 8.30549 36.8653C8.34307 36.9055 8.38266 36.9431 8.42226 36.9814C8.61553 37.1888 8.63835 37.2486 8.65915 37.3036C8.6766 37.3513 8.55312 37.2432 8.36186 37.0479C8.282 36.9646 8.19744 36.8713 8.10214 36.7813C8.05315 36.7357 8.00081 36.6853 7.97598 36.6679C7.94444 36.6316 7.90954 36.5974 7.8733 36.5632C7.7176 36.398 7.54983 36.2074 7.40756 36.0657C7.32904 36.0053 7.37602 36.0731 7.56459 36.296C7.59077 36.3336 7.63976 36.3859 7.67734 36.4316L7.70687 36.4625C7.71693 36.4746 7.72767 36.4873 7.73774 36.4994C7.76794 36.5336 7.79747 36.5665 7.82632 36.5967C7.83169 36.6021 7.83639 36.6055 7.84176 36.6102C7.85652 36.631 7.88605 36.6652 7.90618 36.69C7.93034 36.7209 7.92967 36.727 7.93638 36.7404L7.93034 36.7471L7.97464 36.7921C7.98671 36.8048 7.99812 36.8176 8.00886 36.829C8.12496 36.9539 8.20147 37.023 8.29945 37.1063L8.26723 37.0579C8.25381 37.0378 8.24039 37.0163 8.22965 36.9962C8.21153 36.9619 8.08067 36.8116 8.31555 37.0465C8.32361 37.0546 8.33703 37.0572 8.34709 37.0626C8.39877 37.119 8.45984 37.166 8.51353 37.2204C8.57929 37.2942 8.66385 37.3788 8.76116 37.4587L8.84908 37.5285C8.94437 37.5882 8.86183 37.4916 8.87793 37.4815C8.87122 37.4654 8.8484 37.4345 8.90142 37.4708C8.9484 37.5037 9.01282 37.558 9.07591 37.6117C9.12758 37.6561 9.17993 37.701 9.23227 37.746L9.39334 37.8769C9.49601 37.9601 9.60003 38.0454 9.69801 38.128C9.73425 38.1555 9.77049 38.1837 9.8074 38.2126L10.151 38.4717C10.2503 38.5395 10.3476 38.6066 10.4449 38.6737C10.5429 38.7395 10.6396 38.8073 10.7409 38.8698C10.7476 38.8738 10.753 38.8771 10.759 38.8812L10.7537 38.8879C10.6409 38.8228 10.5342 38.7523 10.4241 38.6811C10.3154 38.6093 10.202 38.5388 10.0893 38.4576C9.96914 38.3602 9.84834 38.2669 9.7262 38.1864C9.70607 38.181 9.75707 38.2233 9.80405 38.2636C9.87586 38.322 9.94431 38.3777 10.0154 38.4354C10.0859 38.4938 10.1631 38.5509 10.255 38.6106C10.3624 38.6858 10.4349 38.7295 10.4946 38.7603C10.5456 38.7892 10.5953 38.8201 10.6469 38.8476C10.7637 38.9181 10.8147 38.9416 10.8147 38.9275L10.81 38.9241L10.912 38.9846C10.8979 38.9691 10.9248 38.9812 10.961 39C11.0395 39.051 11.116 39.1061 11.1966 39.1544C11.3469 39.2484 11.3811 39.2578 11.3952 39.2524C11.3925 39.249 11.3872 39.2444 11.3818 39.2397C11.4771 39.2893 11.5482 39.3189 11.6771 39.3974C11.6838 39.4021 11.6905 39.4068 11.6986 39.4122C11.8039 39.4739 11.8616 39.4994 11.9079 39.5149C11.9865 39.5532 12.0589 39.5854 12.1549 39.6377C12.173 39.6485 12.1911 39.6592 12.2099 39.6693L12.3354 39.7317C12.3905 39.7606 12.4455 39.7894 12.5019 39.817C12.5227 39.827 12.5401 39.8351 12.5555 39.8411L12.5623 39.8465C12.6086 39.8727 12.6576 39.8975 12.7086 39.9203C12.7133 39.9217 12.718 39.923 12.7227 39.9244C12.781 39.9586 12.8515 39.9882 12.9226 40.0177C13.0562 40.0815 13.2079 40.154 13.3334 40.2137C13.3931 40.2412 13.4521 40.2681 13.5132 40.2902C13.5307 40.3003 13.5535 40.3117 13.5917 40.3272L13.7508 40.3916L13.8038 40.4191C13.8206 40.4258 13.8373 40.4326 13.8528 40.4393C14.0454 40.5171 14.24 40.5923 14.4366 40.6581C14.6615 40.74 14.742 40.787 14.8594 40.8421C14.8695 40.8508 14.9017 40.8662 14.9621 40.8843C15.1084 40.9387 15.2534 40.9924 15.401 41.0475C15.5131 41.0891 15.6379 41.126 15.758 41.1656C15.8775 41.2046 15.9943 41.2428 16.0976 41.2771C16.1171 41.2905 16.201 41.312 16.2788 41.3328C16.2996 41.3381 16.313 41.3422 16.3258 41.3455L16.3654 41.365L16.2003 41.3267C16.2003 41.3267 16.1942 41.3274 16.1895 41.3274C16.1184 41.3099 16.0466 41.2958 15.9755 41.2764C15.9292 41.2697 15.9506 41.2797 16.0265 41.3019H16.0305C16.0305 41.3019 16.0365 41.3059 16.0392 41.3073C16.054 41.3113 16.0674 41.3146 16.0802 41.318L16.2466 41.3583C16.2627 41.3616 16.2801 41.3657 16.2983 41.369C16.3795 41.3885 16.4452 41.4006 16.5056 41.4106C16.5298 41.418 16.554 41.4247 16.5768 41.4314C16.7204 41.4677 16.8506 41.4932 16.9472 41.4999C16.9445 41.4979 16.9425 41.4959 16.9405 41.4939C17.0204 41.5053 17.0841 41.51 17.2036 41.5382L17.1969 41.5355C17.2747 41.5496 17.2828 41.5442 17.323 41.5476C17.3049 41.5402 17.2767 41.5321 17.2257 41.5227L17.2076 41.518L17.1089 41.4939C17.1143 41.4939 17.119 41.4925 17.1163 41.4905C17.072 41.4744 17.0043 41.4549 16.9539 41.4382C17.0103 41.4496 17.062 41.459 17.0955 41.461C17.0942 41.4596 17.0969 41.459 17.1043 41.459L17.1687 41.467C17.1271 41.4449 17.0365 41.4281 16.9304 41.4133C16.919 41.4113 16.9076 41.4093 16.8962 41.4073C16.8942 41.4059 16.8915 41.4039 16.8835 41.4012C16.8432 41.3885 16.7862 41.371 16.7459 41.359C16.6942 41.3415 16.5902 41.3126 16.6425 41.3153C16.6935 41.3173 16.809 41.3482 16.8955 41.3643C17.07 41.3979 17.2485 41.4476 17.4217 41.4637H17.4244C17.4982 41.4838 17.5942 41.5026 17.6955 41.5214C17.7787 41.5382 17.8619 41.5516 17.9471 41.5597H17.9552C17.9914 41.5704 18.0686 41.5771 18.1156 41.5858C18.4277 41.6436 18.6934 41.6825 18.9773 41.7295C18.978 41.7309 18.982 41.7322 18.9827 41.7335C19.0316 41.7436 19.0907 41.753 19.19 41.759H19.1934L19.5256 41.8054C19.584 41.8168 19.6155 41.8255 19.6826 41.8349C19.6772 41.8349 19.6725 41.8356 19.6699 41.8363C19.6564 41.8356 19.6444 41.8349 19.6356 41.8363C19.5793 41.8383 19.5229 41.8363 19.4665 41.8363C19.4236 41.8329 19.3759 41.8282 19.3578 41.8316C19.345 41.8342 19.3739 41.8383 19.4068 41.8423C19.4913 41.855 19.596 41.8597 19.6927 41.8638C19.7095 41.8644 19.7262 41.8658 19.7437 41.8665C19.8034 41.8752 19.8135 41.8853 19.9162 41.8926C20.1698 41.9175 20.0517 41.8853 20.1598 41.8873C20.1759 41.8832 20.192 41.8792 20.2081 41.8745C20.2866 41.8745 20.2463 41.8651 20.3175 41.8651L20.3309 41.8564L20.6054 41.8591C20.5839 41.8537 20.5295 41.8483 20.596 41.8436C20.6638 41.8389 20.7174 41.843 20.7651 41.8477C20.8302 41.853 20.9087 41.855 20.9825 41.847C21.0691 41.8369 21.1919 41.8316 21.2919 41.8242H21.2939C21.3396 41.8242 21.3812 41.8262 21.4234 41.8255C21.4268 41.8255 21.4288 41.8255 21.4322 41.8255C21.4046 41.8315 21.3912 41.8376 21.4476 41.8389C21.5187 41.8416 21.5872 41.8349 21.6556 41.8282C21.6623 41.8282 21.6677 41.8282 21.6744 41.8282C21.7576 41.8289 21.8288 41.8295 21.9053 41.8302C21.9791 41.8309 22.0502 41.8282 22.1214 41.8262C22.2106 41.8228 22.2918 41.8221 22.4012 41.8134C22.4106 41.8128 22.42 41.8114 22.4294 41.8107C22.4818 41.8087 22.5375 41.806 22.5952 41.8013C22.6522 41.7953 22.7113 41.7893 22.7703 41.7825C22.7864 41.7725 22.7489 41.7684 22.8193 41.753L22.818 41.7449C22.8207 41.7389 22.816 41.7342 22.8502 41.7255C22.8844 41.7114 22.8844 41.7006 22.8938 41.6886L22.8992 41.6845L23.0186 41.6684C23.026 41.6684 23.0327 41.6691 23.0401 41.6698C23.1354 41.6751 23.1958 41.6852 23.3394 41.6765L23.4032 41.6725L23.5756 41.6751C23.5696 41.6798 23.5783 41.6825 23.6038 41.6818C23.6394 41.6805 23.6783 41.6778 23.7428 41.6684C23.8065 41.6584 23.7991 41.6751 23.9065 41.6449L23.7817 41.602L23.7877 41.6006C23.8629 41.5778 23.8018 41.5805 23.7763 41.5765C23.7837 41.5738 23.783 41.5724 23.7736 41.5724L23.7689 41.5442C23.8347 41.506 23.9998 41.4643 24.2172 41.4328C24.2206 41.4402 24.2165 41.4523 24.3313 41.4294C24.4454 41.4039 24.3917 41.4046 24.3541 41.4059C24.3326 41.4059 24.33 41.4012 24.3186 41.3992C24.3675 41.3818 24.3998 41.3637 24.5427 41.3355C24.6105 41.322 24.6776 41.3093 24.7635 41.2925C24.7615 41.2838 24.7601 41.2764 24.7581 41.269C24.889 41.2354 25.0064 41.2072 25.1212 41.1811C25.2359 41.1555 25.3487 41.1321 25.4681 41.1025C25.4722 41.1025 25.4749 41.1025 25.4789 41.1018C25.5064 41.0958 25.5319 41.0871 25.5554 41.0797L25.5641 41.0763C25.8326 40.9958 26.0117 40.9528 26.0876 40.9568C26.1198 40.9575 26.2043 40.9407 26.2647 40.932C26.4224 40.8937 26.4808 40.8635 26.5385 40.834C26.5547 40.828 26.5721 40.8219 26.5828 40.8172C26.7983 40.7192 26.7962 40.7165 27.066 40.6407C27.0801 40.6366 27.0949 40.6326 27.1083 40.6286L27.1768 40.6138C27.262 40.6084 27.4432 40.5574 27.5398 40.5447C27.5512 40.5413 27.562 40.5379 27.5727 40.5346C27.5734 40.5346 27.5747 40.5346 27.5781 40.5346L27.5244 40.5816C27.5069 40.589 27.4895 40.595 27.4734 40.6011C27.415 40.6205 27.3613 40.6413 27.3197 40.6635L27.2513 40.6997L27.3204 40.6789L27.5331 40.5937L27.5942 40.5755L27.6009 40.5876C27.5875 40.5937 27.5741 40.5997 27.5579 40.6071C27.5116 40.6353 27.4895 40.6548 27.4902 40.6662C27.4902 40.6722 27.4955 40.6776 27.5553 40.6568C27.6405 40.6272 27.6754 40.6058 27.7224 40.5823C27.7774 40.552 27.8425 40.5178 27.9291 40.4735C27.9935 40.4379 28.0505 40.4057 28.1156 40.3695C28.1304 40.3621 28.1472 40.3527 28.1633 40.3446C28.2519 40.309 28.2968 40.303 28.3935 40.2607L28.4901 40.2171C28.5284 40.2016 28.5632 40.1855 28.5908 40.1694C28.5968 40.1634 28.6096 40.156 28.6438 40.1412C28.6914 40.1251 28.8109 40.0674 28.8082 40.0801C28.7713 40.109 28.8713 40.068 28.9209 40.0526C29.0565 39.9922 29.186 39.9351 29.3303 39.8707C29.4625 39.8103 29.486 39.7921 29.4947 39.776C29.5216 39.7478 29.6404 39.682 29.7296 39.6283L29.7256 39.6196L29.5209 39.7237L29.4699 39.7451L29.4652 39.7492C29.3974 39.7787 29.3733 39.7774 29.2531 39.8391C29.2216 39.8438 29.1156 39.8962 29.0391 39.9304C28.882 40.0023 28.7317 40.058 28.6109 40.1009C28.6116 40.0996 28.6143 40.0976 28.6136 40.0962C28.6062 40.0935 28.58 40.0996 28.5512 40.1076C28.5357 40.1117 28.523 40.1157 28.5089 40.1191V40.1177L28.6451 40.0452C28.6471 40.0445 28.6492 40.0439 28.6518 40.0432C28.7042 40.0217 28.7585 39.9969 28.8142 39.9694C29.0968 39.817 29.1397 39.7646 29.1632 39.7237C29.1766 39.7062 29.2035 39.6834 29.2538 39.6505C29.3048 39.6183 29.3793 39.5746 29.4867 39.5135C29.5169 39.4954 29.5491 39.4773 29.5766 39.4605L29.7793 39.3524C29.9611 39.2584 30.1283 39.1618 30.1403 39.1826C30.143 39.1873 30.1987 39.1544 30.2336 39.1356C30.2571 39.1269 30.2994 39.1027 30.3376 39.0819C30.4383 39.0248 30.5356 38.9617 30.6343 38.9013C30.7571 38.8302 30.8725 38.7758 31.0101 38.6791C31.0141 38.6771 31.0188 38.6751 31.0228 38.6731C31.1423 38.5959 31.2409 38.5281 31.2644 38.4965H31.2631C31.3698 38.4086 31.5275 38.2844 31.6959 38.1548C31.8114 38.079 31.8201 38.0857 31.8469 38.0776C31.8872 38.0655 31.906 38.0682 31.9543 38.0488L31.9758 38.0561L31.9744 38.0702C31.9503 38.0971 31.9583 38.1018 31.9858 38.0911L31.9986 38.0884C32.0248 38.0783 31.9288 38.1528 31.9684 38.1333L31.9671 38.1454C32.0254 38.1058 32.0228 38.1213 32.1107 38.0541C32.1986 37.9917 32.2872 37.932 32.3744 37.8635C32.3972 37.8447 32.4019 37.838 32.3885 37.8447C32.3496 37.8655 32.3053 37.8917 32.2415 37.9333C32.2462 37.9199 32.1899 37.9494 32.267 37.885C32.4617 37.75 32.5637 37.6527 32.6408 37.5742C32.6932 37.5198 32.6851 37.5084 32.773 37.4291C32.8677 37.3405 32.9073 37.2828 33.012 37.1828C33.1113 37.074 33.2791 36.9673 33.4025 36.8538L33.4099 36.8659C33.3455 36.9297 33.2314 37.0324 33.3428 36.9552C33.465 36.8478 33.4656 36.8337 33.4529 36.8303C33.4871 36.7907 33.5012 36.7679 33.4804 36.774C33.4737 36.7699 33.5045 36.7377 33.5562 36.6894C33.6435 36.6014 33.7092 36.5591 33.7763 36.5048C33.8032 36.4853 33.8146 36.4826 33.8669 36.4356C33.9958 36.3369 34.1246 36.2376 34.2381 36.1503C34.3495 36.0637 34.4454 35.9939 34.5098 35.9577C34.5072 35.9657 34.5246 35.953 34.5468 35.9362C34.577 35.9167 34.6233 35.8778 34.6837 35.82C34.7776 35.7395 34.8749 35.6321 34.9709 35.5381C35.0816 35.4293 35.2044 35.3045 35.2628 35.2219C35.3205 35.138 35.3749 35.0588 35.4306 34.9776C35.5252 34.854 35.4132 34.9507 35.4004 34.9406C35.3051 35.0373 35.2427 35.1064 35.2387 35.1313C35.2367 35.1434 35.2219 35.1689 35.2098 35.1917L35.2051 35.1964C35.1695 35.236 35.1434 35.2689 35.1125 35.3045C35.0273 35.4052 34.9387 35.4851 34.8595 35.5542C34.7709 35.6307 34.7555 35.6321 34.8253 35.5475C34.834 35.5374 34.8454 35.524 34.8568 35.5099C34.8837 35.4851 34.9098 35.4609 34.9373 35.4354C34.938 35.428 34.9454 35.4132 34.8977 35.4575C34.8977 35.4562 34.8957 35.4562 34.889 35.4602C34.7951 35.5334 34.6474 35.6844 34.5152 35.7972C34.6152 35.7026 34.6924 35.6213 34.7723 35.5428C34.8629 35.4508 34.9568 35.3602 35.044 35.2669C35.1306 35.1736 35.2145 35.0816 35.2897 34.993C35.338 34.9346 35.387 34.8782 35.4333 34.8185C35.5078 34.7372 35.5574 34.6735 35.6145 34.6043C35.5997 34.6278 35.6011 34.6339 35.6655 34.5694C35.7138 34.5157 35.7628 34.4627 35.8104 34.4076C35.8192 34.4063 35.8353 34.3955 35.8903 34.3291C35.9641 34.2385 36.0373 34.1498 36.1104 34.0599L36.1809 33.9753L36.3628 33.7524C36.444 33.6517 36.5285 33.5531 36.6077 33.4503C36.6292 33.402 36.5138 33.5383 36.5205 33.5087C36.5352 33.4859 36.5399 33.4745 36.5406 33.4685L36.5486 33.4571C36.5681 33.4302 36.5889 33.4013 36.6077 33.3752C36.7735 33.165 36.8822 33.0617 37.011 32.9032C37.0533 32.8583 37.0976 32.8039 37.1473 32.7247L37.1359 32.7166C37.0949 32.7488 37.1432 32.675 37.2244 32.5589C37.2835 32.4716 37.3654 32.3581 37.3976 32.295C37.4003 32.2917 37.403 32.2883 37.4056 32.285C37.4466 32.2319 37.4882 32.1729 37.5298 32.1118C37.6143 31.9842 37.6962 31.8553 37.7855 31.7311C37.8398 31.6513 37.8976 31.5754 37.9465 31.4868L37.9492 31.4807C38.0183 31.3848 38.1016 31.2632 38.1063 31.2854C38.0767 31.3344 38.0606 31.3653 38.062 31.3733C38.0673 31.372 38.0747 31.3666 38.1009 31.3284C38.0922 31.3304 38.1257 31.2726 38.1425 31.2391C38.1479 31.2324 38.1519 31.2257 38.1579 31.2176C38.2163 31.1323 38.2727 31.0437 38.3271 30.9484C38.3331 30.9383 38.3365 30.931 38.3398 30.9242C38.3613 30.8927 38.3814 30.8631 38.4049 30.8242C38.4049 30.8242 38.4049 30.8242 38.4062 30.8242C38.417 30.8121 38.4311 30.794 38.4552 30.7517C38.4982 30.6765 38.5593 30.6094 38.5666 30.5758C38.5874 30.4678 38.7418 30.21 38.876 29.9602C38.9485 29.824 39.025 29.6864 39.0881 29.5534L39.3122 29.103C39.372 28.9869 39.4256 28.8674 39.482 28.7492C39.5471 28.6136 39.6109 28.4773 39.6713 28.3391L39.6672 28.3458L39.6793 28.3182L39.6713 28.3397C39.7256 28.2363 39.7773 28.1383 39.7451 28.2457C39.7558 28.2457 39.7786 28.2128 39.8303 28.1034C39.8317 28.1088 39.8417 28.0934 39.8592 28.0584C39.9256 27.9544 39.9504 27.8994 39.9813 27.7772C39.9981 27.7107 40.0504 27.5731 40.0384 27.5657L40.0263 27.5087C40.0511 27.4388 40.0873 27.3563 40.1041 27.2965C40.1753 27.1166 40.2424 26.932 40.2934 26.7655L40.3256 26.6501C40.341 26.6071 40.3551 26.5668 40.3571 26.5467C40.4007 26.3513 40.5021 26.0915 40.5746 25.8499C40.6276 25.6921 40.6746 25.5209 40.7262 25.3739C40.7685 25.2618 40.747 25.3692 40.7524 25.3833C40.7209 25.5068 40.6699 25.6478 40.643 25.7619C40.6289 25.8123 40.5947 25.9042 40.6021 25.9083C40.6081 25.9116 40.6309 25.8304 40.6464 25.7841C40.6598 25.7404 40.6739 25.6961 40.6873 25.6525C40.7189 25.5646 40.7464 25.4753 40.7766 25.3867C40.7933 25.335 40.7974 25.3377 40.8021 25.3336L40.8262 25.339C40.8262 25.3444 40.8282 25.3424 40.8323 25.3323C40.8383 25.3504 40.8443 25.3685 40.8524 25.392C40.8873 25.2457 40.8954 25.1906 40.8833 25.1933C40.888 25.1383 40.8886 25.0933 40.8953 25.0262C40.9041 24.9416 40.9974 24.5932 41.0188 24.5623C41.0665 24.4945 41.1128 24.3193 41.1638 24.0447C41.1712 24.0071 41.1792 23.9622 41.1873 23.9205C41.2249 23.7742 41.2604 23.6279 41.2812 23.4788L41.2873 23.4211C41.3034 23.3358 41.3141 23.264 41.3202 23.2056L41.3168 23.1949V23.1908V23.1922C41.3242 23.1378 41.3416 23.0566 41.3389 23.0277C41.3389 22.9693 41.343 22.8733 41.302 23.0969C41.2249 23.5043 41.1383 23.8407 41.043 24.1763C41.0081 24.2837 40.9732 24.4093 40.9403 24.5569C40.8638 24.8268 40.7886 25.0967 40.7027 25.3638C40.6538 25.5216 40.6001 25.6794 40.545 25.8385C40.5182 25.9183 40.4913 25.9982 40.4638 26.0788C40.435 26.1587 40.4068 26.2392 40.3779 26.3198L40.3558 26.3695C40.339 26.4044 40.3316 26.4124 40.3444 26.3627C40.3504 26.3453 40.3551 26.3298 40.3591 26.3158C40.5316 25.7901 40.6813 25.2611 40.8188 24.7227C41 24.0219 41.1544 23.3076 41.2725 22.5914C41.3054 22.3953 41.3329 22.1973 41.3644 22.0013C41.3906 21.8039 41.4168 21.6079 41.443 21.4132C41.4651 21.2273 41.4758 21.1736 41.4772 21.3038C41.4785 21.3689 41.4792 21.43 41.4805 21.4924C41.4805 21.5549 41.4792 21.618 41.4785 21.6858C41.4752 21.8328 41.4886 21.816 41.5208 21.6415C41.5322 21.577 41.5463 21.5462 41.5557 21.4381C41.5409 21.3528 41.5389 21.1816 41.5356 21.0125C41.5322 20.8977 41.5356 20.7735 41.5443 20.6446C41.549 20.5801 41.5544 20.515 41.5591 20.4486C41.5631 20.3828 41.5671 20.3163 41.5711 20.2499C41.5899 19.9914 41.5913 19.6678 41.6255 19.5712C41.6349 19.5443 41.6497 19.6296 41.6537 19.4691C41.6557 19.3517 41.655 19.2026 41.6503 19.0952C41.647 19.0308 41.6463 18.9663 41.6456 18.9026C41.643 18.8388 41.6409 18.7757 41.6383 18.7133L41.6289 18.3776C41.6409 18.236 41.657 18.1333 41.6651 17.9567C41.6718 17.8191 41.6859 18.0064 41.6966 18.1185C41.7027 18.052 41.706 17.9527 41.6993 17.8412C41.6846 17.6499 41.6805 17.5439 41.7 17.568C41.7054 17.5747 41.7054 17.5224 41.7013 17.468C41.6966 17.4009 41.6893 17.3801 41.6832 17.3505C41.6705 17.2975 41.6597 17.2901 41.6443 17.1847L41.6107 16.8927C41.5745 16.5839 41.5577 16.3221 41.5014 16.0012C41.4879 15.8837 41.4678 15.7689 41.4376 15.6568C41.3792 15.395 41.3671 15.4333 41.3732 15.5179C41.3913 15.7743 41.3302 15.6662 41.3215 15.7951C41.3195 15.8267 41.3054 15.783 41.2832 15.6662C41.2269 15.3487 41.1577 15.0318 41.0839 14.7177C41.0336 14.5203 40.988 14.3256 40.9806 14.2337C40.9772 14.1847 40.945 14.0672 40.8953 13.9168C40.8417 13.7476 40.7732 13.5892 40.7135 13.3945C40.6913 13.2959 40.6826 13.2341 40.5994 13.0287C40.6242 13.1166 40.6262 13.1495 40.6048 13.1193C40.4907 12.8092 40.3491 12.5225 40.2182 12.1983L40.1585 12.056L40.0914 11.917L39.9578 11.6384C39.9759 11.633 39.9867 11.6176 39.8424 11.3558C39.8323 11.339 39.8189 11.3034 39.8062 11.2826C39.6719 11.0557 39.6377 10.9456 39.5471 10.7697C39.5142 10.6919 39.4787 10.6012 39.423 10.5026C39.3673 10.4039 39.3001 10.2918 39.2183 10.1636C39.176 10.0958 39.1344 10.03 39.0935 9.96552C39.0525 9.90175 39.0122 9.83865 38.9673 9.78159C38.8774 9.65538 38.7861 9.52582 38.6995 9.4117L38.6264 9.32309C38.5029 9.15459 38.5552 9.25999 38.5083 9.21031C38.4284 9.1123 38.3707 9.02436 38.2989 8.92971L38.0116 8.55042L37.707 8.18523L37.5546 8.00264L37.4781 7.91134L37.3976 7.82407L37.0755 7.47432C36.9956 7.38907 36.9178 7.30247 36.8325 7.22191C36.697 7.09168 36.5654 6.95943 36.4332 6.82786L36.3339 6.72918L36.2299 6.6352C36.1594 6.57344 36.0896 6.51101 36.0185 6.44857L35.744 6.20422C35.6507 6.12434 35.5541 6.04915 35.4595 5.97128C35.3803 5.90549 35.3011 5.8397 35.2239 5.77459C35.1467 5.70947 35.0716 5.64503 34.9957 5.58729C34.8467 5.46982 34.7119 5.35905 34.6072 5.26238C34.5696 5.22748 34.5179 5.17981 34.4461 5.13349C34.377 5.0912 34.3971 5.11671 34.4139 5.13685C34.4662 5.20667 34.4669 5.20264 34.1985 5.02072C34.0998 4.94889 33.9978 4.87907 33.8951 4.80993L33.7401 4.70587C33.6871 4.67298 33.6341 4.64009 33.5817 4.60786L33.2985 4.43266C33.1509 4.34337 33.0059 4.25275 32.865 4.18562L32.7697 4.13728C32.661 4.07485 32.6073 4.05337 32.557 4.0339C32.4576 3.97886 32.359 3.92247 32.259 3.86876C32.2436 3.86071 32.2288 3.85265 32.214 3.84459C32.1469 3.80499 32.0348 3.74658 32.0684 3.74994C32.0147 3.71705 32.2046 3.79492 31.9791 3.68348L31.9711 3.70094C32.0187 3.73316 31.955 3.70429 31.9107 3.68617L31.6067 3.53311C31.5074 3.48075 31.4033 3.43846 31.3127 3.39012C31.2201 3.3485 31.2369 3.35052 31.2557 3.35387H31.2564C31.4007 3.41496 31.5308 3.46934 31.3678 3.37804C31.2537 3.31762 31.1215 3.25385 30.9899 3.1894C30.9242 3.15718 30.8591 3.12496 30.7953 3.09408C30.7309 3.06521 30.6692 3.03702 30.6121 3.0095C30.6 3.00278 30.5886 2.99607 30.5759 2.98869L30.6732 3.01554C30.7423 3.03836 30.8389 3.0726 30.6806 3.00211L30.6497 2.98399C30.7228 3.01017 30.7933 3.035 30.8316 3.04373C30.8141 3.03366 30.7993 3.02292 30.7772 3.01352C30.5953 2.93699 30.4309 2.86382 30.2766 2.79267C30.1994 2.75709 30.1242 2.72218 30.0504 2.68794C29.9759 2.65639 29.9021 2.62484 29.8296 2.59396C29.6618 2.52414 29.4833 2.44896 29.3068 2.37579C29.1283 2.30799 28.9511 2.24354 28.7941 2.18044C28.7538 2.15828 28.6344 2.11801 28.5834 2.09384C28.4196 2.03007 28.3109 1.98576 28.0478 1.91729C27.9754 1.89513 27.9062 1.875 27.8526 1.86761C27.8499 1.86761 27.8505 1.86761 27.8485 1.86828L27.7734 1.84881C27.766 1.84949 27.7479 1.84613 27.7116 1.83539L27.7197 1.83942C27.6532 1.82465 27.5439 1.79914 27.4969 1.79578L27.4204 1.78773L27.4231 1.7978C27.3627 1.80048 27.319 1.80652 27.421 1.84613C27.5298 1.87432 27.6391 1.89715 27.7465 1.93071C27.8304 1.96629 27.8559 1.98106 27.6358 1.92064C27.5761 1.90655 27.5338 1.9005 27.4855 1.89044C27.4043 1.87298 27.3459 1.85956 27.3526 1.8703C27.358 1.87902 27.3875 1.89312 27.4479 1.91057C27.5029 1.92736 27.5687 1.93877 27.6116 1.94347C27.6727 1.95018 27.7512 1.97099 27.8465 1.9965C27.9781 2.03208 28.1129 2.07236 28.2378 2.09921C28.4404 2.14956 28.6391 2.21333 28.8263 2.26502C28.925 2.29657 29.0223 2.32745 29.1095 2.34961C29.1484 2.37176 29.2397 2.39861 29.3196 2.43218C29.5196 2.51273 29.7296 2.59597 29.8705 2.66445C29.886 2.6772 29.837 2.65572 29.8081 2.64565C29.6887 2.59799 29.5679 2.54965 29.4444 2.50065C29.3887 2.4785 29.331 2.45634 29.2739 2.43419C29.2162 2.41405 29.1572 2.39727 29.0988 2.38384C29.0377 2.37377 28.9397 2.34491 28.8371 2.3147C28.6324 2.25562 28.4257 2.18984 28.2143 2.13747C28.0036 2.08243 27.7935 2.02335 27.5834 1.97368C27.3204 1.91729 27.0459 1.84881 26.7922 1.80249C26.6969 1.7837 26.5855 1.75953 26.5372 1.7602C26.5224 1.7602 26.6244 1.779 26.6721 1.78907C26.803 1.81458 26.9325 1.84814 27.0627 1.87835C27.1929 1.90856 27.3231 1.93676 27.4546 1.96361L27.6096 1.99852C27.7277 2.03745 27.8646 2.07169 27.9955 2.10727L28.1586 2.15359C28.2418 2.18178 28.3264 2.2046 28.4123 2.22609C28.4317 2.23481 28.4471 2.24085 28.4518 2.23951C28.4539 2.23951 28.4545 2.23817 28.4532 2.23616C28.4639 2.23884 28.474 2.24153 28.4847 2.24421C28.6626 2.30127 28.8505 2.35363 29.0136 2.41674C29.0001 2.42278 29.0048 2.43352 29.1169 2.47447L29.1189 2.49461C28.9827 2.4738 28.9921 2.48319 29.1921 2.54697C29.3666 2.60806 29.5363 2.6725 29.7055 2.7356L29.9585 2.83093C30.043 2.86248 30.1249 2.90007 30.2088 2.93498C30.2417 2.95445 30.3054 2.97929 30.3611 3.00278L30.3443 2.99875C30.3282 2.99271 30.3121 2.986 30.296 2.97996C30.2128 2.94706 30.1283 2.9135 30.043 2.87993C29.9585 2.8457 29.8712 2.81683 29.786 2.78729C29.6095 2.72822 29.437 2.66445 29.2666 2.59799C29.1545 2.5557 29.0377 2.5228 28.923 2.48454C28.8163 2.4503 28.7095 2.41606 28.6028 2.38183C28.4961 2.34759 28.3901 2.31336 28.2821 2.28583C28.0666 2.2281 27.8519 2.17037 27.6378 2.11264C27.2049 2.01463 26.7741 1.91393 26.3379 1.84546C26.2721 1.83539 26.2057 1.82331 26.1392 1.81122C26.1205 1.80249 26.0983 1.79377 26.0668 1.7837L26.0299 1.76222L25.9775 1.74208L25.9688 1.73536C25.9164 1.71925 25.8661 1.6971 25.8091 1.69106L25.8158 1.70314C25.8299 1.70717 25.8433 1.7112 25.8567 1.71523L25.9614 1.75819C25.9252 1.75215 25.8883 1.74275 25.8507 1.73134C25.8238 1.72261 25.795 1.71254 25.7735 1.70516C25.7205 1.6877 25.652 1.67226 25.6037 1.65414C25.4272 1.59305 25.3104 1.58566 25.1829 1.56217L25.0903 1.54069C25.0541 1.53666 25.0084 1.52659 24.9615 1.51585C24.9145 1.50645 24.8655 1.49638 24.8225 1.49034H24.8185C24.8246 1.49034 24.8306 1.49034 24.8373 1.49034C24.8689 1.49168 24.9011 1.49168 24.8736 1.48698C24.8225 1.47758 24.7662 1.46886 24.7051 1.46349C24.7044 1.46349 24.7038 1.46282 24.7024 1.46214C24.5823 1.42724 24.4132 1.38763 24.2347 1.36481C24.1561 1.35272 24.0743 1.34332 23.9991 1.32788C23.9736 1.31446 24.0676 1.32788 24.1226 1.33393C24.1991 1.34131 24.281 1.35205 24.3635 1.36279C24.4461 1.37488 24.5293 1.39166 24.6098 1.40508L24.7031 1.41985L24.7789 1.43462C24.8447 1.44469 24.9467 1.46819 24.9803 1.46684C24.999 1.4655 24.9306 1.44939 24.889 1.43932L24.4655 1.33594L24.5266 1.32788C24.5447 1.33191 24.5635 1.33661 24.583 1.34064C24.5561 1.3393 24.5326 1.3393 24.5172 1.34131C24.5642 1.34668 24.6118 1.35205 24.6561 1.35608C24.7407 1.37353 24.8259 1.39099 24.885 1.40911L24.94 1.41045C24.9272 1.3977 24.8454 1.38025 24.7668 1.36212C24.7756 1.36212 24.7836 1.36212 24.7903 1.36078C24.7715 1.35876 24.7528 1.35675 24.734 1.35474C24.7158 1.35071 24.6984 1.34668 24.683 1.34265L24.6326 1.32856C24.6078 1.32117 24.5803 1.31513 24.5508 1.3111C24.5346 1.3017 24.4816 1.28828 24.4199 1.27485C24.2078 1.2386 24.0575 1.20436 23.8978 1.16946C23.9541 1.17886 24.0085 1.18624 24.0575 1.18825C24.0649 1.18825 24.0682 1.18758 24.0682 1.18624C24.0682 1.18624 24.0682 1.18624 24.0696 1.18624L24.2575 1.2198C24.2924 1.23793 24.4018 1.25471 24.5065 1.27351C24.591 1.28694 24.4904 1.2621 24.4803 1.25538C24.4474 1.24733 24.4145 1.2386 24.381 1.23256C24.3581 1.22719 24.3347 1.22316 24.3098 1.21846C24.3199 1.2198 24.3306 1.22115 24.3414 1.22249C24.4011 1.23189 24.4635 1.24129 24.5112 1.25001C24.5702 1.2621 24.6474 1.27217 24.7091 1.27284C24.7373 1.27284 24.6716 1.26344 24.6346 1.2574C24.4964 1.23793 24.3863 1.20772 24.189 1.19899C24.1917 1.19899 24.1944 1.20034 24.1971 1.20101C24.1521 1.19497 24.1072 1.18825 24.0615 1.18221L24.0058 1.16342C23.9877 1.15939 23.9662 1.15536 23.9421 1.15133C23.9354 1.15066 23.9286 1.14932 23.9219 1.14798L23.8542 1.13186C23.8615 1.13186 23.8682 1.13254 23.8729 1.13321C23.8689 1.12045 24.0186 1.13656 24.0313 1.12649C24.0662 1.13522 24.1132 1.14328 24.1716 1.14999L24.2803 1.16543C24.3253 1.17214 24.3488 1.17483 24.3286 1.16744L24.279 1.15603C24.2561 1.14865 24.2212 1.14193 24.1729 1.13589L23.9085 1.08085L23.8837 1.07749L23.8582 1.07346C23.728 1.04862 23.6132 1.02513 23.4253 1.00365C23.4273 0.996261 23.3931 0.992234 23.3495 0.989548C23.167 0.939872 23.1716 0.939201 23.575 0.976122C23.5837 0.976794 23.5864 0.976794 23.5877 0.976794C23.5884 0.976794 23.5911 0.976794 23.5998 0.977465C23.624 0.978808 23.6454 0.98015 23.6636 0.980821C23.7313 0.975451 23.6461 0.960011 23.5508 0.943229C23.4595 0.927117 23.3569 0.911677 23.2777 0.895566C23.2414 0.888182 23.2052 0.88214 23.2421 0.878784C23.2696 0.87677 23.3065 0.880126 23.3455 0.88214C23.3736 0.884154 23.4025 0.886168 23.4314 0.888182L23.5434 0.900937L23.5978 0.904964C23.683 0.915034 23.7629 0.921747 23.8414 0.927789C23.9199 0.935844 23.9971 0.945914 24.0776 0.955983C24.1253 0.962025 24.1917 0.970081 24.1676 0.960682C24.1447 0.951956 24.0958 0.941886 24.0213 0.936516C23.9649 0.932488 23.9052 0.924432 23.8427 0.917048C23.7803 0.911006 23.7159 0.902279 23.6522 0.892881C23.5287 0.872071 23.4119 0.85126 23.3025 0.83045C23.1938 0.812325 23.0911 0.795542 22.9945 0.779431C23.0777 0.785473 23.1529 0.788829 23.2247 0.7895C23.2596 0.791514 23.2945 0.795542 23.3287 0.79957C23.4622 0.822394 23.5508 0.846561 23.7636 0.869385C23.6528 0.841191 23.4804 0.815681 23.3341 0.7895C23.275 0.776746 23.2381 0.764662 23.2971 0.763991C23.3461 0.763991 23.4394 0.776074 23.5186 0.788829C23.5629 0.796213 23.6387 0.802255 23.7045 0.808968C23.6709 0.796213 23.5864 0.786815 23.53 0.777417C23.4535 0.764662 23.3763 0.751908 23.3045 0.739824C23.2334 0.728412 23.167 0.720356 23.1139 0.710958C23.0079 0.692833 22.9515 0.674708 22.9985 0.657254C23.016 0.650541 22.9696 0.633087 22.7885 0.621675C22.6958 0.60892 22.5958 0.602879 22.4999 0.596166C22.4039 0.588781 22.3126 0.581397 22.2355 0.571999C22.2053 0.564614 22.1865 0.55723 22.1422 0.550517C22.0643 0.537091 21.9784 0.531049 21.8825 0.522994C21.6496 0.504868 21.4194 0.510239 21.2751 0.545818C21.2234 0.55723 21.2369 0.573341 21.0228 0.579383C20.8819 0.581397 20.7376 0.585425 20.6282 0.584082C20.5188 0.582068 20.443 0.574684 20.4416 0.561929C20.4403 0.554545 20.4376 0.547832 20.4356 0.541119C20.4275 0.529035 20.4779 0.51091 20.3879 0.506211C20.351 0.502183 20.2745 0.510239 20.2168 0.516281C20.0175 0.541119 19.8484 0.561929 19.8618 0.535077C19.8672 0.525008 19.7799 0.522322 19.6068 0.54179C19.3712 0.576026 19.1679 0.602207 19.0095 0.616305C18.8518 0.635101 18.7397 0.641814 18.686 0.630402C18.6391 0.638458 18.584 0.649198 18.5666 0.656583C18.5149 0.680078 18.4297 0.705588 18.3344 0.737139C18.2384 0.76869 18.1337 0.803598 18.0384 0.835149L17.9492 0.86133L17.8727 0.878112C17.823 0.889524 17.7794 0.900937 17.7411 0.914363C17.7653 0.900265 17.7243 0.90295 17.7297 0.893552C17.7203 0.886168 17.7264 0.874756 17.7525 0.857973C17.7552 0.838505 17.8465 0.802255 17.8311 0.787487C17.6009 0.829107 17.5499 0.825079 17.5626 0.797556C17.5593 0.797556 17.5552 0.797556 17.5512 0.798227C17.5908 0.782116 17.6317 0.764662 17.6787 0.745195C17.6082 0.763991 17.5572 0.777417 17.5062 0.791514L17.427 0.822394C17.4203 0.824408 17.4136 0.825751 17.4062 0.827765C17.2888 0.859316 17.1975 0.886839 17.1271 0.912349C17.0566 0.939201 17.0056 0.962696 16.9667 0.983507C16.8794 1.02983 16.7882 1.07749 16.7278 1.11642C16.7036 1.13254 16.6815 1.14798 16.6264 1.17214C16.5586 1.20034 16.4962 1.22518 16.4392 1.23256C16.3956 1.23659 16.415 1.21846 16.407 1.21041C16.3989 1.20235 16.4117 1.18691 16.3707 1.19027C16.2016 1.2292 16.1003 1.27821 15.9916 1.32587C15.9473 1.33191 15.8392 1.37018 15.8265 1.36413C15.8265 1.36413 15.8171 1.36615 15.8043 1.37018C15.7916 1.3742 15.7741 1.37957 15.7574 1.38562C15.7231 1.3977 15.6882 1.4118 15.6849 1.42187C15.6849 1.42321 15.6822 1.42522 15.6788 1.42791C15.6238 1.45208 15.6285 1.45677 15.6164 1.46617C15.5681 1.49101 15.5379 1.50914 15.5319 1.51921C15.5594 1.51383 15.5788 1.51048 15.5359 1.53196C15.4634 1.56284 15.4325 1.58029 15.4359 1.58566C15.4205 1.59305 15.407 1.59976 15.3983 1.6058C15.3352 1.64474 15.2037 1.7018 15.0829 1.7555C15.0473 1.77229 15.0131 1.78705 14.9796 1.80048C14.9393 1.81525 14.8997 1.83069 14.8554 1.84949C14.8353 1.85687 14.8151 1.86493 14.7957 1.87231C14.5011 1.99314 14.2299 2.11666 13.9937 2.26234C13.889 2.32141 13.7796 2.37243 13.6716 2.42613C13.5481 2.49192 13.4266 2.55704 13.3058 2.62148C13.2454 2.65371 13.1857 2.68526 13.126 2.71681C13.0669 2.7497 13.0085 2.78327 12.9502 2.81616C12.8334 2.88195 12.7173 2.94706 12.6005 3.01285C12.4864 3.08267 12.3723 3.15181 12.2576 3.22163C12.1871 3.26526 12.112 3.30957 12.0408 3.35656C11.971 3.40422 11.9039 3.45255 11.8469 3.49686C11.6885 3.62172 11.5335 3.73114 11.3852 3.84258C11.31 3.89696 11.2355 3.94999 11.161 4.00168L11.0489 4.07888L10.9389 4.15876C10.9194 4.17219 10.9006 4.18494 10.8812 4.19837C10.8812 4.18763 10.8899 4.16883 10.8328 4.20441C10.81 4.20441 10.7127 4.29101 10.6429 4.34606C10.5839 4.37828 10.3597 4.58437 10.4523 4.4736C10.5288 4.4011 10.4691 4.44138 10.4872 4.41654L10.4356 4.45481C10.3262 4.53738 10.2195 4.62599 10.1027 4.73944C10.0134 4.82268 9.91277 4.92606 9.80539 5.02474C9.72083 5.10463 9.63426 5.1825 9.55104 5.26373C9.44367 5.37248 9.30475 5.496 9.2363 5.58797C9.16852 5.64905 9.10476 5.70611 9.22086 5.57924C9.27455 5.52084 9.32757 5.46243 9.34837 5.43088C9.4175 5.36442 9.47387 5.30468 9.52554 5.24694C9.55641 5.21405 9.60272 5.16773 9.57588 5.18921C9.5195 5.23419 9.45776 5.30132 9.40609 5.35838C9.37924 5.3859 9.34972 5.41544 9.33696 5.43222C9.26247 5.49197 9.09336 5.66181 9.06047 5.67456L9.05175 5.67993L9.07188 5.65241C9.16785 5.56111 9.2618 5.46847 9.35106 5.37315C9.42152 5.30602 9.49065 5.23755 9.56178 5.17176L9.77855 4.97641C9.79868 4.95828 9.84029 4.92069 9.82217 4.93076C9.81344 4.93613 9.78056 4.96433 9.75908 4.98245C9.69063 5.04153 9.62151 5.09993 9.55239 5.16169C9.48393 5.22479 9.4175 5.29394 9.34904 5.36912C9.26113 5.45639 9.17657 5.52956 9.08732 5.62153C9.06785 5.63227 9.03161 5.66449 8.97658 5.72088C8.97256 5.72491 8.9692 5.72827 8.96585 5.7323L8.92088 5.76318C8.92759 5.73968 8.90209 5.75176 8.85511 5.78667C8.75109 5.86387 8.65177 5.93436 8.61553 5.93637C8.58735 5.93771 8.51554 5.9941 8.38803 6.12299L8.30951 6.20288C8.26321 6.24517 8.21153 6.29955 8.1518 6.37339C8.09275 6.4526 8.10684 6.44857 8.16523 6.39554C8.21086 6.36869 8.33501 6.2445 8.39743 6.19751C8.52695 6.07063 8.5605 6.05922 8.61218 6.02767C8.68331 5.97396 8.74774 5.92832 8.84908 5.83836L8.89941 5.80748V5.80815C8.78733 5.9263 8.69204 6.02767 8.61486 6.12299C8.53769 6.21832 8.4746 6.30223 8.42024 6.37943C8.38602 6.42575 8.32629 6.49355 8.27327 6.55531C8.2216 6.61841 8.17798 6.67615 8.17127 6.69897H8.17194C8.09476 6.78154 8.02899 6.87418 7.95517 6.96011C7.90149 7.01448 7.84243 7.08765 7.78807 7.16083C7.69479 7.28435 7.6015 7.40786 7.50755 7.53071L7.23911 7.90866C7.10288 8.07245 6.98745 8.25975 6.86531 8.441C6.84853 8.46718 6.83176 8.49269 6.81565 8.5182C6.80357 8.5323 6.7935 8.54706 6.78545 8.56318L6.65928 8.76054L6.60157 8.85049L6.58613 8.87265L6.57271 8.8948L6.47742 9.03913C6.43581 9.10357 6.39823 9.17003 6.35863 9.23582C6.26266 9.3976 6.16133 9.55603 6.07006 9.72117C5.98214 9.86953 5.9204 9.99305 5.84323 10.1468C5.88752 10.0709 5.91369 10.0253 5.94054 9.98029C5.98886 9.91115 6.03516 9.81784 6.08281 9.73527C6.15596 9.60235 6.23716 9.4748 6.31501 9.34457C6.39353 9.21568 6.47473 9.08142 6.55057 8.95656C6.60358 8.8713 6.6566 8.78873 6.70827 8.71959C6.71163 8.72496 6.68613 8.76658 6.66264 8.80686C6.64385 8.83572 6.62506 8.86459 6.6056 8.89413C6.5566 8.97401 6.5056 9.05255 6.45795 9.13378L6.31568 9.37679C6.26803 9.45802 6.22039 9.53925 6.17274 9.62047C6.1271 9.70305 6.08147 9.78561 6.03516 9.86886C5.97409 9.98566 5.90765 10.1005 5.84189 10.2159C5.76605 10.3106 5.68485 10.4046 5.61438 10.4992C5.72042 10.2992 5.82779 10.0984 5.9345 9.90309C5.97745 9.82119 6.03852 9.72386 6.07073 9.65136C6.11167 9.57885 6.15126 9.51441 6.17878 9.45735C6.26937 9.30631 6.2781 9.27945 6.21837 9.35598C6.20965 9.36941 6.20159 9.38283 6.19354 9.39626C6.18079 9.40633 6.15059 9.46003 6.12912 9.4936L6.10093 9.54328C6.05731 9.61511 6.05932 9.63189 6.02644 9.6923L6.03114 9.69566C6.02912 9.69969 6.02711 9.70506 6.02509 9.70909L6.02308 9.71916C6.0204 9.72318 6.01906 9.72587 6.0157 9.7299C5.97611 9.79904 5.93584 9.86751 5.89624 9.93599C5.90363 9.91316 5.87343 9.95881 5.85531 9.98298L5.81907 10.038L5.80498 10.0629L5.79088 10.0877L5.7882 10.1025L5.80162 10.1052C5.76941 10.1629 5.74122 10.2226 5.71236 10.281C5.71169 10.281 5.70767 10.2864 5.69961 10.3012L5.64928 10.3945C5.62982 10.4462 5.58553 10.524 5.55197 10.5905C5.54996 10.5939 5.54727 10.5972 5.54526 10.6006L5.5164 10.6617C5.5164 10.6617 5.51909 10.6583 5.5211 10.6563L5.50164 10.6972L5.53855 10.6348C5.62244 10.5314 5.70364 10.4281 5.78417 10.324C5.75062 10.3858 5.71639 10.4468 5.68284 10.5079C5.66404 10.5334 5.64525 10.5576 5.62713 10.5838C5.61975 10.5952 5.61573 10.6026 5.61304 10.6086C5.58217 10.6516 5.55063 10.6952 5.52244 10.7355C5.39762 10.9161 5.22448 11.1329 5.14663 11.2779C5.21911 11.1725 5.29897 11.0732 5.3748 10.9711C5.44929 10.861 5.53385 10.7422 5.62177 10.6207C5.56472 10.7248 5.50835 10.8268 5.456 10.9255C5.45198 10.9335 5.44795 10.9409 5.44392 10.949L5.40366 10.9839C5.36742 11.0342 5.32447 11.1296 5.29494 11.196C5.26541 11.2632 5.27951 11.2477 5.31306 11.1893L5.3701 11.1061L5.36608 11.1155C5.35668 11.1369 5.34661 11.1591 5.33655 11.1813C5.27481 11.2598 5.21844 11.3397 5.16408 11.4202C5.19226 11.3706 5.21508 11.3283 5.14126 11.4189C5.11978 11.4431 5.10099 11.4612 5.06543 11.5182C5.06543 11.5182 5.06542 11.5182 5.0661 11.5182L5.04462 11.5552L4.94329 11.6894L4.83591 11.8244C4.84128 11.8062 4.90101 11.7136 4.85537 11.7639C4.80638 11.8297 4.77685 11.8787 4.74598 11.9304C4.75404 11.9096 4.76142 11.8888 4.76813 11.8707L4.81041 11.7599L4.9802 11.3685L5.06543 11.1725L5.15535 10.9792C5.21575 10.8516 5.27749 10.7228 5.34058 10.5945C5.40701 10.4677 5.47412 10.3401 5.54056 10.2132C5.60969 10.0837 5.65465 9.98298 5.7231 9.86214C5.75263 9.80374 5.79894 9.71916 5.76739 9.75474L5.73719 9.79904C5.68216 9.88497 5.63519 9.96485 5.59559 10.0394C5.55734 10.1152 5.52513 10.1864 5.49694 10.2542L5.44325 10.3562C5.37681 10.4777 5.32246 10.5811 5.29091 10.6684L5.29561 10.6623L5.21642 10.8194L5.17146 10.9241C5.13052 11.0054 5.09428 11.0819 5.05939 11.1584C5.02583 11.2356 4.99362 11.3122 4.95604 11.3934C4.94328 11.4243 4.92919 11.4565 4.9151 11.488C4.85738 11.5558 4.80839 11.6297 4.76276 11.7049L4.74732 11.727L4.73189 11.7478L4.66679 11.8391C4.58425 11.9835 4.47083 12.1587 4.37352 12.3171L4.2836 12.4561C4.2836 12.4561 4.2836 12.4601 4.2836 12.4634C4.22722 12.5514 4.17354 12.6447 4.15072 12.6997C4.21783 12.593 4.27621 12.4997 4.3299 12.4097C4.33527 12.4017 4.34131 12.393 4.34735 12.3849C4.37218 12.3473 4.39366 12.3124 4.41446 12.2775L4.44399 12.2305C4.47821 12.1795 4.5064 12.1338 4.53392 12.0882C4.54331 12.0734 4.55271 12.0586 4.56277 12.0432C4.59834 11.9828 4.65538 11.8975 4.67887 11.8499C4.72451 11.7767 4.80705 11.6706 4.83658 11.6109L4.83121 11.6163L4.89564 11.5256C4.90033 11.5189 4.90369 11.5135 4.90705 11.5082C4.85336 11.631 4.79631 11.7566 4.7594 11.866L4.71713 11.9673C4.71713 11.9673 4.71645 11.9754 4.7131 11.9848C4.7131 11.9861 4.71243 11.9868 4.71176 11.9882C4.70102 12.0056 4.68961 12.0244 4.67686 12.0445L4.64532 12.1076C4.60774 12.1714 4.63525 12.1358 4.66008 12.105L4.67149 12.111L4.58223 12.2493C4.4554 12.4467 4.32856 12.6199 4.21246 12.8011C4.21045 12.8024 4.20709 12.8045 4.20373 12.8078C4.09099 12.9951 3.96482 13.1837 3.8655 13.369L3.85745 13.3925L3.75745 13.5758C3.77893 13.5684 3.90912 13.3509 3.9004 13.4019C3.80913 13.5791 3.70175 13.7752 3.60512 13.9752C3.6937 13.8208 3.7541 13.7154 3.8145 13.6107L3.84134 13.5832C3.83396 13.5973 3.82658 13.6114 3.81852 13.6255C3.71853 13.8148 3.6078 14.0047 3.50646 14.2014C3.40446 14.3981 3.30245 14.5955 3.20111 14.7908C3.18367 14.8231 3.16823 14.8553 3.1528 14.8882C3.12058 14.9466 3.08971 15.0003 3.06757 15.0298L3.03871 15.0728C3.04072 15.0674 3.04274 15.0614 3.04475 15.056C3.0528 15.0305 3.05817 15.009 3.0783 14.9614C3.134 14.8351 3.20044 14.7177 3.26688 14.6002C3.30111 14.5378 3.33601 14.4747 3.36889 14.4102C3.49438 14.1699 3.51183 14.1169 3.43264 14.2175C3.42593 14.2276 3.41922 14.2377 3.41251 14.2484C3.43533 14.1907 3.47023 14.1095 3.53331 14.0027C3.56149 13.9544 3.60713 13.8785 3.5729 13.9181C3.6125 13.8215 3.55277 13.9302 3.50848 14.0074L3.47895 14.0591L3.4266 14.1578C3.3662 14.2706 3.30782 14.3807 3.27695 14.4599L3.25212 14.5042C3.24406 14.4901 3.16689 14.6317 3.12461 14.6928L3.06757 14.7882L3.02394 14.9003L3.05683 14.8452C3.09173 14.7922 3.15078 14.6861 3.20044 14.6002V14.6015L3.2501 14.5089C3.26017 14.5008 3.26084 14.5089 3.25279 14.5337C3.24407 14.5512 3.23534 14.5686 3.22662 14.5854C3.19977 14.6472 3.15749 14.7271 3.11723 14.8056C3.07965 14.8848 3.04274 14.9627 3.02394 15.0177L2.95616 15.1681C2.94341 15.1768 2.92865 15.1903 2.88503 15.2688L2.8159 15.4091C2.80919 15.4246 2.80852 15.4279 2.80986 15.4266C2.80315 15.44 2.79778 15.4521 2.79376 15.4621L2.74947 15.5635C2.78302 15.5132 2.83134 15.4145 2.87429 15.3333C2.83268 15.4239 2.79309 15.5098 2.7696 15.5756C2.74275 15.638 2.74343 15.6568 2.7092 15.7313C2.59578 15.9717 2.48371 16.2073 2.41727 16.2905V16.2919L2.52196 16.018C2.51055 16.0093 2.47432 16.0952 2.4468 16.1684C2.41794 16.2462 2.39714 16.3087 2.37566 16.3791L2.23138 16.7967L2.15957 17.0061C2.1381 17.0343 2.12065 17.037 2.06427 17.2089L2.01126 17.3646C1.96428 17.5318 1.87234 17.7526 1.81127 17.946C1.77704 18.0393 1.74349 18.1319 1.70993 18.2246L1.6945 18.2702C1.68376 18.2843 1.67168 18.3058 1.64954 18.3595L1.59719 18.5119L1.58444 18.5763C1.58444 18.5884 1.59249 18.573 1.60256 18.5468C1.57437 18.6327 1.54619 18.7173 1.51867 18.8025C1.49116 18.8891 1.46901 18.9697 1.44754 19.0482L1.45492 19.0469ZM0.758989 31.617H0.746238L0.74758 31.7734C0.733487 31.6821 0.719394 31.5902 0.705301 31.4982C0.700604 31.4633 0.695906 31.4297 0.691208 31.3948C0.699261 31.3908 0.700603 31.3498 0.68651 31.2518C0.672417 31.1579 0.661009 31.1068 0.648929 31.0558L0.646916 31.0323C0.628796 30.837 0.60665 30.6342 0.591886 30.4476C0.587188 30.3892 0.581148 30.3181 0.587859 30.3181C0.59457 30.3181 0.604636 30.3966 0.614032 30.4516C0.638191 30.6027 0.658324 30.8027 0.685168 30.9229C0.685839 30.9256 0.68651 30.9256 0.687182 30.9276L0.712012 31.1438L0.744896 31.3586C0.744896 31.3586 0.744896 31.3599 0.744896 31.3613C0.745567 31.4123 0.754963 31.4881 0.769056 31.5774C0.77174 31.5955 0.775095 31.613 0.77778 31.6304C0.775095 31.6479 0.763016 31.6043 0.75966 31.617H0.758989ZM1.06031 33.3282C1.06233 33.3409 1.06367 33.353 1.06568 33.3678C1.10595 33.5886 1.14554 33.8102 1.22138 34.0706C1.2254 34.0807 1.22809 34.0854 1.23077 34.0901C1.24285 34.1357 1.25157 34.1586 1.25694 34.1619C1.27775 34.2566 1.28446 34.3344 1.31399 34.4392C1.31667 34.4526 1.31868 34.464 1.32137 34.4801C1.34083 34.5741 1.37103 34.6842 1.40056 34.7929L1.40928 34.8252C1.40324 34.8198 1.38445 34.7668 1.3764 34.7533C1.37103 34.7366 1.36566 34.7198 1.36096 34.705C1.36029 34.705 1.35895 34.7037 1.35761 34.7023C1.35761 34.7023 1.35761 34.701 1.35761 34.7003C1.31399 34.5385 1.26969 34.3727 1.22674 34.2143C1.2093 34.1552 1.16836 33.9485 1.17641 34.0512L1.17373 34.0418C1.14957 33.9619 1.1395 33.9458 1.13816 33.9679C1.10393 33.8068 1.07105 33.6517 1.04756 33.5195C1.0234 33.3879 1.00931 33.2792 1.01401 33.212C1.01401 33.2073 1.01266 33.202 1.01199 33.1973C1.03011 33.2537 1.03548 33.2288 1.06031 33.3282ZM6.37138 9.23515V9.23381L6.37407 9.23179L6.37205 9.23515H6.37138ZM5.71169 10.2992V10.3005L5.71102 10.3012V10.2992H5.71169ZM6.21032 9.78025C6.21703 9.77152 6.22441 9.76279 6.23112 9.75474C6.22307 9.77018 6.21569 9.78562 6.20898 9.80038C6.18951 9.83462 6.17072 9.86886 6.15193 9.90242C6.13113 9.92793 6.111 9.95277 6.09153 9.97761C6.11704 9.92995 6.14254 9.88228 6.16804 9.83395C6.18213 9.81582 6.19623 9.7977 6.21032 9.78025ZM10.5986 4.8972C10.6268 4.86699 10.6543 4.83745 10.6684 4.81865L10.6798 4.80926C10.7671 4.73273 10.8617 4.6656 10.9476 4.58974C10.9516 4.60384 10.8 4.73474 10.8255 4.72937C10.859 4.72199 11.0221 4.58236 11.1181 4.51321C11.1322 4.50314 11.1415 4.4971 11.1462 4.49643C11.1167 4.53335 11.008 4.62532 10.9677 4.6703C10.8154 4.76831 10.6114 4.9509 10.4718 5.04891C10.5725 4.95493 10.5973 4.92069 10.6047 4.89921C10.604 4.89787 10.6006 4.89921 10.5986 4.89921V4.8972ZM10.9731 4.56087L10.9671 4.5649H10.9677C10.9704 4.56155 10.9738 4.55819 10.9765 4.55483C10.9771 4.55483 10.9785 4.55483 10.9798 4.55483L10.9677 4.5649L10.9731 4.56154V4.56087ZM10.1933 5.99612C10.2443 5.95718 10.2946 5.91825 10.3456 5.87931C10.4101 5.83098 10.4778 5.786 10.5436 5.73968C10.547 5.73699 10.5496 5.73565 10.5523 5.73297H10.5577C10.4597 5.81084 10.3584 5.89072 10.2503 5.98068C10.1973 6.02498 10.1436 6.0666 10.0899 6.10688L10.1926 5.99612H10.1933ZM10.5852 5.62556H10.5859L10.5865 5.62422L10.5852 5.62556ZM7.8478 7.63141C7.87464 7.59851 7.90014 7.56495 7.92564 7.53138C7.93907 7.5146 7.95249 7.49782 7.96524 7.48171C7.98269 7.46627 7.9988 7.45217 8.01356 7.44009C8.01557 7.43874 8.01759 7.4374 8.01893 7.43606C8.02094 7.43606 8.02228 7.43606 8.02362 7.4374C8.0102 7.46828 8.01893 7.47298 7.92497 7.59516C7.82901 7.72136 7.79612 7.74553 7.75653 7.78581C7.78807 7.71935 7.72633 7.78111 7.6317 7.91537C7.54916 8.03419 7.46594 8.14294 7.38541 8.25236C7.40152 8.2282 7.41628 8.20537 7.43105 8.18322L7.69277 7.82743C7.74243 7.76433 7.79411 7.69854 7.84713 7.63141H7.8478ZM6.24857 9.793C6.24387 9.79703 6.23918 9.80106 6.23314 9.80576C6.22374 9.8165 6.21569 9.82656 6.20629 9.83731L6.24924 9.75675C6.26535 9.72721 6.28213 9.69835 6.29756 9.67082C6.3244 9.63659 6.35125 9.60369 6.37742 9.57013C6.3338 9.64397 6.29018 9.71781 6.24857 9.79233V9.793ZM3.44271 16.8786C3.48365 16.6222 3.52257 16.3966 3.56753 16.1462C3.57022 16.1771 3.54941 16.304 3.58096 16.2046C3.6125 16.1106 3.6286 16.0005 3.65142 15.9012C3.66551 15.834 3.67961 15.7703 3.6937 15.7045C3.74403 15.4621 3.79839 15.2225 3.85879 14.9801C3.86483 14.9694 3.8702 14.9587 3.87624 14.9479C3.88228 14.9352 3.88832 14.9217 3.89503 14.909C3.89906 14.917 3.92858 14.8694 3.95946 14.8177C3.96415 14.8096 3.96885 14.8016 3.97355 14.7935C3.84067 15.2668 3.72323 15.7407 3.61988 16.2187C3.59102 16.353 3.56217 16.4886 3.53465 16.6007C3.50915 16.7134 3.48365 16.8021 3.45882 16.8417C3.45211 16.8678 3.44674 16.8947 3.44137 16.9222L3.436 16.9209C3.43868 16.9061 3.4407 16.8913 3.44271 16.8786ZM3.19642 20.6802C3.18971 20.7688 3.18098 20.8238 3.17226 20.8775C3.17024 20.8883 3.16823 20.9004 3.16689 20.9118C3.15951 20.9118 3.15212 20.9017 3.15414 20.795L3.17293 20.4593L3.18165 20.3157C3.18165 20.3157 3.18299 20.3157 3.18367 20.3123C3.19507 20.2828 3.21454 20.166 3.21387 20.2875C3.21521 20.3989 3.20715 20.5392 3.19642 20.6795V20.6802ZM3.60512 17.7634L3.60646 17.7553C3.60646 17.7553 3.60713 17.7567 3.6078 17.7573C3.60713 17.7593 3.60579 17.7614 3.60512 17.7634ZM3.6937 17.2277C3.68967 17.2505 3.689 17.2646 3.68833 17.2794L3.67759 17.3398C3.65411 17.4479 3.63464 17.5633 3.61585 17.6795C3.61585 17.6828 3.61585 17.6848 3.61518 17.6882L3.61384 17.6962L3.59438 17.8036C3.57089 17.9117 3.55613 18.0285 3.53733 18.142C3.51854 18.2675 3.49707 18.393 3.47962 18.5186C3.45412 18.7065 3.43466 18.8871 3.41318 19.0711C3.4011 19.2161 3.38432 19.3658 3.36822 19.5141C3.35949 19.6014 3.34809 19.6887 3.34272 19.7759C3.33802 19.8444 3.33466 19.9082 3.33265 19.9693V19.978C3.32124 20.0136 3.3152 20.1196 3.30715 20.1988C3.30715 20.1915 3.30581 20.1868 3.30446 20.1841C3.2991 20.227 3.29507 20.2828 3.28836 20.3063C3.28567 20.3506 3.28366 20.3949 3.28634 20.4177L3.27762 20.5754C3.2689 20.7285 3.25279 20.8856 3.25682 21.0292L3.2548 21.1273L3.2501 21.2447L3.26017 21.189C3.2689 21.1581 3.26957 21.0192 3.27762 20.9809C3.27762 21.0058 3.27695 21.0299 3.27628 21.0541C3.27426 21.1984 3.26822 21.3414 3.2595 21.4837C3.25078 21.671 3.24809 21.859 3.24071 22.0443C3.24071 22.0577 3.24004 22.0704 3.23937 22.0832H3.22125C3.22125 22.0738 3.22125 22.0657 3.22058 22.0563C3.20581 21.8724 3.21588 21.6348 3.22326 21.4206C3.22662 20.9769 3.24205 20.5244 3.27091 20.0767C3.27561 20.0069 3.27963 19.937 3.28433 19.8679C3.29104 19.7685 3.30111 19.6665 3.31117 19.5678C3.32728 19.4208 3.34137 19.2731 3.35413 19.1254C3.3662 19.0033 3.38164 18.8818 3.39573 18.7596C3.39842 18.7482 3.4011 18.7368 3.40379 18.7206C3.41721 18.6394 3.42593 18.5589 3.43533 18.4783C3.47224 18.2333 3.49908 17.9963 3.53868 17.7553C3.58163 17.5029 3.61451 17.2418 3.68296 16.9941C3.68565 16.9806 3.689 16.9685 3.69169 16.9565L3.70779 16.9169C3.71316 16.931 3.7239 16.9128 3.74672 16.8007C3.77759 16.6396 3.82255 16.4751 3.85007 16.3201C3.87288 16.2113 3.90577 16.0871 3.92254 15.9884L3.96147 15.8314L4.00777 15.6139C4.0212 15.5528 4.04737 15.4507 4.03865 15.4595C4.02724 15.4702 4.00509 15.5729 3.98831 15.636C3.97556 15.685 3.95946 15.7448 3.95677 15.7763C3.9306 15.883 3.90107 15.9898 3.87691 16.0972C3.85141 16.1932 3.84403 16.2724 3.81651 16.3711C3.79839 16.4268 3.79705 16.4067 3.79638 16.3859L3.80913 16.3275C3.8306 16.2355 3.85208 16.1408 3.87288 16.0489C3.89503 15.9569 3.91718 15.8676 3.93328 15.7824C3.93865 15.7542 3.94066 15.7374 3.94134 15.724L3.95409 15.6635L3.99033 15.4883C4.00375 15.4292 4.00845 15.3997 4.00845 15.3829L4.01583 15.3413C4.04468 15.2245 4.10106 15.0627 4.11448 14.9707V14.9687C4.13663 14.9076 4.15542 14.8479 4.17958 14.7727C4.18964 14.7539 4.20508 14.7042 4.21514 14.6667C4.22991 14.6143 4.22118 14.6264 4.2091 14.6539C4.20642 14.6599 4.20508 14.6626 4.20306 14.666C4.20642 14.6465 4.20977 14.625 4.22118 14.5861C4.25809 14.4532 4.29903 14.3276 4.34399 14.1994C4.38627 14.0819 4.42922 13.9631 4.47217 13.8436C4.48291 13.8128 4.49365 13.7825 4.50439 13.7517C4.53392 13.7033 4.56344 13.6543 4.59297 13.606C4.54331 13.7443 4.50103 13.8806 4.45741 14.0128C4.41043 14.1558 4.36748 14.2968 4.3299 14.4364C4.29165 14.576 4.2534 14.7136 4.21514 14.8513C4.18092 14.9895 4.14736 15.1272 4.11314 15.2655C4.0816 15.3937 4.06348 15.489 4.11985 15.3326C4.12857 15.3064 4.13931 15.2742 4.14871 15.2467L4.15407 15.248C4.15072 15.2587 4.14803 15.2695 4.14602 15.2775C4.10307 15.4205 4.06683 15.5669 4.02858 15.7112C3.89503 16.2127 3.78296 16.7235 3.69236 17.227L3.6937 17.2277ZM40.1518 27.1045C40.1196 27.1884 40.0873 27.2737 40.0558 27.3563C40.0162 27.4576 39.978 27.5597 39.9337 27.6577C40.0102 27.469 40.08 27.2771 40.1538 27.0864C40.1565 27.0844 40.1618 27.0777 40.1685 27.0649C40.1632 27.0777 40.1578 27.0904 40.1518 27.1045ZM40.492 16.3382C40.492 16.3382 40.492 16.3422 40.492 16.3456L40.4907 16.3375C40.4907 16.3375 40.492 16.3389 40.4927 16.3375L40.492 16.3382ZM30.7947 3.17464L30.8047 3.17933C30.8047 3.17933 30.8047 3.18001 30.8047 3.18068C30.8014 3.17866 30.798 3.17665 30.7953 3.17531L30.7947 3.17464ZM26.5869 2.80408C26.6922 2.82623 26.7962 2.85107 26.9016 2.87456L27.2419 2.95311C27.2982 2.96653 27.3553 2.97794 27.4116 2.99338L27.5801 3.0397L27.9968 3.15517L28.1619 3.19947C28.2384 3.22431 28.3149 3.24915 28.3914 3.27399C28.4982 3.30822 28.6035 3.34045 28.7082 3.372L28.7673 3.39079H28.7653L28.9183 3.4398L29.0693 3.4935C29.0753 3.49552 29.0813 3.49753 29.0874 3.49887C29.0901 3.49955 29.0907 3.49887 29.0894 3.49887C29.1994 3.53848 29.2981 3.58077 29.4102 3.61971L29.6625 3.71101L29.9108 3.81237L30.4074 4.01578L30.8953 4.23865L31.1396 4.35009L31.3785 4.47159L31.857 4.7146L32.3248 4.97708C32.4026 5.02139 32.4811 5.06368 32.5583 5.10866L32.7865 5.24963C32.9381 5.34428 33.0911 5.43558 33.2415 5.53225C33.3448 5.60206 33.4482 5.67322 33.5522 5.73968C33.5884 5.76318 33.6206 5.78264 33.6488 5.79808L33.6515 5.8001C33.7414 5.86253 33.8341 5.92026 33.9213 5.98605L34.1844 6.1814C34.1944 6.18945 34.2045 6.19751 34.2152 6.20623C34.2897 6.26195 34.3649 6.31834 34.4401 6.37473C34.9749 6.79698 35.4997 7.23467 35.9809 7.71532L36.2077 7.93618C36.2836 8.00935 36.3527 8.08991 36.4252 8.16576L36.6413 8.39669C36.7131 8.47389 36.7876 8.54908 36.8547 8.62963L37.0694 8.88339C37.0976 8.91695 37.1271 8.95119 37.1446 8.96529C37.2828 9.12506 37.405 9.29758 37.5372 9.46608C37.5613 9.50098 37.5855 9.53589 37.611 9.57281C37.666 9.65001 37.7291 9.72453 37.7835 9.80508C38.7626 11.1698 39.5203 12.6783 40.0001 14.2907C40.0384 14.4169 40.0793 14.5425 40.1108 14.6707C40.1632 14.8667 40.2149 15.0641 40.2632 15.2581C40.2699 15.2775 40.2746 15.293 40.2806 15.3104C40.335 15.5293 40.3746 15.7515 40.4209 15.9723C40.4249 15.9999 40.4296 16.0287 40.4343 16.0589C40.445 16.1234 40.4565 16.1865 40.4685 16.2435L40.4846 16.3382C40.496 16.4094 40.5088 16.4805 40.5175 16.5523L40.5719 16.9202C40.592 17.0793 40.6088 17.2391 40.6276 17.3982C40.6457 17.5788 40.6558 17.7627 40.6793 17.9372L40.6886 18.097C40.69 18.1561 40.694 18.2145 40.6987 18.2729C40.6987 18.2991 40.7007 18.3299 40.7041 18.3622C40.7135 18.5226 40.7162 18.6837 40.7222 18.8448C40.7276 19.0059 40.7256 19.1671 40.7276 19.3282C40.7256 19.937 40.694 20.5466 40.6356 21.1534C40.6189 21.3501 40.5947 21.5462 40.5705 21.7422C40.5531 21.9026 40.5269 22.0617 40.5041 22.2222C40.4779 22.4175 40.441 22.6115 40.4088 22.8062C40.3813 22.9686 40.3417 23.1324 40.3202 23.2895C40.3048 23.3775 40.2846 23.4641 40.2665 23.5513C40.2343 23.6916 40.2075 23.8326 40.1719 23.9716C40.1209 24.1817 40.0706 24.3918 40.0129 24.5999C39.9592 24.8093 39.8968 25.0161 39.8364 25.2235C39.7753 25.431 39.7075 25.6357 39.6417 25.8418C39.5706 26.0459 39.5048 26.2513 39.4283 26.4534C39.384 26.5715 39.3431 26.6903 39.2968 26.8078L39.1585 27.1596C39.1049 27.2938 39.0471 27.4261 38.9921 27.5597C38.9639 27.6275 38.9357 27.6946 38.9055 27.7611L38.8841 27.8094C38.8606 27.8611 38.8378 27.9121 38.817 27.9631C38.8062 27.9906 38.7948 28.0188 38.7827 28.047L38.7774 28.0591L38.7693 28.0786C38.7438 28.137 38.7143 28.1941 38.6881 28.2511C38.6291 28.3726 38.574 28.4941 38.5177 28.6143L38.4532 28.7425L38.3586 28.9352C38.1049 29.4339 37.8378 29.926 37.5472 30.404C37.4472 30.5752 37.3392 30.7416 37.2332 30.9095L37.1486 31.0444L37.0325 31.2176C36.9681 31.3143 36.905 31.4116 36.8392 31.5069L36.7916 31.5767L36.7003 31.7076C36.7003 31.7076 36.6976 31.709 36.6896 31.7197C36.6292 31.809 36.5574 31.9017 36.507 31.9869C36.456 32.0587 36.403 32.1306 36.3507 32.2011L36.1715 32.4407C36.1111 32.5199 36.0487 32.5971 35.9869 32.6757L35.8017 32.9099L35.6111 33.1402L35.4742 33.308C35.3977 33.3879 35.3091 33.4953 35.2266 33.5893L35.2179 33.5947L35.0789 33.7531C35.0528 33.786 35.0159 33.8243 35.0071 33.8417C34.8259 34.033 34.6488 34.2371 34.4615 34.4271C34.3991 34.4815 34.3334 34.5566 34.2683 34.6251L33.9636 34.9299C33.8757 35.0199 33.7831 35.1051 33.6925 35.1924C33.6005 35.2783 33.5113 35.3669 33.418 35.4515C33.2307 35.6193 33.0469 35.7912 32.8543 35.9523C32.7583 36.0335 32.665 36.1168 32.5677 36.196C32.4804 36.2665 32.3878 36.3376 32.3133 36.4074C32.1523 36.5464 31.9644 36.6739 31.8114 36.8082C31.7691 36.8411 31.7261 36.874 31.6818 36.9055C31.1463 37.309 30.6027 37.6836 30.0383 38.0333C29.9611 38.079 29.8853 38.1273 29.8068 38.1703C29.333 38.4334 28.8518 38.6932 28.3633 38.9356L28.317 38.9611C28.2525 38.9846 28.17 39.0228 28.0895 39.0597C27.9888 39.1067 27.8834 39.1564 27.7969 39.1994C27.6425 39.2645 27.4975 39.3229 27.3573 39.3779C27.215 39.4269 27.0781 39.4746 26.9405 39.5223C26.8016 39.5612 26.6285 39.6163 26.4359 39.6955C26.2963 39.7451 26.1607 39.7888 26.0312 39.8364C26.0111 39.8418 25.9903 39.8479 25.9674 39.8559C25.8768 39.8881 25.8258 39.9116 25.7836 39.9331C25.5185 40.0184 25.2527 40.1097 24.9595 40.1768C24.8816 40.1895 24.7856 40.2184 24.6991 40.2392L24.683 40.2446C24.6736 40.2466 24.6642 40.2486 24.6548 40.25C24.581 40.2667 24.5085 40.2829 24.4347 40.299C24.2897 40.3359 24.1394 40.3668 23.9904 40.3936C23.8005 40.4272 23.6119 40.4681 23.4206 40.4936L23.0394 40.552L22.6562 40.5977L22.4643 40.6205L22.2717 40.6373L21.8872 40.6702C21.7483 40.6776 21.6087 40.6856 21.4711 40.691C21.4 40.6964 21.3281 40.6997 21.257 40.7011L21.2543 40.6991C21.1476 40.7031 21.0302 40.6991 20.9329 40.7098C20.3906 40.7179 19.8551 40.7011 19.3289 40.6474C19.288 40.6393 19.2444 40.6319 19.1692 40.6313C19.133 40.6299 19.1196 40.6272 19.1142 40.6239C19.0357 40.6118 18.9545 40.5977 18.8525 40.5923C18.7297 40.5883 18.5887 40.5823 18.4431 40.5628C18.2975 40.544 18.1458 40.5245 18.0002 40.5057C17.8727 40.4856 17.7418 40.4581 17.623 40.4467C17.1982 40.3755 16.7781 40.2822 16.3681 40.1942L16.313 40.1815H16.3191C16.2137 40.1479 16.1097 40.117 16.0077 40.0989C15.8929 40.0768 15.7654 40.0385 15.646 40.0002C15.4245 39.9264 15.2003 39.8593 14.9782 39.7868C14.8963 39.7586 14.8158 39.731 14.7359 39.7035C14.6568 39.6753 14.5809 39.6431 14.5058 39.6136C14.3568 39.5518 14.2125 39.4968 14.0843 39.4296C14.032 39.4021 13.9836 39.3746 13.893 39.3444C13.8112 39.3148 13.7293 39.2866 13.6468 39.2551C13.5649 39.2215 13.4823 39.188 13.3978 39.1531C13.3132 39.1175 13.226 39.0812 13.1374 39.0409C13.0495 38.9987 12.9589 38.9537 12.8643 38.906C12.6844 38.8194 12.5099 38.7221 12.3348 38.6261C12.1663 38.5334 12.0052 38.4294 11.8415 38.3287C11.7751 38.281 11.6885 38.2347 11.61 38.183L11.4335 38.0676C11.4086 38.0501 11.3852 38.034 11.363 38.0219L11.3503 38.0132C11.304 37.9816 11.257 37.9534 11.212 37.9246C11.0697 37.8279 10.9315 37.7306 10.7939 37.6332C10.6597 37.5319 10.5288 37.4278 10.3966 37.3258C10.3403 37.2848 10.2879 37.2398 10.2336 37.1955C10.2101 37.1747 10.1879 37.1559 10.1671 37.1391C9.91478 36.9317 9.67453 36.7115 9.4383 36.488L9.39938 36.4504C9.32555 36.3698 9.22019 36.2718 9.13899 36.1879C9.10074 36.151 9.06718 36.11 9.03094 36.0718C8.9947 36.0214 8.92491 35.9462 8.85579 35.8717C8.83767 35.8529 8.81888 35.8335 8.80009 35.814C8.74036 35.7549 8.68533 35.6851 8.62963 35.6207C8.57393 35.5555 8.51822 35.4951 8.46387 35.4461C8.4236 35.422 8.5397 35.5643 8.53769 35.5804C8.47393 35.518 8.38669 35.4119 8.32562 35.3548C8.24979 35.2736 8.1706 35.193 8.0961 35.1058C8.02362 35.0165 7.95048 34.9245 7.87598 34.8299C7.80283 34.7272 7.72633 34.6271 7.64244 34.5311C7.58942 34.464 7.54178 34.3922 7.49413 34.321C7.41293 34.1834 7.37199 34.1418 7.33575 34.1102C7.26327 34.0122 7.19012 33.9135 7.11563 33.8122C7.07738 33.7618 7.04315 33.7088 7.00892 33.6538C6.9747 33.5987 6.94047 33.5437 6.90558 33.4873C6.81296 33.3215 6.717 33.1771 6.62036 33.0348C6.57405 32.959 6.53312 32.8797 6.48949 32.8025L6.313 32.4796L6.28481 32.4159C6.34454 32.5065 6.27609 32.3749 6.27676 32.3642L6.24656 32.3179C6.17878 32.1984 6.22038 32.3192 6.15193 32.1883L6.01302 31.9037L5.79088 31.4445L5.59157 30.9739L5.57278 30.9189L5.57747 30.9048C5.58486 30.9088 5.59828 30.9323 5.61438 30.9605C5.65868 31.0363 5.70767 31.1364 5.75867 31.2465C5.78417 31.3022 5.81034 31.3592 5.83652 31.4176C5.86537 31.4747 5.8949 31.5324 5.92376 31.5888L5.99221 31.7305L6.02107 31.7889L6.04724 31.8459C6.06066 31.8761 6.07409 31.905 6.08482 31.9319C6.12442 32.0138 6.16401 32.0983 6.20159 32.1614L6.21434 32.1937C6.22777 32.2125 6.21971 32.1923 6.20227 32.1547L6.20428 32.1588L6.21502 32.1574C6.19019 32.0876 6.22911 32.1494 6.23649 32.1473C6.26132 32.2011 6.29421 32.2581 6.31434 32.2823L6.34454 32.3279C6.35662 32.3481 6.3593 32.3501 6.35326 32.336V32.3192C6.33246 32.2588 6.27474 32.1695 6.23985 32.0889C6.213 32.0225 6.17743 31.9587 6.14589 31.8936C6.13113 31.8573 6.11771 31.8325 6.10496 31.811C6.1063 31.8077 6.1063 31.8016 6.10496 31.7929L6.111 31.7882L6.09288 31.7506C6.09489 31.7258 6.1224 31.752 6.10428 31.6868C6.111 31.6902 6.10227 31.6694 6.08214 31.6278C6.01033 31.4814 6.03449 31.5593 6.01436 31.5331C5.99557 31.5036 5.98215 31.4861 5.97611 31.4861C5.96268 31.4821 5.96201 31.5056 5.9345 31.4734C5.92309 31.4633 5.90564 31.4364 5.88484 31.3995C5.86537 31.3619 5.84323 31.3136 5.81907 31.2619C5.76806 31.1518 5.70968 31.0216 5.68485 31.0001C5.67747 30.9907 5.67814 31.0048 5.65398 30.9511C5.61304 30.8685 5.56405 30.7705 5.52379 30.6886C5.48486 30.6154 5.46808 30.5792 5.4654 30.5846C5.46204 30.5899 5.47479 30.6362 5.50567 30.7235L5.52446 30.7799L5.50969 30.7692C5.47949 30.7041 5.44594 30.6409 5.41976 30.5738C5.40165 30.5201 5.38285 30.4671 5.36071 30.4154C5.36071 30.4154 5.36071 30.4154 5.36004 30.4154C5.35266 30.3879 5.34058 30.3556 5.32581 30.3201C5.32447 30.3181 5.32313 30.3154 5.32246 30.3127C5.31977 30.3026 5.31574 30.2899 5.30836 30.2724C5.24729 30.114 5.25065 30.0764 5.21307 29.9623C5.203 29.93 5.19092 29.8958 5.17616 29.8596C5.12247 29.7374 5.07885 29.6145 5.02583 29.4608C4.9916 29.3661 4.95805 29.2769 4.92449 29.1916C4.91644 29.1721 4.90839 29.1507 4.90101 29.1285C4.89497 29.101 4.89698 29.0896 4.8849 29.0486C4.86342 28.9848 4.84665 28.9385 4.84195 28.9439C4.83859 28.9338 4.83457 28.9231 4.83121 28.9123L4.82786 28.9009C4.7943 28.7875 4.76343 28.672 4.73189 28.5572C4.69699 28.431 4.6621 28.3048 4.62787 28.1786C4.61579 28.1356 4.60371 28.092 4.59431 28.0477C4.57015 27.9443 4.54667 27.8396 4.52049 27.7382L4.51714 27.7248C4.52653 27.7436 4.52855 27.7322 4.52385 27.6892C4.50976 27.6288 4.49432 27.5644 4.49164 27.5268L4.5111 27.5731L4.46479 27.3697C4.4413 27.2515 4.41647 27.1227 4.39164 26.9991C4.39164 26.9991 4.3903 26.9991 4.38963 26.9985C4.38023 26.9421 4.37017 26.887 4.35742 26.8387L4.33393 26.7192C4.32587 26.6682 4.31648 26.6125 4.30843 26.5608C4.30104 26.5198 4.29366 26.4782 4.28628 26.4359C4.26346 26.3238 4.25004 26.2104 4.23192 26.0976C4.2138 25.9774 4.19568 25.8566 4.17756 25.7364C4.16078 25.6149 4.14334 25.4927 4.15877 25.4947C4.16817 25.5538 4.17823 25.6095 4.18897 25.6565C4.1977 25.7183 4.20508 25.7854 4.2185 25.8257L4.25004 26.0298C4.26682 26.1392 4.28158 26.2486 4.2997 26.3574C4.30641 26.4185 4.31984 26.4936 4.33393 26.5688L4.36614 26.6823C4.37017 26.6924 4.37151 26.6897 4.37084 26.6783C4.37755 26.6991 4.3809 26.6991 4.37822 26.6709L4.36815 26.6178C4.36547 26.5802 4.35473 26.5171 4.35003 26.4742L4.34601 26.4507C4.34802 26.4554 4.35003 26.4561 4.35071 26.4534C4.35272 26.4352 4.34601 26.3896 4.3393 26.3419C4.33326 26.3084 4.32923 26.2741 4.32453 26.2406C4.32051 26.1929 4.3138 26.1412 4.30373 26.0862C4.2789 25.9579 4.26749 25.964 4.25205 25.9257L4.23863 25.8727L4.21783 25.7666C4.19434 25.6545 4.17555 25.4961 4.15407 25.3873C4.14199 25.3007 4.13663 25.1933 4.11985 25.1202L4.07086 24.6979C4.05744 24.5898 4.04871 24.4818 4.04133 24.373C4.03328 24.2602 4.02724 24.1448 4.01314 24.0414C4.00509 23.9481 3.99637 23.8507 3.98831 23.7554C3.96952 23.5352 3.96281 23.313 3.95006 23.0908L3.93328 22.7572L3.92657 22.4229C3.93194 22.2933 3.92926 22.1637 3.9259 22.0342C3.93261 21.6193 3.94805 21.2045 3.97489 20.7909C3.99435 20.6419 4.00039 20.4667 4.01516 20.2982C4.02321 20.1928 4.03395 20.1022 4.0467 20.0317C4.06415 19.9431 4.07488 19.8424 4.0816 19.7108C4.08428 19.6591 4.09837 19.5792 4.09435 19.5463L4.09837 19.4967C4.09837 19.4839 4.09837 19.4752 4.09837 19.4678C4.1024 19.4322 4.10173 19.4121 4.1024 19.3859C4.11381 19.008 4.17958 18.5427 4.2487 18.093C4.2695 17.95 4.29903 17.8083 4.32319 17.6654C4.34936 17.5224 4.37352 17.3801 4.40439 17.2384L4.49164 16.8135L4.61378 16.2852C4.65538 16.1093 4.70303 15.9347 4.74732 15.7595C4.77954 15.6266 4.8198 15.4957 4.85671 15.3635C4.89497 15.2319 4.92919 15.0996 4.97147 14.9694C5.04261 14.7452 5.1077 14.519 5.18555 14.2974C5.24998 14.1095 5.31105 13.9202 5.38218 13.7349C5.42312 13.6248 5.46473 13.5127 5.50634 13.4019C5.54862 13.2912 5.59358 13.1824 5.63116 13.073L5.66673 12.983C5.74927 12.7951 5.8392 12.5715 5.92779 12.3836C5.97678 12.2674 6.03315 12.1533 6.08147 12.0385C6.06201 12.058 6.03516 12.1097 6.00295 12.1781C5.97275 12.2419 5.94456 12.307 5.91705 12.3715C5.88081 12.4373 5.84524 12.5339 5.809 12.6118C5.78618 12.6319 5.71773 12.7689 5.68216 12.8273C5.70028 12.779 5.71773 12.7387 5.72176 12.7179C5.75263 12.6608 5.7835 12.6024 5.82041 12.5057C5.82175 12.5004 5.82242 12.4977 5.82377 12.4936C5.82779 12.4842 5.83182 12.4755 5.83585 12.4661C5.8694 12.3856 5.91034 12.3144 5.94054 12.2292C5.95195 12.205 5.96134 12.1835 5.96939 12.1634C6.04456 12.0016 6.0969 11.8727 6.13717 11.7572C6.15529 11.7049 6.16401 11.6653 6.21971 11.5619C6.24052 11.5256 6.26266 11.4854 6.28682 11.4384C6.29018 11.4323 6.29286 11.4263 6.29622 11.4202L6.3083 11.4249L6.32306 11.4276L6.34789 11.3773C6.38346 11.3101 6.40494 11.2913 6.4499 11.1913C6.53983 11.0262 6.62975 10.8691 6.71566 10.7214C6.72572 10.706 6.73445 10.6899 6.74116 10.6731C6.74921 10.657 6.75861 10.6415 6.76733 10.6261C6.80558 10.5563 6.82572 10.514 6.77605 10.5925C6.72639 10.6684 6.6774 10.7657 6.62707 10.8537C6.64049 10.8174 6.64452 10.7973 6.63579 10.8C6.6727 10.7308 6.70693 10.6603 6.74585 10.5918C6.75055 10.5845 6.75391 10.5798 6.75995 10.5704C6.78277 10.5321 6.79954 10.5012 6.81364 10.4717C6.91296 10.3488 7.01899 10.2307 7.121 10.1099C7.22837 9.98701 7.33105 9.86013 7.44178 9.74064C7.5042 9.67552 7.56527 9.60906 7.62499 9.54126L7.62097 9.54328C7.91088 9.21769 8.22563 8.91225 8.52292 8.59808C8.535 8.586 8.54641 8.57459 8.55715 8.56385L8.635 8.48933L8.87122 8.26579C8.96451 8.1812 9.05779 8.09662 9.14704 8.00734C9.18462 7.97042 9.2155 7.93886 9.2665 7.89254C9.41414 7.76164 9.55641 7.62604 9.70607 7.49782C9.85707 7.37094 10.0074 7.24407 10.1591 7.11719C10.2812 7.01113 10.4121 6.9158 10.5389 6.8151L10.7751 6.6305L10.8932 6.53853L11.0147 6.45059L11.4992 6.09883C11.6167 6.01626 11.7368 5.93839 11.8556 5.85783C11.9751 5.77794 12.0938 5.69605 12.214 5.61817L12.4871 5.44834L12.6247 5.36442C12.6985 5.32616 12.781 5.27178 12.8609 5.22143L13.1864 5.03481L13.5595 4.82134L13.9877 4.59712L14.244 4.46286L14.5051 4.338C14.6796 4.2561 14.852 4.16951 15.0285 4.09163L15.5594 3.86339L15.6923 3.80633L15.8272 3.75464L16.0969 3.65126C16.2768 3.58212 16.456 3.51096 16.6392 3.45255L17.1861 3.26728C17.5559 3.16121 17.9223 3.04172 18.2975 2.95512L18.688 2.85711L19.08 2.77588L19.4202 2.70607C19.5336 2.6819 19.6484 2.66847 19.7625 2.64901C20.0262 2.60806 20.2893 2.56174 20.5557 2.53757L21.0335 2.48454C21.1402 2.47514 21.2483 2.46977 21.355 2.46238C21.361 2.46238 21.3677 2.46104 21.3738 2.4597C21.3771 2.4597 21.3771 2.45903 21.3751 2.45836C21.4268 2.455 21.4778 2.45164 21.5281 2.44694H21.5369C21.563 2.44627 21.5926 2.44359 21.6241 2.44023C21.7308 2.43352 21.8375 2.42211 21.9449 2.42144C22.3019 2.41472 22.6596 2.39861 23.0173 2.41271L23.4455 2.42144L23.8736 2.44829L24.2481 2.47178L24.6212 2.51072C24.8172 2.53287 25.0138 2.54697 25.2078 2.57919L25.4769 2.6188C25.4769 2.6188 25.4782 2.61746 25.4796 2.61678L25.5252 2.6235C25.6735 2.64498 25.8225 2.6631 25.9688 2.69398C25.9708 2.69398 25.9701 2.69398 25.9721 2.69533C26.0735 2.71882 26.1715 2.73359 26.2708 2.7497L26.5875 2.8081L26.5869 2.80408ZM13.7333 3.37334C13.8125 3.33105 13.891 3.28943 13.9696 3.24781C14.0481 3.20619 14.1266 3.16457 14.2078 3.1263C14.4091 3.03031 14.6058 2.92625 14.8111 2.83764C14.9124 2.79132 15.0145 2.745 15.1165 2.69868C15.2178 2.65102 15.3232 2.61007 15.4265 2.56509L15.5755 2.50266C15.6252 2.48521 15.6701 2.46641 15.7104 2.4456C15.7272 2.43956 15.7453 2.43285 15.7654 2.42546C15.7728 2.42211 15.7802 2.41875 15.7876 2.41606C15.8446 2.40264 15.9339 2.37042 16.0238 2.33685L16.1453 2.29053L16.1533 2.28717C16.1728 2.28113 16.1996 2.27039 16.2305 2.25764L16.2808 2.23817L16.3801 2.20259H16.3781C16.5117 2.1603 16.5191 2.13949 16.6412 2.09854C16.7204 2.07437 16.6546 2.10794 16.7385 2.08109C16.8224 2.04886 16.8412 2.03611 16.8365 2.02939C16.8479 2.02537 16.8593 2.02268 16.8714 2.01865C17.0794 1.9522 17.2995 1.89513 17.5042 1.82733L17.6096 1.80384C17.6975 1.78571 17.7834 1.76423 17.8659 1.73536L17.8747 1.73201L17.8599 1.73872C17.9116 1.73469 17.9975 1.70851 18.082 1.68972L18.1324 1.67965C18.2317 1.66555 18.3713 1.63333 18.4793 1.6152C18.5713 1.60245 18.6672 1.59506 18.7786 1.57895C18.89 1.56351 19.0169 1.54002 19.1746 1.50645C19.2457 1.49437 19.2987 1.48228 19.3491 1.4702L19.4511 1.45409C19.5685 1.44536 19.698 1.41448 19.8235 1.4024C19.8235 1.4024 19.8256 1.40106 19.8262 1.40106C19.8873 1.39501 19.9464 1.3883 19.9947 1.37756C20 1.37622 20.0021 1.37488 20.0041 1.37353C20.0685 1.37018 20.1336 1.36145 20.1987 1.34937L20.2517 1.34265C20.3376 1.32856 20.4242 1.32251 20.5101 1.31177L20.6174 1.30237L20.6772 1.29835C20.702 1.29365 20.7302 1.29029 20.7604 1.28694C20.8235 1.28358 20.8886 1.27619 20.949 1.27687C21.1691 1.27955 21.3362 1.24934 21.5369 1.2433C21.5885 1.24263 21.6389 1.24129 21.6852 1.2386C21.6966 1.23726 21.7033 1.23659 21.712 1.23592L21.7979 1.23994C21.857 1.24599 21.9402 1.24196 22.0133 1.24263C22.067 1.23994 22.1294 1.24397 22.1825 1.24397C22.1925 1.24464 22.2026 1.24599 22.2133 1.24666C22.3214 1.25538 22.4435 1.2621 22.5596 1.26948C22.6052 1.2715 22.6482 1.27082 22.6838 1.2715C22.6992 1.27552 22.7234 1.27955 22.7596 1.28358C22.7871 1.28559 22.8146 1.28761 22.8428 1.29029C22.8542 1.29029 22.8643 1.29096 22.875 1.29163L22.9207 1.297C22.9488 1.29835 22.979 1.30036 23.0092 1.30237C23.0421 1.30506 23.0777 1.30775 23.1133 1.31043C23.2381 1.31714 23.3488 1.32856 23.4549 1.33527C23.5609 1.34198 23.6629 1.34802 23.7689 1.35474L23.8025 1.35675L23.8233 1.36145L23.8273 1.36749C23.8387 1.3742 23.8904 1.38092 23.9293 1.38763L23.9823 1.39501C24.0407 1.40173 24.0333 1.39636 24.0313 1.39233L24.0494 1.39434C24.0655 1.39434 24.0629 1.39099 24.0508 1.38696L24.0609 1.3883C24.1125 1.39837 24.1662 1.40508 24.2192 1.4118L24.2776 1.42052C24.3347 1.42925 24.3924 1.43664 24.4494 1.44805C24.5219 1.46349 24.595 1.47691 24.6682 1.489L24.8105 1.51451C24.8293 1.51988 24.8514 1.52458 24.8783 1.5286C24.9125 1.53532 24.948 1.54002 24.9816 1.54807C25.0454 1.56351 25.1078 1.57828 25.1675 1.58902C25.2601 1.60513 25.3648 1.62527 25.3695 1.6152C25.4017 1.62393 25.4393 1.63266 25.4749 1.64071C25.554 1.65951 25.6151 1.68569 25.697 1.70784C25.7245 1.71523 25.75 1.72261 25.7755 1.72932C25.805 1.73805 25.8352 1.74611 25.8641 1.75416L25.9715 1.77833C25.995 1.78504 26.0184 1.79108 26.0419 1.7978C25.997 1.78974 25.9527 1.78168 25.9077 1.77497C25.7607 1.75349 25.6138 1.73201 25.4668 1.70986L25.2762 1.68233L25.2635 1.68032C25.2406 1.66756 25.1608 1.64608 25.1192 1.63333C25.0225 1.61453 24.9588 1.60983 24.9279 1.61789C24.642 1.59708 24.7957 1.62124 24.8977 1.63937C24.7621 1.62796 24.6293 1.61722 24.489 1.60513C24.4877 1.60178 24.4803 1.59708 24.438 1.59036C24.3944 1.58164 24.3387 1.56955 24.2642 1.56553C24.1327 1.54941 23.981 1.53733 23.824 1.52726C23.7595 1.51585 23.6743 1.51451 23.5958 1.50981C23.5884 1.50981 23.5777 1.50981 23.5656 1.50981H23.5958C23.5428 1.50712 23.4897 1.50108 23.4367 1.50041C23.3844 1.49504 23.3213 1.49168 23.2723 1.49638C23.2374 1.49974 23.2461 1.50511 23.322 1.50779H23.3133C23.4092 1.51853 23.4683 1.52793 23.2737 1.52659C23.1314 1.52592 23.1374 1.53129 23.1703 1.538C23.0468 1.538 22.924 1.53666 22.8012 1.53666C22.6737 1.53397 22.5462 1.53867 22.4187 1.54203C22.2912 1.54471 22.1643 1.54673 22.0368 1.54673C21.8127 1.54136 21.5825 1.55948 21.3483 1.57425C21.1677 1.59171 20.9825 1.59708 20.8 1.62124L20.6617 1.63668L20.6248 1.64071C20.5664 1.64071 20.5128 1.63937 20.504 1.63131C20.543 1.6199 20.6208 1.60379 20.5054 1.61117C20.4222 1.61654 20.3926 1.6293 20.3376 1.6387C20.3094 1.6434 20.2926 1.64877 20.2712 1.65347C20.1544 1.6736 20.0148 1.7065 19.9678 1.72731L19.886 1.74006L19.8323 1.74879L19.7873 1.75215C19.7705 1.74745 19.7457 1.74409 19.639 1.76423C19.5739 1.77631 19.5457 1.78571 19.6189 1.77967L19.6209 1.78437H19.6175C19.3336 1.83337 19.0337 1.90252 18.739 1.96428C18.6652 1.97838 18.5927 1.99314 18.5203 2.00724C18.4485 2.02402 18.3773 2.04014 18.3055 2.05692C18.1626 2.09048 18.0183 2.12472 17.8706 2.16366L17.6908 2.2093L17.5129 2.26167L17.1573 2.36639C16.9069 2.43822 16.6633 2.53019 16.4177 2.61477C16.3016 2.65169 16.1895 2.68593 16.0855 2.72688C15.9815 2.7685 15.8829 2.81079 15.7889 2.85375C15.6171 2.92357 15.4426 2.98667 15.2735 3.06253L14.7017 3.30688C14.6715 3.31829 14.6427 3.33038 14.6178 3.34246L14.6098 3.34582C14.5051 3.39214 14.3937 3.45054 14.2903 3.49418L14.0984 3.58614C14.0118 3.62709 13.9246 3.6667 13.8387 3.70899C13.8139 3.7204 13.7897 3.73316 13.7655 3.74658C13.7689 3.73786 13.7756 3.72779 13.7421 3.7392L13.7259 3.74256L13.7018 3.75531L13.6783 3.76807C13.6353 3.78955 13.5984 3.80969 13.5803 3.82378C13.5327 3.85332 13.5427 3.85399 13.5414 3.86003C13.5072 3.87615 13.4729 3.89226 13.4394 3.90837C13.3085 3.97483 13.1736 4.04129 13.0448 4.11647C12.2388 4.55416 11.4798 5.05965 10.7402 5.59468C10.7194 5.60945 10.7 5.62422 10.6812 5.63831L10.6785 5.63294C10.6892 5.62422 10.7 5.61549 10.7114 5.60676C10.8362 5.50338 11.0241 5.36241 11.1496 5.26708L11.4019 5.09792C11.4992 5.0328 11.6012 4.96701 11.6865 4.9019L12.063 4.6656C12.2234 4.56759 12.3797 4.46354 12.5441 4.37358C12.8468 4.2118 13.1428 4.04599 13.4495 3.87279C13.5099 3.83721 13.585 3.79223 13.6743 3.74994C13.8447 3.64925 14.0293 3.56131 14.2246 3.46867C14.3252 3.42369 14.4085 3.38341 14.4212 3.36394C14.4058 3.37133 14.3903 3.37804 14.3749 3.38475C14.2226 3.4492 14.0662 3.52774 13.9105 3.60225C13.7595 3.67408 13.6125 3.75464 13.4629 3.83117L13.4172 3.85668L13.4045 3.86272L13.3951 3.86809L13.3132 3.90971C13.0965 4.01913 12.8884 4.14534 12.677 4.2655L12.42 4.41252C12.3348 4.46286 12.2515 4.5159 12.1677 4.56759L11.665 4.88108C11.4576 5.01535 11.2664 5.1543 11.0657 5.28991C11.063 5.29192 11.0603 5.29326 11.0577 5.29528C11.0899 5.26641 11.1228 5.23755 11.155 5.21069C11.1677 5.19995 11.1798 5.18988 11.1925 5.18116L11.3147 5.08113L11.3046 5.07241L11.263 5.09993L11.2194 5.13551L11.2026 5.14826L11.1865 5.16169C11.0979 5.23687 11.0067 5.3134 10.9221 5.38993C10.8785 5.42148 10.8349 5.45303 10.7912 5.48391C10.7355 5.51815 10.6711 5.5638 10.6067 5.61012C10.6268 5.59132 10.6469 5.57253 10.6664 5.55373C10.6926 5.52956 10.7201 5.50741 10.7469 5.48458L10.8322 5.41745L10.9107 5.34898C10.9469 5.3181 10.9832 5.28722 11.0207 5.255C11.0657 5.21606 11.1107 5.17646 11.1556 5.13752L11.2013 5.09859C11.2147 5.08852 11.2281 5.07778 11.2402 5.06838L11.408 4.93345L11.4496 4.89787L11.5254 4.83141C11.563 4.79583 11.5724 4.78173 11.5637 4.78106C11.5617 4.78106 11.5563 4.78509 11.5529 4.78643C11.5617 4.77569 11.5623 4.77032 11.5778 4.75555L11.5932 4.74481C11.6603 4.69916 11.7194 4.6609 11.7791 4.62196L11.7824 4.61928L11.7811 4.6421C11.7871 4.63942 11.7912 4.63807 11.7939 4.63807L11.8267 4.61391C11.8388 4.60787 11.8556 4.59712 11.8838 4.57699L11.9261 4.54745C11.9992 4.49911 12.071 4.44474 12.1529 4.39103H12.1542C12.1797 4.37694 12.2066 4.35814 12.2341 4.33666L12.3247 4.27356C12.3361 4.2655 12.3475 4.25677 12.3603 4.24805C12.3938 4.22254 12.4267 4.19703 12.4099 4.20307C12.3958 4.20844 12.369 4.22321 12.3307 4.2514C12.3173 4.25677 12.2978 4.26751 12.271 4.2843L12.2509 4.29772C12.2361 4.30377 12.2287 4.30444 12.2381 4.2937L12.2415 4.29101C12.2623 4.27557 12.2831 4.2608 12.3025 4.2467C12.3059 4.24402 12.3079 4.24268 12.3113 4.23999C12.371 4.2118 12.4482 4.15474 12.5287 4.09298L12.5334 4.08962C12.5824 4.05673 12.6374 4.02249 12.6891 3.9896L12.8394 3.89293C12.9247 3.83788 13.0079 3.78351 13.0924 3.73517C13.1991 3.67274 13.3065 3.61098 13.4132 3.54855C13.4662 3.51767 13.5199 3.48746 13.5729 3.45658C13.6273 3.42839 13.681 3.40019 13.734 3.372L13.7333 3.37334ZM9.83022 5.0469C9.83358 5.04421 9.8376 5.04085 9.84163 5.03817L9.82754 5.0516L9.83559 5.04354L9.83022 5.0469ZM9.27791 5.7276C9.37589 5.62824 9.4732 5.52956 9.57051 5.43088C9.6913 5.30468 9.82485 5.18988 9.95035 5.06838C10.0168 5.00662 10.0819 4.94352 10.1497 4.8831C10.2188 4.82402 10.2872 4.76495 10.3557 4.70587C10.3684 4.70587 10.408 4.67835 10.4866 4.61055C10.5315 4.5837 10.5892 4.53268 10.6704 4.46622L10.7315 4.41722C10.7409 4.41185 10.7523 4.40513 10.7677 4.39439C10.8543 4.33397 10.953 4.25476 11.0516 4.17488C11.2409 4.02786 11.4341 3.88487 11.6274 3.74323C11.7308 3.67408 11.8341 3.60427 11.9368 3.53512C12.0395 3.46598 12.1408 3.39818 12.2428 3.33978C12.3187 3.2948 12.3978 3.24445 12.4683 3.19343C12.4864 3.18001 12.5059 3.16524 12.526 3.1498C12.5663 3.12362 12.6032 3.09878 12.6227 3.08132C12.6334 3.07394 12.6441 3.06656 12.6562 3.05984C12.7092 3.02695 12.7629 2.99338 12.8159 2.95982C12.8924 2.9135 12.9689 2.86718 13.0448 2.82086C13.1213 2.77454 13.1985 2.73091 13.2777 2.69197C13.3488 2.66915 13.2649 2.73695 13.4723 2.63558C12.9898 2.90142 12.5502 3.17732 12.1334 3.45994C12.0032 3.55459 11.8663 3.64723 11.7328 3.74054C11.6294 3.80969 11.5321 3.88622 11.4321 3.96006C11.3482 4.02383 11.2644 4.08694 11.1818 4.14937C11.0791 4.23059 10.9805 4.31786 10.8744 4.39439C10.7973 4.45078 10.7537 4.47629 10.706 4.50516C10.553 4.59847 10.555 4.60249 10.3711 4.7824C10.3389 4.81395 10.3013 4.84953 10.2584 4.88713C10.0993 5.02541 9.94833 5.1731 9.79264 5.31542C9.72821 5.37382 9.66714 5.43558 9.60742 5.49734L9.59668 5.50875L9.54031 5.56447L9.49669 5.60139L9.50742 5.58729C9.51883 5.57454 9.52957 5.56179 9.54098 5.54903C9.53292 5.54366 9.47051 5.60072 9.40944 5.65577C9.27187 5.77794 9.14302 5.90818 9.01819 6.03975C8.95578 6.10554 8.89471 6.172 8.83498 6.23913C8.77727 6.30827 8.72157 6.37809 8.66721 6.44857C8.6209 6.50496 8.57325 6.56135 8.52426 6.61707C8.51554 6.6164 8.52024 6.60029 8.47125 6.64795C8.46923 6.65198 8.46923 6.65332 8.47125 6.65198C8.43635 6.69024 8.4028 6.73052 8.36991 6.77013C8.32495 6.82652 8.30482 6.85605 8.30146 6.86814L8.29274 6.87754C8.19073 6.99367 8.09543 7.089 7.98671 7.2246C7.96457 7.25279 7.94309 7.28032 7.92095 7.30784C7.83303 7.41055 7.84243 7.39377 7.91826 7.283C7.97463 7.20782 8.04174 7.12995 8.09073 7.06214L8.11087 7.03596C8.11489 7.03194 8.11825 7.02925 8.12295 7.02455C8.15113 6.99434 8.18133 6.95943 8.21287 6.92117C8.38736 6.70098 8.5746 6.49087 8.75781 6.27941C8.83096 6.19348 8.91082 6.11427 8.98799 6.03237C9.0853 5.931 9.17926 5.82762 9.27656 5.72827L9.27791 5.7276ZM8.48467 6.51168C8.56319 6.42172 8.64104 6.33177 8.72023 6.24114C8.81015 6.13441 8.90478 6.03304 9.00611 5.93436C9.03027 5.93436 8.90679 6.06123 8.83498 6.1391C8.7417 6.24047 8.65379 6.34721 8.56252 6.45126C8.47192 6.55598 8.37864 6.65936 8.29072 6.76811C8.29408 6.75536 8.27663 6.76811 8.25448 6.78624L8.3679 6.64728L8.48534 6.51235L8.48467 6.51168ZM7.10087 8.15905C7.18005 8.05164 7.26059 7.94558 7.33374 7.83481C7.44581 7.68041 7.55117 7.53071 7.65855 7.38907C7.76525 7.24742 7.86256 7.10444 7.96658 6.97085C8.04711 6.87418 8.12295 6.7802 8.17932 6.70031C8.20147 6.68353 8.24576 6.6352 8.28871 6.58821C8.33636 6.5392 8.41353 6.45395 8.40414 6.47878C8.39676 6.49959 8.32428 6.57881 8.2773 6.64124C8.23301 6.69696 8.18737 6.75469 8.14107 6.81242C8.07933 6.88895 8.01624 6.96682 7.95383 7.04402C7.89142 7.12122 7.83303 7.2011 7.77398 7.27898C7.65721 7.43539 7.54245 7.5871 7.44782 7.7368C7.38206 7.8375 7.30018 7.94625 7.23844 8.01136C7.15858 8.09326 7.06328 8.23222 6.95725 8.38327C6.97201 8.34366 7.0304 8.25773 7.10019 8.15905H7.10087ZM6.61633 9.12774C6.6613 9.03779 6.79216 8.8619 6.81766 8.79075C6.79887 8.81491 6.78008 8.84109 6.76129 8.86727C6.77807 8.83841 6.79484 8.80954 6.81162 8.78068C6.87672 8.67595 6.88611 8.64843 6.88544 8.635L6.90558 8.60547C7.23039 8.12079 7.56661 7.64618 7.929 7.18835C7.88873 7.25212 7.778 7.39981 7.8639 7.31388C7.7921 7.40719 7.72163 7.49983 7.73103 7.50923C7.676 7.59113 7.53439 7.76701 7.51695 7.8187C7.45722 7.90261 7.41158 7.97377 7.35722 8.05299C7.27267 8.16845 7.19549 8.28861 7.11429 8.40542C7.03443 8.52357 6.94987 8.63836 6.87202 8.75852C6.72438 8.98341 6.5915 9.19957 6.46198 9.42647C6.45258 9.44258 6.44319 9.45869 6.43379 9.4748C6.40896 9.5077 6.37943 9.54395 6.34789 9.58154C6.35125 9.5755 6.3546 9.56878 6.35729 9.56274C6.44386 9.41774 6.52775 9.2714 6.61633 9.12774ZM6.35192 9.50635C6.41433 9.40029 6.47674 9.29355 6.53916 9.18682C6.52171 9.22307 6.51768 9.23783 6.56197 9.17674C6.5452 9.20494 6.52842 9.23314 6.51164 9.26133L6.34185 9.552L6.31501 9.60638C6.30159 9.62719 6.28951 9.64733 6.2781 9.66747C6.25662 9.69566 6.23515 9.72386 6.21233 9.75272C6.2573 9.67015 6.3036 9.58825 6.35192 9.50635ZM3.47559 15.7461C3.47559 15.7495 3.47425 15.7548 3.47425 15.7575C3.46955 15.7642 3.46486 15.7709 3.46016 15.7777L3.47559 15.7454V15.7461Z" fill="#1D1D1B"/>
</svg>
