<svg width="20" height="20" viewBox="0 0 20 20" fill="none" xmlns="http://www.w3.org/2000/svg">
<path fill-rule="evenodd" clip-rule="evenodd" d="M9.99999 1C5.02943 1 1 5.02944 1 10C1 14.9706 5.02943 19 9.99999 19C14.9706 19 19 14.9706 19 10C19 5.02944 14.9706 1 9.99999 1ZM9.99999 5.45457C9.49791 5.45457 9.0909 5.86158 9.0909 6.36366C9.0909 6.86574 9.49791 7.27275 9.99999 7.27275C10.5021 7.27275 10.9091 6.86574 10.9091 6.36366C10.9091 5.86158 10.5021 5.45457 9.99999 5.45457ZM9.1818 14.5455V8.63639H10.8182V14.5455H9.1818Z" fill="#EB3030"/>
</svg>
