<svg width="31" height="24" viewBox="0 0 31 24" fill="none" xmlns="http://www.w3.org/2000/svg">
<mask id="path-1-outside-1_147_115" maskUnits="userSpaceOnUse" x="12.6541" y="0.129639" width="3" height="5" fill="black">
<rect fill="white" x="12.6541" y="0.129639" width="3" height="5"/>
<path d="M14.8485 1.08184C14.6766 1.29902 13.6541 3.73317 13.6541 3.9413C13.6541 4.10418 13.6993 4.14943 13.8441 4.12228C13.9527 4.10418 14.0794 4.03179 14.1155 3.9594C14.378 3.47981 15.2014 1.32616 15.1743 1.19043C15.1381 0.991352 14.9752 0.937059 14.8485 1.08184Z"/>
</mask>
<path d="M14.8485 1.08184C14.6766 1.29902 13.6541 3.73317 13.6541 3.9413C13.6541 4.10418 13.6993 4.14943 13.8441 4.12228C13.9527 4.10418 14.0794 4.03179 14.1155 3.9594C14.378 3.47981 15.2014 1.32616 15.1743 1.19043C15.1381 0.991352 14.9752 0.937059 14.8485 1.08184Z" fill="black"/>
<path d="M14.8485 1.08184C14.6766 1.29902 13.6541 3.73317 13.6541 3.9413C13.6541 4.10418 13.6993 4.14943 13.8441 4.12228C13.9527 4.10418 14.0794 4.03179 14.1155 3.9594C14.378 3.47981 15.2014 1.32616 15.1743 1.19043C15.1381 0.991352 14.9752 0.937059 14.8485 1.08184Z" stroke="black" stroke-width="0.4" mask="url(#path-1-outside-1_147_115)"/>
<mask id="path-2-outside-2_147_115" maskUnits="userSpaceOnUse" x="3.57104" y="1.95483" width="3" height="4" fill="black">
<rect fill="white" x="3.57104" y="1.95483" width="3" height="4"/>
<path d="M4.60519 2.36684C4.52375 2.47543 4.57804 2.67451 4.87666 3.38937C5.44674 4.71956 5.58247 4.95483 5.7725 4.95483C6.07111 4.95483 6.03492 4.76481 5.61867 3.86896C5.40149 3.39842 5.21147 2.87358 5.19337 2.70165C5.14812 2.2673 4.84046 2.09537 4.60519 2.36684Z"/>
</mask>
<path d="M4.60519 2.36684C4.52375 2.47543 4.57804 2.67451 4.87666 3.38937C5.44674 4.71956 5.58247 4.95483 5.7725 4.95483C6.07111 4.95483 6.03492 4.76481 5.61867 3.86896C5.40149 3.39842 5.21147 2.87358 5.19337 2.70165C5.14812 2.2673 4.84046 2.09537 4.60519 2.36684Z" fill="black"/>
<path d="M4.60519 2.36684C4.52375 2.47543 4.57804 2.67451 4.87666 3.38937C5.44674 4.71956 5.58247 4.95483 5.7725 4.95483C6.07111 4.95483 6.03492 4.76481 5.61867 3.86896C5.40149 3.39842 5.21147 2.87358 5.19337 2.70165C5.14812 2.2673 4.84046 2.09537 4.60519 2.36684Z" stroke="black" stroke-width="0.4" mask="url(#path-2-outside-2_147_115)"/>
<path d="M6 12L7 14L9 15.5L14.5 15L17 10.5L15 7L14 6L12.5 5H10.5C10.1 5 9 5.33333 8.5 5.5L7 7L5.5 9.5L6 12Z" fill="#E8B952"/>
<path d="M11 13H12.5V11L13.5 9L16 7L18.5 6H21H24L26 7L26.5 8L27 10L26 12V13L28 13.5L29 14L29.5 15.5V18L27.5 20L25.5 21.5L21.5 22.5L17 23H11L7.5 22.5L5.5 21L4 19.5L3.5 18V16.5L5 15L7.5 14L11 13Z" fill="#ACD5F9"/>
<mask id="path-5-outside-3_147_115" maskUnits="userSpaceOnUse" x="1.95825" y="3.53345" width="29" height="21" fill="black">
<rect fill="white" x="1.95825" y="3.53345" width="29" height="21"/>
<path d="M9.89878 4.77366C8.43285 5.16277 7.95326 5.47043 6.95788 6.62869C5.79056 7.99508 5.44671 8.95427 5.53719 10.6464C5.59149 11.7323 5.81771 12.5557 6.28826 13.3339L6.57782 13.8226L5.75437 14.2117C3.86314 15.1166 2.95825 16.2477 2.95825 17.7136C2.95825 19.7225 4.87662 21.5866 7.95326 22.5548C10.496 23.3511 16.0973 23.7764 18.9929 23.3873C22.3591 22.9258 23.4179 22.6634 25.101 21.8399C27.1189 20.8445 29.001 19.3243 29.5259 18.2475C30.1955 16.863 30.0236 14.8813 29.1277 13.7411C28.621 13.0987 28.1414 12.8996 26.5759 12.6915L26.1506 12.6372L26.4131 12.1214C26.9741 10.9993 27.2999 9.41576 27.137 8.57421C26.9288 7.50644 26.4221 6.89111 25.2819 6.34818C24.2594 5.86858 23.4541 5.73285 21.4814 5.7419C20.0607 5.7419 19.5992 5.76905 18.8301 5.94098C17.717 6.17625 16.6493 6.54725 15.862 6.99065C15.4005 7.23497 15.2829 7.27117 15.2829 7.16258C15.2829 6.91826 14.6495 6.14005 14.1608 5.76905C13.5274 5.2985 13.084 5.09038 12.161 4.81891C11.229 4.55649 10.7584 4.53839 9.89878 4.77366ZM12.0253 5.28945C13.084 5.57902 13.6541 5.91383 14.3961 6.69204L15.111 7.425L14.8938 7.56978C13.9617 8.20321 13.0207 9.34337 12.6406 10.3026C12.3963 10.8998 12.1158 12.0942 12.1158 12.4924V12.7096L11.2199 12.6643C10.1974 12.6191 9.52777 12.7458 8.16138 13.2525C7.11171 13.6416 6.97597 13.5964 6.54163 12.7367C6.15252 11.9676 6.00774 11.2527 6.01679 10.203C6.02584 8.75519 6.38779 7.95888 7.6275 6.6106C8.28807 5.89573 8.8129 5.57902 9.76304 5.32565C10.8942 5.02703 11.0661 5.02703 12.0253 5.28945ZM23.6622 6.35723C25.2186 6.62869 26.3226 7.37975 26.594 8.34799C26.8927 9.40671 26.4493 11.1803 25.5263 12.6643C25.4267 12.8272 25.4086 12.9448 25.4629 12.9991C25.5172 13.0444 25.9606 13.1258 26.4583 13.1892C27.8518 13.343 28.2319 13.4787 28.6662 13.9674C29.2544 14.646 29.4263 15.2071 29.3811 16.4468C29.3359 17.8041 29.1911 18.1299 28.1957 19.1162C26.8927 20.4011 24.7119 21.677 22.9564 22.1838C22.1239 22.4191 19.8345 22.7991 18.2781 22.962C15.7715 23.2063 11.4914 22.8987 8.8853 22.2833C3.93554 21.107 1.81809 17.5055 4.77709 15.3247C5.82676 14.5555 9.31964 13.2344 10.5774 13.1349C11.428 13.0715 11.971 13.1801 12.0072 13.4154C12.0886 13.9493 12.1248 14.0126 12.3239 13.9855C12.4777 13.9674 12.523 13.895 12.523 13.6869C12.532 13.4335 12.5501 13.4154 12.8487 13.4425C13.274 13.4787 13.5093 13.2344 13.2469 13.0444C13.1564 12.972 12.9664 12.9177 12.8216 12.9177C12.523 12.9177 12.523 12.9177 12.7039 11.8861C12.9935 10.2392 13.6993 9.09 15.0567 8.05842C16.0611 7.29831 17.7532 6.6106 19.183 6.36627C20.2417 6.1853 22.6578 6.1853 23.6622 6.35723Z"/>
</mask>
<path d="M9.89878 4.77366C8.43285 5.16277 7.95326 5.47043 6.95788 6.62869C5.79056 7.99508 5.44671 8.95427 5.53719 10.6464C5.59149 11.7323 5.81771 12.5557 6.28826 13.3339L6.57782 13.8226L5.75437 14.2117C3.86314 15.1166 2.95825 16.2477 2.95825 17.7136C2.95825 19.7225 4.87662 21.5866 7.95326 22.5548C10.496 23.3511 16.0973 23.7764 18.9929 23.3873C22.3591 22.9258 23.4179 22.6634 25.101 21.8399C27.1189 20.8445 29.001 19.3243 29.5259 18.2475C30.1955 16.863 30.0236 14.8813 29.1277 13.7411C28.621 13.0987 28.1414 12.8996 26.5759 12.6915L26.1506 12.6372L26.4131 12.1214C26.9741 10.9993 27.2999 9.41576 27.137 8.57421C26.9288 7.50644 26.4221 6.89111 25.2819 6.34818C24.2594 5.86858 23.4541 5.73285 21.4814 5.7419C20.0607 5.7419 19.5992 5.76905 18.8301 5.94098C17.717 6.17625 16.6493 6.54725 15.862 6.99065C15.4005 7.23497 15.2829 7.27117 15.2829 7.16258C15.2829 6.91826 14.6495 6.14005 14.1608 5.76905C13.5274 5.2985 13.084 5.09038 12.161 4.81891C11.229 4.55649 10.7584 4.53839 9.89878 4.77366ZM12.0253 5.28945C13.084 5.57902 13.6541 5.91383 14.3961 6.69204L15.111 7.425L14.8938 7.56978C13.9617 8.20321 13.0207 9.34337 12.6406 10.3026C12.3963 10.8998 12.1158 12.0942 12.1158 12.4924V12.7096L11.2199 12.6643C10.1974 12.6191 9.52777 12.7458 8.16138 13.2525C7.11171 13.6416 6.97597 13.5964 6.54163 12.7367C6.15252 11.9676 6.00774 11.2527 6.01679 10.203C6.02584 8.75519 6.38779 7.95888 7.6275 6.6106C8.28807 5.89573 8.8129 5.57902 9.76304 5.32565C10.8942 5.02703 11.0661 5.02703 12.0253 5.28945ZM23.6622 6.35723C25.2186 6.62869 26.3226 7.37975 26.594 8.34799C26.8927 9.40671 26.4493 11.1803 25.5263 12.6643C25.4267 12.8272 25.4086 12.9448 25.4629 12.9991C25.5172 13.0444 25.9606 13.1258 26.4583 13.1892C27.8518 13.343 28.2319 13.4787 28.6662 13.9674C29.2544 14.646 29.4263 15.2071 29.3811 16.4468C29.3359 17.8041 29.1911 18.1299 28.1957 19.1162C26.8927 20.4011 24.7119 21.677 22.9564 22.1838C22.1239 22.4191 19.8345 22.7991 18.2781 22.962C15.7715 23.2063 11.4914 22.8987 8.8853 22.2833C3.93554 21.107 1.81809 17.5055 4.77709 15.3247C5.82676 14.5555 9.31964 13.2344 10.5774 13.1349C11.428 13.0715 11.971 13.1801 12.0072 13.4154C12.0886 13.9493 12.1248 14.0126 12.3239 13.9855C12.4777 13.9674 12.523 13.895 12.523 13.6869C12.532 13.4335 12.5501 13.4154 12.8487 13.4425C13.274 13.4787 13.5093 13.2344 13.2469 13.0444C13.1564 12.972 12.9664 12.9177 12.8216 12.9177C12.523 12.9177 12.523 12.9177 12.7039 11.8861C12.9935 10.2392 13.6993 9.09 15.0567 8.05842C16.0611 7.29831 17.7532 6.6106 19.183 6.36627C20.2417 6.1853 22.6578 6.1853 23.6622 6.35723Z" fill="black"/>
<path d="M9.89878 4.77366C8.43285 5.16277 7.95326 5.47043 6.95788 6.62869C5.79056 7.99508 5.44671 8.95427 5.53719 10.6464C5.59149 11.7323 5.81771 12.5557 6.28826 13.3339L6.57782 13.8226L5.75437 14.2117C3.86314 15.1166 2.95825 16.2477 2.95825 17.7136C2.95825 19.7225 4.87662 21.5866 7.95326 22.5548C10.496 23.3511 16.0973 23.7764 18.9929 23.3873C22.3591 22.9258 23.4179 22.6634 25.101 21.8399C27.1189 20.8445 29.001 19.3243 29.5259 18.2475C30.1955 16.863 30.0236 14.8813 29.1277 13.7411C28.621 13.0987 28.1414 12.8996 26.5759 12.6915L26.1506 12.6372L26.4131 12.1214C26.9741 10.9993 27.2999 9.41576 27.137 8.57421C26.9288 7.50644 26.4221 6.89111 25.2819 6.34818C24.2594 5.86858 23.4541 5.73285 21.4814 5.7419C20.0607 5.7419 19.5992 5.76905 18.8301 5.94098C17.717 6.17625 16.6493 6.54725 15.862 6.99065C15.4005 7.23497 15.2829 7.27117 15.2829 7.16258C15.2829 6.91826 14.6495 6.14005 14.1608 5.76905C13.5274 5.2985 13.084 5.09038 12.161 4.81891C11.229 4.55649 10.7584 4.53839 9.89878 4.77366ZM12.0253 5.28945C13.084 5.57902 13.6541 5.91383 14.3961 6.69204L15.111 7.425L14.8938 7.56978C13.9617 8.20321 13.0207 9.34337 12.6406 10.3026C12.3963 10.8998 12.1158 12.0942 12.1158 12.4924V12.7096L11.2199 12.6643C10.1974 12.6191 9.52777 12.7458 8.16138 13.2525C7.11171 13.6416 6.97597 13.5964 6.54163 12.7367C6.15252 11.9676 6.00774 11.2527 6.01679 10.203C6.02584 8.75519 6.38779 7.95888 7.6275 6.6106C8.28807 5.89573 8.8129 5.57902 9.76304 5.32565C10.8942 5.02703 11.0661 5.02703 12.0253 5.28945ZM23.6622 6.35723C25.2186 6.62869 26.3226 7.37975 26.594 8.34799C26.8927 9.40671 26.4493 11.1803 25.5263 12.6643C25.4267 12.8272 25.4086 12.9448 25.4629 12.9991C25.5172 13.0444 25.9606 13.1258 26.4583 13.1892C27.8518 13.343 28.2319 13.4787 28.6662 13.9674C29.2544 14.646 29.4263 15.2071 29.3811 16.4468C29.3359 17.8041 29.1911 18.1299 28.1957 19.1162C26.8927 20.4011 24.7119 21.677 22.9564 22.1838C22.1239 22.4191 19.8345 22.7991 18.2781 22.962C15.7715 23.2063 11.4914 22.8987 8.8853 22.2833C3.93554 21.107 1.81809 17.5055 4.77709 15.3247C5.82676 14.5555 9.31964 13.2344 10.5774 13.1349C11.428 13.0715 11.971 13.1801 12.0072 13.4154C12.0886 13.9493 12.1248 14.0126 12.3239 13.9855C12.4777 13.9674 12.523 13.895 12.523 13.6869C12.532 13.4335 12.5501 13.4154 12.8487 13.4425C13.274 13.4787 13.5093 13.2344 13.2469 13.0444C13.1564 12.972 12.9664 12.9177 12.8216 12.9177C12.523 12.9177 12.523 12.9177 12.7039 11.8861C12.9935 10.2392 13.6993 9.09 15.0567 8.05842C16.0611 7.29831 17.7532 6.6106 19.183 6.36627C20.2417 6.1853 22.6578 6.1853 23.6622 6.35723Z" stroke="black" stroke-width="0.4" mask="url(#path-5-outside-3_147_115)"/>
<mask id="path-6-outside-4_147_115" maskUnits="userSpaceOnUse" x="0" y="10.0566" width="4" height="2" fill="black">
<rect fill="white" y="10.0566" width="4" height="2"/>
<path d="M1.18473 10.4836C1.0309 10.5379 0.985658 10.6194 1.00376 10.7641C1.0309 10.9632 1.07615 10.9723 2.29775 11.0266C3.31123 11.0809 3.59175 11.0628 3.70033 10.9632C3.94465 10.7279 3.65509 10.6103 2.63256 10.556C2.09867 10.5289 1.60098 10.4836 1.52859 10.4474C1.4562 10.4203 1.30237 10.4293 1.18473 10.4836Z"/>
</mask>
<path d="M1.18473 10.4836C1.0309 10.5379 0.985658 10.6194 1.00376 10.7641C1.0309 10.9632 1.07615 10.9723 2.29775 11.0266C3.31123 11.0809 3.59175 11.0628 3.70033 10.9632C3.94465 10.7279 3.65509 10.6103 2.63256 10.556C2.09867 10.5289 1.60098 10.4836 1.52859 10.4474C1.4562 10.4203 1.30237 10.4293 1.18473 10.4836Z" fill="black"/>
<path d="M1.18473 10.4836C1.0309 10.5379 0.985658 10.6194 1.00376 10.7641C1.0309 10.9632 1.07615 10.9723 2.29775 11.0266C3.31123 11.0809 3.59175 11.0628 3.70033 10.9632C3.94465 10.7279 3.65509 10.6103 2.63256 10.556C2.09867 10.5289 1.60098 10.4836 1.52859 10.4474C1.4562 10.4203 1.30237 10.4293 1.18473 10.4836Z" stroke="black" stroke-width="0.4" mask="url(#path-6-outside-4_147_115)"/>
</svg>
