<svg width="32" height="32" viewBox="0 0 32 32" fill="none" xmlns="http://www.w3.org/2000/svg">
<path d="M11.4231 10.6765H12.8077V8.91176L13.7308 7.14706L16.0385 5.38235L18.3462 4.5H20.6538H23.4231L25.2692 5.38235L25.7308 6.26471V8L25.2692 9.79412V10.6765L27.1154 11.1176L28 12L28.0385 13L28 15L26.6538 16.8529L24.8077 18.1765L21.1154 19.0588L16.5 20L11.4231 19.5L8.19231 19.0588L6.34615 17.7353L4.96154 16.4118L4.5 15.0882V13.7647L5.88462 12.4412L8.19231 11.5588L11.4231 10.6765Z" fill="#72A2D0"/>
<mask id="path-2-outside-1_147_122" maskUnits="userSpaceOnUse" x="3.2666" y="3.11963" width="26" height="18" fill="black">
<rect fill="white" x="3.2666" y="3.11963" width="26" height="18"/>
<path d="M19.3871 4.24591C17.5193 4.46423 15.6838 5.20004 14.4386 6.22694C13.9049 6.67975 13.161 7.67431 12.9184 8.29692C12.7001 8.83058 12.4495 9.89791 12.4495 10.2537V10.4477L11.649 10.4073C11.0506 10.3831 10.6948 10.4073 10.2501 10.5124C9.53048 10.6822 7.27453 11.5232 6.54681 11.887C5.05093 12.639 4.2666 13.6821 4.2666 14.9192C4.2666 16.7143 5.9808 18.3799 8.72998 19.2451C11.0021 19.9567 16.0072 20.3367 18.5947 19.989C21.6026 19.5767 22.5487 19.3422 24.0526 18.6064C25.8558 17.7169 27.5376 16.3585 28.0066 15.3963C28.605 14.1591 28.4513 12.3883 27.6508 11.3695C27.198 10.7954 26.7695 10.6176 25.3706 10.4316L24.9906 10.3831L25.2251 9.92217C25.5162 9.3319 25.7507 8.56375 25.8639 7.80368C26.0175 6.76869 25.7507 5.87925 25.12 5.32942C24.651 4.92512 23.7696 4.52083 23.0015 4.3672C22.2333 4.21357 20.2685 4.14888 19.3871 4.24591ZM22.767 4.77149C24.1578 5.01407 25.1442 5.68519 25.3868 6.55038C25.6536 7.49642 25.2574 9.08124 24.4327 10.4073C24.3437 10.5529 24.3276 10.658 24.3761 10.7065C24.4246 10.7469 24.8208 10.8197 25.2655 10.8763C26.5107 11.0138 26.8503 11.135 27.2385 11.5717C27.764 12.1781 27.9177 12.6794 27.8772 13.7872C27.8368 15.0001 27.7074 15.2912 26.818 16.1725C25.6536 17.3207 23.7049 18.4608 22.1363 18.9136C21.3924 19.1238 19.3467 19.4635 17.9559 19.609C15.7161 19.8273 11.8915 19.5524 9.56282 19.0026C5.13987 17.9514 3.24779 14.7332 5.89185 12.7846C6.82981 12.0973 9.95094 10.9167 11.0749 10.8278C11.8349 10.7712 12.3201 10.8682 12.3524 11.0784C12.4252 11.5555 12.4576 11.6121 12.6354 11.5879C12.7729 11.5717 12.8133 11.507 12.8133 11.321C12.8214 11.0946 12.8376 11.0784 13.1044 11.1027C13.4845 11.135 13.6947 10.9167 13.4602 10.7469C13.3793 10.6822 13.2095 10.6337 13.0802 10.6337C12.8133 10.6337 12.8133 10.6337 12.975 9.71194C13.2338 8.24032 13.8645 7.21341 15.0774 6.29163C15.9749 5.61242 17.4869 4.9979 18.7645 4.77958C19.7105 4.61786 21.8695 4.61786 22.767 4.77149Z"/>
</mask>
<path d="M19.3871 4.24591C17.5193 4.46423 15.6838 5.20004 14.4386 6.22694C13.9049 6.67975 13.161 7.67431 12.9184 8.29692C12.7001 8.83058 12.4495 9.89791 12.4495 10.2537V10.4477L11.649 10.4073C11.0506 10.3831 10.6948 10.4073 10.2501 10.5124C9.53048 10.6822 7.27453 11.5232 6.54681 11.887C5.05093 12.639 4.2666 13.6821 4.2666 14.9192C4.2666 16.7143 5.9808 18.3799 8.72998 19.2451C11.0021 19.9567 16.0072 20.3367 18.5947 19.989C21.6026 19.5767 22.5487 19.3422 24.0526 18.6064C25.8558 17.7169 27.5376 16.3585 28.0066 15.3963C28.605 14.1591 28.4513 12.3883 27.6508 11.3695C27.198 10.7954 26.7695 10.6176 25.3706 10.4316L24.9906 10.3831L25.2251 9.92217C25.5162 9.3319 25.7507 8.56375 25.8639 7.80368C26.0175 6.76869 25.7507 5.87925 25.12 5.32942C24.651 4.92512 23.7696 4.52083 23.0015 4.3672C22.2333 4.21357 20.2685 4.14888 19.3871 4.24591ZM22.767 4.77149C24.1578 5.01407 25.1442 5.68519 25.3868 6.55038C25.6536 7.49642 25.2574 9.08124 24.4327 10.4073C24.3437 10.5529 24.3276 10.658 24.3761 10.7065C24.4246 10.7469 24.8208 10.8197 25.2655 10.8763C26.5107 11.0138 26.8503 11.135 27.2385 11.5717C27.764 12.1781 27.9177 12.6794 27.8772 13.7872C27.8368 15.0001 27.7074 15.2912 26.818 16.1725C25.6536 17.3207 23.7049 18.4608 22.1363 18.9136C21.3924 19.1238 19.3467 19.4635 17.9559 19.609C15.7161 19.8273 11.8915 19.5524 9.56282 19.0026C5.13987 17.9514 3.24779 14.7332 5.89185 12.7846C6.82981 12.0973 9.95094 10.9167 11.0749 10.8278C11.8349 10.7712 12.3201 10.8682 12.3524 11.0784C12.4252 11.5555 12.4576 11.6121 12.6354 11.5879C12.7729 11.5717 12.8133 11.507 12.8133 11.321C12.8214 11.0946 12.8376 11.0784 13.1044 11.1027C13.4845 11.135 13.6947 10.9167 13.4602 10.7469C13.3793 10.6822 13.2095 10.6337 13.0802 10.6337C12.8133 10.6337 12.8133 10.6337 12.975 9.71194C13.2338 8.24032 13.8645 7.21341 15.0774 6.29163C15.9749 5.61242 17.4869 4.9979 18.7645 4.77958C19.7105 4.61786 21.8695 4.61786 22.767 4.77149Z" fill="black"/>
<path d="M19.3871 4.24591C17.5193 4.46423 15.6838 5.20004 14.4386 6.22694C13.9049 6.67975 13.161 7.67431 12.9184 8.29692C12.7001 8.83058 12.4495 9.89791 12.4495 10.2537V10.4477L11.649 10.4073C11.0506 10.3831 10.6948 10.4073 10.2501 10.5124C9.53048 10.6822 7.27453 11.5232 6.54681 11.887C5.05093 12.639 4.2666 13.6821 4.2666 14.9192C4.2666 16.7143 5.9808 18.3799 8.72998 19.2451C11.0021 19.9567 16.0072 20.3367 18.5947 19.989C21.6026 19.5767 22.5487 19.3422 24.0526 18.6064C25.8558 17.7169 27.5376 16.3585 28.0066 15.3963C28.605 14.1591 28.4513 12.3883 27.6508 11.3695C27.198 10.7954 26.7695 10.6176 25.3706 10.4316L24.9906 10.3831L25.2251 9.92217C25.5162 9.3319 25.7507 8.56375 25.8639 7.80368C26.0175 6.76869 25.7507 5.87925 25.12 5.32942C24.651 4.92512 23.7696 4.52083 23.0015 4.3672C22.2333 4.21357 20.2685 4.14888 19.3871 4.24591ZM22.767 4.77149C24.1578 5.01407 25.1442 5.68519 25.3868 6.55038C25.6536 7.49642 25.2574 9.08124 24.4327 10.4073C24.3437 10.5529 24.3276 10.658 24.3761 10.7065C24.4246 10.7469 24.8208 10.8197 25.2655 10.8763C26.5107 11.0138 26.8503 11.135 27.2385 11.5717C27.764 12.1781 27.9177 12.6794 27.8772 13.7872C27.8368 15.0001 27.7074 15.2912 26.818 16.1725C25.6536 17.3207 23.7049 18.4608 22.1363 18.9136C21.3924 19.1238 19.3467 19.4635 17.9559 19.609C15.7161 19.8273 11.8915 19.5524 9.56282 19.0026C5.13987 17.9514 3.24779 14.7332 5.89185 12.7846C6.82981 12.0973 9.95094 10.9167 11.0749 10.8278C11.8349 10.7712 12.3201 10.8682 12.3524 11.0784C12.4252 11.5555 12.4576 11.6121 12.6354 11.5879C12.7729 11.5717 12.8133 11.507 12.8133 11.321C12.8214 11.0946 12.8376 11.0784 13.1044 11.1027C13.4845 11.135 13.6947 10.9167 13.4602 10.7469C13.3793 10.6822 13.2095 10.6337 13.0802 10.6337C12.8133 10.6337 12.8133 10.6337 12.975 9.71194C13.2338 8.24032 13.8645 7.21341 15.0774 6.29163C15.9749 5.61242 17.4869 4.9979 18.7645 4.77958C19.7105 4.61786 21.8695 4.61786 22.767 4.77149Z" stroke="black" stroke-width="0.4" mask="url(#path-2-outside-1_147_122)"/>
<mask id="path-3-outside-2_147_122" maskUnits="userSpaceOnUse" x="17.9989" y="19.3213" width="3" height="4" fill="black">
<rect fill="white" x="17.9989" y="19.3213" width="3" height="4"/>
<path d="M19.5326 20.4337C19.3951 20.652 18.9989 21.8972 18.9989 22.1074C18.9989 22.2692 19.1687 22.3743 19.2981 22.2934C19.3385 22.2611 19.476 21.9134 19.5973 21.5091C19.7266 21.1129 19.8722 20.7167 19.9288 20.6358C19.9935 20.5469 20.0177 20.4256 19.9935 20.369C19.9288 20.1911 19.6619 20.2315 19.5326 20.4337Z"/>
</mask>
<path d="M19.5326 20.4337C19.3951 20.652 18.9989 21.8972 18.9989 22.1074C18.9989 22.2692 19.1687 22.3743 19.2981 22.2934C19.3385 22.2611 19.476 21.9134 19.5973 21.5091C19.7266 21.1129 19.8722 20.7167 19.9288 20.6358C19.9935 20.5469 20.0177 20.4256 19.9935 20.369C19.9288 20.1911 19.6619 20.2315 19.5326 20.4337Z" fill="black"/>
<path d="M19.5326 20.4337C19.3951 20.652 18.9989 21.8972 18.9989 22.1074C18.9989 22.2692 19.1687 22.3743 19.2981 22.2934C19.3385 22.2611 19.476 21.9134 19.5973 21.5091C19.7266 21.1129 19.8722 20.7167 19.9288 20.6358C19.9935 20.5469 20.0177 20.4256 19.9935 20.369C19.9288 20.1911 19.6619 20.2315 19.5326 20.4337Z" stroke="black" stroke-width="0.4" mask="url(#path-3-outside-2_147_122)"/>
<mask id="path-4-outside-3_147_122" maskUnits="userSpaceOnUse" x="9.49194" y="20.0857" width="3" height="4" fill="black">
<rect fill="white" x="9.49194" y="20.0857" width="3" height="4"/>
<path d="M11.0749 20.9025C11.0264 20.9915 10.8808 21.4038 10.7595 21.8162C10.428 22.8755 10.4118 23.0857 10.6706 23.0857C10.8 23.0857 10.8727 22.9401 11.0749 22.2529C11.2123 21.8 11.3579 21.3472 11.3983 21.2421C11.4468 21.137 11.4792 20.9834 11.4792 20.9025C11.4792 20.6842 11.1881 20.6923 11.0749 20.9025Z"/>
</mask>
<path d="M11.0749 20.9025C11.0264 20.9915 10.8808 21.4038 10.7595 21.8162C10.428 22.8755 10.4118 23.0857 10.6706 23.0857C10.8 23.0857 10.8727 22.9401 11.0749 22.2529C11.2123 21.8 11.3579 21.3472 11.3983 21.2421C11.4468 21.137 11.4792 20.9834 11.4792 20.9025C11.4792 20.6842 11.1881 20.6923 11.0749 20.9025Z" fill="black"/>
<path d="M11.0749 20.9025C11.0264 20.9915 10.8808 21.4038 10.7595 21.8162C10.428 22.8755 10.4118 23.0857 10.6706 23.0857C10.8 23.0857 10.8727 22.9401 11.0749 22.2529C11.2123 21.8 11.3579 21.3472 11.3983 21.2421C11.4468 21.137 11.4792 20.9834 11.4792 20.9025C11.4792 20.6842 11.1881 20.6923 11.0749 20.9025Z" stroke="black" stroke-width="0.4" mask="url(#path-4-outside-3_147_122)"/>
<mask id="path-5-outside-4_147_122" maskUnits="userSpaceOnUse" x="21.3492" y="21.137" width="2" height="4" fill="black">
<rect fill="white" x="21.3492" y="21.137" width="2" height="4"/>
<path d="M22.6862 21.8891C22.5487 22.1236 22.5083 22.3015 22.3951 23.1747C22.3061 23.9429 22.3385 24.137 22.5649 24.137C22.7347 24.137 22.767 24.0318 22.8398 23.1667C22.8721 22.8351 22.9449 22.4066 23.0177 22.2125C23.1147 21.9134 23.1147 21.8406 23.0258 21.784C22.864 21.6789 22.8155 21.695 22.6862 21.8891Z"/>
</mask>
<path d="M22.6862 21.8891C22.5487 22.1236 22.5083 22.3015 22.3951 23.1747C22.3061 23.9429 22.3385 24.137 22.5649 24.137C22.7347 24.137 22.767 24.0318 22.8398 23.1667C22.8721 22.8351 22.9449 22.4066 23.0177 22.2125C23.1147 21.9134 23.1147 21.8406 23.0258 21.784C22.864 21.6789 22.8155 21.695 22.6862 21.8891Z" fill="black"/>
<path d="M22.6862 21.8891C22.5487 22.1236 22.5083 22.3015 22.3951 23.1747C22.3061 23.9429 22.3385 24.137 22.5649 24.137C22.7347 24.137 22.767 24.0318 22.8398 23.1667C22.8721 22.8351 22.9449 22.4066 23.0177 22.2125C23.1147 21.9134 23.1147 21.8406 23.0258 21.784C22.864 21.6789 22.8155 21.695 22.6862 21.8891Z" stroke="black" stroke-width="0.4" mask="url(#path-5-outside-4_147_122)"/>
<mask id="path-6-outside-5_147_122" maskUnits="userSpaceOnUse" x="13.1475" y="22.1072" width="2" height="4" fill="black">
<rect fill="white" x="13.1475" y="22.1072" width="2" height="4"/>
<path d="M14.5275 22.9402C14.39 23.0534 14.1475 24.2177 14.1475 24.7918C14.1475 25.0506 14.1798 25.1072 14.3011 25.1072C14.5194 25.1072 14.5275 25.0829 14.6326 24.2501C14.6892 23.8539 14.7862 23.4172 14.8509 23.2717C15.0288 22.8917 14.8428 22.7057 14.5275 22.9402Z"/>
</mask>
<path d="M14.5275 22.9402C14.39 23.0534 14.1475 24.2177 14.1475 24.7918C14.1475 25.0506 14.1798 25.1072 14.3011 25.1072C14.5194 25.1072 14.5275 25.0829 14.6326 24.2501C14.6892 23.8539 14.7862 23.4172 14.8509 23.2717C15.0288 22.8917 14.8428 22.7057 14.5275 22.9402Z" fill="black"/>
<path d="M14.5275 22.9402C14.39 23.0534 14.1475 24.2177 14.1475 24.7918C14.1475 25.0506 14.1798 25.1072 14.3011 25.1072C14.5194 25.1072 14.5275 25.0829 14.6326 24.2501C14.6892 23.8539 14.7862 23.4172 14.8509 23.2717C15.0288 22.8917 14.8428 22.7057 14.5275 22.9402Z" stroke="black" stroke-width="0.4" mask="url(#path-6-outside-5_147_122)"/>
<mask id="path-7-outside-6_147_122" maskUnits="userSpaceOnUse" x="8.47217" y="25.3623" width="2" height="3" fill="black">
<rect fill="white" x="8.47217" y="25.3623" width="2" height="3"/>
<path d="M9.70039 26.1261C9.44164 26.967 9.4093 27.2742 9.57102 27.3389C9.77316 27.4198 9.83785 27.3147 10.0319 26.6435C10.2664 25.8107 10.2664 25.6409 10.0481 25.6086C9.89445 25.5843 9.84593 25.649 9.70039 26.1261Z"/>
</mask>
<path d="M9.70039 26.1261C9.44164 26.967 9.4093 27.2742 9.57102 27.3389C9.77316 27.4198 9.83785 27.3147 10.0319 26.6435C10.2664 25.8107 10.2664 25.6409 10.0481 25.6086C9.89445 25.5843 9.84593 25.649 9.70039 26.1261Z" fill="black"/>
<path d="M9.70039 26.1261C9.44164 26.967 9.4093 27.2742 9.57102 27.3389C9.77316 27.4198 9.83785 27.3147 10.0319 26.6435C10.2664 25.8107 10.2664 25.6409 10.0481 25.6086C9.89445 25.5843 9.84593 25.649 9.70039 26.1261Z" stroke="black" stroke-width="0.4" mask="url(#path-7-outside-6_147_122)"/>
<mask id="path-8-outside-7_147_122" maskUnits="userSpaceOnUse" x="17.1332" y="24.8564" width="2" height="4" fill="black">
<rect fill="white" x="17.1332" y="24.8564" width="2" height="4"/>
<path d="M18.4329 25.8269C18.3197 26.0371 18.0853 27.5896 18.1419 27.7352C18.1661 27.7998 18.2551 27.8564 18.344 27.8564C18.4653 27.8564 18.5138 27.7918 18.5461 27.5896C18.5704 27.4522 18.6432 26.9913 18.716 26.5789C18.7806 26.1665 18.8211 25.7946 18.7968 25.7541C18.716 25.6248 18.5219 25.6652 18.4329 25.8269Z"/>
</mask>
<path d="M18.4329 25.8269C18.3197 26.0371 18.0853 27.5896 18.1419 27.7352C18.1661 27.7998 18.2551 27.8564 18.344 27.8564C18.4653 27.8564 18.5138 27.7918 18.5461 27.5896C18.5704 27.4522 18.6432 26.9913 18.716 26.5789C18.7806 26.1665 18.8211 25.7946 18.7968 25.7541C18.716 25.6248 18.5219 25.6652 18.4329 25.8269Z" fill="black"/>
<path d="M18.4329 25.8269C18.3197 26.0371 18.0853 27.5896 18.1419 27.7352C18.1661 27.7998 18.2551 27.8564 18.344 27.8564C18.4653 27.8564 18.5138 27.7918 18.5461 27.5896C18.5704 27.4522 18.6432 26.9913 18.716 26.5789C18.7806 26.1665 18.8211 25.7946 18.7968 25.7541C18.716 25.6248 18.5219 25.6652 18.4329 25.8269Z" stroke="black" stroke-width="0.4" mask="url(#path-8-outside-7_147_122)"/>
<mask id="path-9-outside-8_147_122" maskUnits="userSpaceOnUse" x="20.5056" y="26.6763" width="3" height="4" fill="black">
<rect fill="white" x="20.5056" y="26.6763" width="3" height="4"/>
<path d="M22.1201 27.0641C21.9827 27.2744 21.5056 29.1179 21.5056 29.4171C21.5056 29.6435 21.6916 29.7567 21.8129 29.6112C21.8533 29.5546 21.9908 29.0937 22.1121 28.5843C22.2333 28.0749 22.4031 27.5574 22.484 27.4361C22.6781 27.1612 22.6781 27.0722 22.484 26.9671C22.2657 26.8539 22.2576 26.862 22.1201 27.0641Z"/>
</mask>
<path d="M22.1201 27.0641C21.9827 27.2744 21.5056 29.1179 21.5056 29.4171C21.5056 29.6435 21.6916 29.7567 21.8129 29.6112C21.8533 29.5546 21.9908 29.0937 22.1121 28.5843C22.2333 28.0749 22.4031 27.5574 22.484 27.4361C22.6781 27.1612 22.6781 27.0722 22.484 26.9671C22.2657 26.8539 22.2576 26.862 22.1201 27.0641Z" fill="black"/>
<path d="M22.1201 27.0641C21.9827 27.2744 21.5056 29.1179 21.5056 29.4171C21.5056 29.6435 21.6916 29.7567 21.8129 29.6112C21.8533 29.5546 21.9908 29.0937 22.1121 28.5843C22.2333 28.0749 22.4031 27.5574 22.484 27.4361C22.6781 27.1612 22.6781 27.0722 22.484 26.9671C22.2657 26.8539 22.2576 26.862 22.1201 27.0641Z" stroke="black" stroke-width="0.4" mask="url(#path-9-outside-8_147_122)"/>
<mask id="path-10-outside-9_147_122" maskUnits="userSpaceOnUse" x="12.0963" y="27.5964" width="3" height="4" fill="black">
<rect fill="white" x="12.0963" y="27.5964" width="3" height="4"/>
<path d="M13.6057 28.3578C13.5087 28.5195 13.1044 30.1366 13.0963 30.3873C13.0963 30.5814 13.1287 30.6137 13.2823 30.5894C13.4359 30.5652 13.4844 30.4601 13.6704 29.7566C13.7836 29.3038 13.9211 28.8591 13.9777 28.7621C14.1475 28.4467 13.7917 28.0667 13.6057 28.3578Z"/>
</mask>
<path d="M13.6057 28.3578C13.5087 28.5195 13.1044 30.1366 13.0963 30.3873C13.0963 30.5814 13.1287 30.6137 13.2823 30.5894C13.4359 30.5652 13.4844 30.4601 13.6704 29.7566C13.7836 29.3038 13.9211 28.8591 13.9777 28.7621C14.1475 28.4467 13.7917 28.0667 13.6057 28.3578Z" fill="black"/>
<path d="M13.6057 28.3578C13.5087 28.5195 13.1044 30.1366 13.0963 30.3873C13.0963 30.5814 13.1287 30.6137 13.2823 30.5894C13.4359 30.5652 13.4844 30.4601 13.6704 29.7566C13.7836 29.3038 13.9211 28.8591 13.9777 28.7621C14.1475 28.4467 13.7917 28.0667 13.6057 28.3578Z" stroke="black" stroke-width="0.4" mask="url(#path-10-outside-9_147_122)"/>
</svg>
