<svg width="32" height="32" viewBox="0 0 32 32" fill="none" xmlns="http://www.w3.org/2000/svg">
<path d="M11.4231 10.6765H12.8077V8.91176L13.7308 7.14706L16.0385 5.38235L18.3462 4.5H20.6538H23.4231L25.2692 5.38235L25.7308 6.26471V8L25.2692 9.79412V10.6765L27.1154 11.1176L28 12L28.0385 13L28 15L26.6538 16.8529L24.8077 18.1765L21.1154 19.0588L16.5 20L11.4231 19.5L8.19231 19.0588L6.34615 17.7353L4.96154 16.4118L4.5 15.0882V13.7647L5.88462 12.4412L8.19231 11.5588L11.4231 10.6765Z" fill="#B5C7D8"/>
<mask id="path-2-outside-1_147_134" maskUnits="userSpaceOnUse" x="3.2666" y="3.12134" width="26" height="18" fill="black">
<rect fill="white" x="3.2666" y="3.12134" width="26" height="18"/>
<path d="M19.3888 4.24587C17.5207 4.46421 15.6851 5.2001 14.4397 6.22711C13.906 6.67997 13.162 7.67464 12.9194 8.29732C12.7011 8.83104 12.4504 9.89849 12.4504 10.2543V10.4484L11.6498 10.408C11.0514 10.3837 10.6956 10.408 10.2508 10.5131C9.53106 10.6829 7.27486 11.5239 6.54706 11.8878C5.05101 12.6399 4.2666 13.6831 4.2666 14.9203C4.2666 16.7156 5.98099 18.3815 8.73048 19.2467C11.0028 19.9584 16.0085 20.3385 18.5963 19.9907C21.6045 19.5783 22.5507 19.3438 24.0548 18.6079C25.8582 17.7184 27.5402 16.3598 28.0092 15.3975C28.6077 14.1602 28.454 12.3892 27.6534 11.3703C27.2006 10.7961 26.772 10.6182 25.373 10.4322L24.9929 10.3837L25.2274 9.92275C25.5185 9.33242 25.753 8.56418 25.8663 7.80403C26.0199 6.76893 25.753 5.87938 25.1223 5.32949C24.6532 4.92515 23.7718 4.52081 23.0036 4.36717C22.2353 4.21352 20.2702 4.14883 19.3888 4.24587ZM22.769 4.7715C24.16 5.01411 25.1465 5.6853 25.3891 6.55058C25.656 7.49673 25.2597 9.08173 24.4349 10.408C24.3459 10.5535 24.3298 10.6586 24.3783 10.7072C24.4268 10.7476 24.8231 10.8204 25.2678 10.877C26.5132 11.0145 26.8528 11.1358 27.241 11.5724C27.7666 12.1789 27.9203 12.6803 27.8798 13.7882C27.8394 15.0012 27.71 15.2923 26.8205 16.1738C25.656 17.3221 23.7071 18.4623 22.1383 18.9152C21.3943 19.1254 19.3483 19.4651 17.9574 19.6106C15.7174 19.829 11.8924 19.554 9.56341 19.0041C5.13997 17.9529 3.24767 14.7344 5.89203 12.7855C6.83009 12.0981 9.95157 10.9174 11.0756 10.8285C11.8358 10.7719 12.321 10.8689 12.3533 11.0792C12.4261 11.5563 12.4585 11.6129 12.6364 11.5886C12.7738 11.5724 12.8143 11.5077 12.8143 11.3218C12.8224 11.0953 12.8385 11.0792 13.1054 11.1034C13.4855 11.1358 13.6957 10.9174 13.4612 10.7476C13.3803 10.6829 13.2105 10.6344 13.0811 10.6344C12.8143 10.6344 12.8143 10.6344 12.976 9.71249C13.2348 8.24071 13.8655 7.2137 15.0786 6.29181C15.9762 5.61252 17.4884 4.99793 18.7661 4.77959C19.7123 4.61786 21.8714 4.61786 22.769 4.7715Z"/>
</mask>
<path d="M19.3888 4.24587C17.5207 4.46421 15.6851 5.2001 14.4397 6.22711C13.906 6.67997 13.162 7.67464 12.9194 8.29732C12.7011 8.83104 12.4504 9.89849 12.4504 10.2543V10.4484L11.6498 10.408C11.0514 10.3837 10.6956 10.408 10.2508 10.5131C9.53106 10.6829 7.27486 11.5239 6.54706 11.8878C5.05101 12.6399 4.2666 13.6831 4.2666 14.9203C4.2666 16.7156 5.98099 18.3815 8.73048 19.2467C11.0028 19.9584 16.0085 20.3385 18.5963 19.9907C21.6045 19.5783 22.5507 19.3438 24.0548 18.6079C25.8582 17.7184 27.5402 16.3598 28.0092 15.3975C28.6077 14.1602 28.454 12.3892 27.6534 11.3703C27.2006 10.7961 26.772 10.6182 25.373 10.4322L24.9929 10.3837L25.2274 9.92275C25.5185 9.33242 25.753 8.56418 25.8663 7.80403C26.0199 6.76893 25.753 5.87938 25.1223 5.32949C24.6532 4.92515 23.7718 4.52081 23.0036 4.36717C22.2353 4.21352 20.2702 4.14883 19.3888 4.24587ZM22.769 4.7715C24.16 5.01411 25.1465 5.6853 25.3891 6.55058C25.656 7.49673 25.2597 9.08173 24.4349 10.408C24.3459 10.5535 24.3298 10.6586 24.3783 10.7072C24.4268 10.7476 24.8231 10.8204 25.2678 10.877C26.5132 11.0145 26.8528 11.1358 27.241 11.5724C27.7666 12.1789 27.9203 12.6803 27.8798 13.7882C27.8394 15.0012 27.71 15.2923 26.8205 16.1738C25.656 17.3221 23.7071 18.4623 22.1383 18.9152C21.3943 19.1254 19.3483 19.4651 17.9574 19.6106C15.7174 19.829 11.8924 19.554 9.56341 19.0041C5.13997 17.9529 3.24767 14.7344 5.89203 12.7855C6.83009 12.0981 9.95157 10.9174 11.0756 10.8285C11.8358 10.7719 12.321 10.8689 12.3533 11.0792C12.4261 11.5563 12.4585 11.6129 12.6364 11.5886C12.7738 11.5724 12.8143 11.5077 12.8143 11.3218C12.8224 11.0953 12.8385 11.0792 13.1054 11.1034C13.4855 11.1358 13.6957 10.9174 13.4612 10.7476C13.3803 10.6829 13.2105 10.6344 13.0811 10.6344C12.8143 10.6344 12.8143 10.6344 12.976 9.71249C13.2348 8.24071 13.8655 7.2137 15.0786 6.29181C15.9762 5.61252 17.4884 4.99793 18.7661 4.77959C19.7123 4.61786 21.8714 4.61786 22.769 4.7715Z" fill="black"/>
<path d="M19.3888 4.24587C17.5207 4.46421 15.6851 5.2001 14.4397 6.22711C13.906 6.67997 13.162 7.67464 12.9194 8.29732C12.7011 8.83104 12.4504 9.89849 12.4504 10.2543V10.4484L11.6498 10.408C11.0514 10.3837 10.6956 10.408 10.2508 10.5131C9.53106 10.6829 7.27486 11.5239 6.54706 11.8878C5.05101 12.6399 4.2666 13.6831 4.2666 14.9203C4.2666 16.7156 5.98099 18.3815 8.73048 19.2467C11.0028 19.9584 16.0085 20.3385 18.5963 19.9907C21.6045 19.5783 22.5507 19.3438 24.0548 18.6079C25.8582 17.7184 27.5402 16.3598 28.0092 15.3975C28.6077 14.1602 28.454 12.3892 27.6534 11.3703C27.2006 10.7961 26.772 10.6182 25.373 10.4322L24.9929 10.3837L25.2274 9.92275C25.5185 9.33242 25.753 8.56418 25.8663 7.80403C26.0199 6.76893 25.753 5.87938 25.1223 5.32949C24.6532 4.92515 23.7718 4.52081 23.0036 4.36717C22.2353 4.21352 20.2702 4.14883 19.3888 4.24587ZM22.769 4.7715C24.16 5.01411 25.1465 5.6853 25.3891 6.55058C25.656 7.49673 25.2597 9.08173 24.4349 10.408C24.3459 10.5535 24.3298 10.6586 24.3783 10.7072C24.4268 10.7476 24.8231 10.8204 25.2678 10.877C26.5132 11.0145 26.8528 11.1358 27.241 11.5724C27.7666 12.1789 27.9203 12.6803 27.8798 13.7882C27.8394 15.0012 27.71 15.2923 26.8205 16.1738C25.656 17.3221 23.7071 18.4623 22.1383 18.9152C21.3943 19.1254 19.3483 19.4651 17.9574 19.6106C15.7174 19.829 11.8924 19.554 9.56341 19.0041C5.13997 17.9529 3.24767 14.7344 5.89203 12.7855C6.83009 12.0981 9.95157 10.9174 11.0756 10.8285C11.8358 10.7719 12.321 10.8689 12.3533 11.0792C12.4261 11.5563 12.4585 11.6129 12.6364 11.5886C12.7738 11.5724 12.8143 11.5077 12.8143 11.3218C12.8224 11.0953 12.8385 11.0792 13.1054 11.1034C13.4855 11.1358 13.6957 10.9174 13.4612 10.7476C13.3803 10.6829 13.2105 10.6344 13.0811 10.6344C12.8143 10.6344 12.8143 10.6344 12.976 9.71249C13.2348 8.24071 13.8655 7.2137 15.0786 6.29181C15.9762 5.61252 17.4884 4.99793 18.7661 4.77959C19.7123 4.61786 21.8714 4.61786 22.769 4.7715Z" stroke="black" stroke-width="0.4" mask="url(#path-2-outside-1_147_134)"/>
<mask id="path-3-outside-2_147_134" maskUnits="userSpaceOnUse" x="20.9399" y="20.2546" width="3" height="3" fill="black">
<rect fill="white" x="20.9399" y="20.2546" width="3" height="3"/>
<path d="M22.5912 20.573C22.4456 20.662 22.2353 20.856 22.1221 21.0097C21.9281 21.2604 21.9119 21.3332 21.9685 21.6809C22.0494 22.1337 22.2758 22.3116 22.672 22.2389C23.4241 22.1014 23.8689 21.2038 23.4322 20.7105C23.1734 20.4274 22.8985 20.3789 22.5912 20.573ZM23.1087 21.0016C23.2543 21.1472 23.23 21.2685 22.9955 21.5434C22.7125 21.883 22.3971 21.8911 22.3971 21.5596C22.3971 21.317 22.7125 20.9046 22.9065 20.9046C22.9632 20.9046 23.0521 20.945 23.1087 21.0016Z"/>
</mask>
<path d="M22.5912 20.573C22.4456 20.662 22.2353 20.856 22.1221 21.0097C21.9281 21.2604 21.9119 21.3332 21.9685 21.6809C22.0494 22.1337 22.2758 22.3116 22.672 22.2389C23.4241 22.1014 23.8689 21.2038 23.4322 20.7105C23.1734 20.4274 22.8985 20.3789 22.5912 20.573ZM23.1087 21.0016C23.2543 21.1472 23.23 21.2685 22.9955 21.5434C22.7125 21.883 22.3971 21.8911 22.3971 21.5596C22.3971 21.317 22.7125 20.9046 22.9065 20.9046C22.9632 20.9046 23.0521 20.945 23.1087 21.0016Z" fill="black"/>
<path d="M22.5912 20.573C22.4456 20.662 22.2353 20.856 22.1221 21.0097C21.9281 21.2604 21.9119 21.3332 21.9685 21.6809C22.0494 22.1337 22.2758 22.3116 22.672 22.2389C23.4241 22.1014 23.8689 21.2038 23.4322 20.7105C23.1734 20.4274 22.8985 20.3789 22.5912 20.573ZM23.1087 21.0016C23.2543 21.1472 23.23 21.2685 22.9955 21.5434C22.7125 21.883 22.3971 21.8911 22.3971 21.5596C22.3971 21.317 22.7125 20.9046 22.9065 20.9046C22.9632 20.9046 23.0521 20.945 23.1087 21.0016Z" stroke="black" stroke-width="0.4" mask="url(#path-3-outside-2_147_134)"/>
<mask id="path-4-outside-3_147_134" maskUnits="userSpaceOnUse" x="16.5016" y="20.8821" width="3" height="4" fill="black">
<rect fill="white" x="16.5016" y="20.8821" width="3" height="4"/>
<path d="M17.8281 21.5514C17.5289 21.7536 17.4884 21.8668 17.5046 22.5299C17.545 23.84 18.4103 24.3656 18.8551 23.3467C19.3726 22.1822 18.6934 20.9773 17.8281 21.5514ZM18.5155 22.0285C18.7095 22.3924 18.4993 23.4761 18.2567 23.3952C17.9736 23.2982 17.8362 22.3763 18.0464 22.0366C18.1758 21.8345 18.4022 21.8264 18.5155 22.0285Z"/>
</mask>
<path d="M17.8281 21.5514C17.5289 21.7536 17.4884 21.8668 17.5046 22.5299C17.545 23.84 18.4103 24.3656 18.8551 23.3467C19.3726 22.1822 18.6934 20.9773 17.8281 21.5514ZM18.5155 22.0285C18.7095 22.3924 18.4993 23.4761 18.2567 23.3952C17.9736 23.2982 17.8362 22.3763 18.0464 22.0366C18.1758 21.8345 18.4022 21.8264 18.5155 22.0285Z" fill="black"/>
<path d="M17.8281 21.5514C17.5289 21.7536 17.4884 21.8668 17.5046 22.5299C17.545 23.84 18.4103 24.3656 18.8551 23.3467C19.3726 22.1822 18.6934 20.9773 17.8281 21.5514ZM18.5155 22.0285C18.7095 22.3924 18.4993 23.4761 18.2567 23.3952C17.9736 23.2982 17.8362 22.3763 18.0464 22.0366C18.1758 21.8345 18.4022 21.8264 18.5155 22.0285Z" stroke="black" stroke-width="0.4" mask="url(#path-4-outside-3_147_134)"/>
<mask id="path-5-outside-4_147_134" maskUnits="userSpaceOnUse" x="10.2373" y="20.8157" width="4" height="4" fill="black">
<rect fill="white" x="10.2373" y="20.8157" width="4" height="4"/>
<path d="M11.7144 21.5918C11.4152 21.7536 11.2373 22.1822 11.2373 22.724C11.2373 23.1526 11.2616 23.2092 11.5527 23.5003C11.8034 23.751 11.9247 23.8157 12.1592 23.8157C12.604 23.8157 12.9274 23.6135 13.1053 23.2253C13.2994 22.7887 13.2994 22.6512 13.0892 22.2307C12.8223 21.6646 12.143 21.3492 11.7144 21.5918ZM12.5393 22.1902C12.8466 22.4975 12.8627 22.9261 12.5716 23.2092C12.3371 23.4518 12.1268 23.4679 11.8762 23.2577C11.7144 23.1283 11.6821 23.0232 11.6821 22.6835C11.6821 22.3439 11.7144 22.2388 11.8762 22.1094C12.1349 21.8991 12.2643 21.9153 12.5393 22.1902Z"/>
</mask>
<path d="M11.7144 21.5918C11.4152 21.7536 11.2373 22.1822 11.2373 22.724C11.2373 23.1526 11.2616 23.2092 11.5527 23.5003C11.8034 23.751 11.9247 23.8157 12.1592 23.8157C12.604 23.8157 12.9274 23.6135 13.1053 23.2253C13.2994 22.7887 13.2994 22.6512 13.0892 22.2307C12.8223 21.6646 12.143 21.3492 11.7144 21.5918ZM12.5393 22.1902C12.8466 22.4975 12.8627 22.9261 12.5716 23.2092C12.3371 23.4518 12.1268 23.4679 11.8762 23.2577C11.7144 23.1283 11.6821 23.0232 11.6821 22.6835C11.6821 22.3439 11.7144 22.2388 11.8762 22.1094C12.1349 21.8991 12.2643 21.9153 12.5393 22.1902Z" fill="black"/>
<path d="M11.7144 21.5918C11.4152 21.7536 11.2373 22.1822 11.2373 22.724C11.2373 23.1526 11.2616 23.2092 11.5527 23.5003C11.8034 23.751 11.9247 23.8157 12.1592 23.8157C12.604 23.8157 12.9274 23.6135 13.1053 23.2253C13.2994 22.7887 13.2994 22.6512 13.0892 22.2307C12.8223 21.6646 12.143 21.3492 11.7144 21.5918ZM12.5393 22.1902C12.8466 22.4975 12.8627 22.9261 12.5716 23.2092C12.3371 23.4518 12.1268 23.4679 11.8762 23.2577C11.7144 23.1283 11.6821 23.0232 11.6821 22.6835C11.6821 22.3439 11.7144 22.2388 11.8762 22.1094C12.1349 21.8991 12.2643 21.9153 12.5393 22.1902Z" stroke="black" stroke-width="0.4" mask="url(#path-5-outside-4_147_134)"/>
<mask id="path-6-outside-5_147_134" maskUnits="userSpaceOnUse" x="19" y="23" width="4" height="4" fill="black">
<rect fill="white" x="19" y="23" width="4" height="4"/>
<path d="M20.3614 24.27C20.0969 24.5614 19.9341 25.1162 20.0257 25.3888C20.1172 25.6333 20.7683 26 21.1244 26C21.511 26 21.8772 25.6427 21.9789 25.1632C22.0603 24.7307 21.9077 24.4204 21.4906 24.1853C21.0125 23.9127 20.6666 23.9409 20.3614 24.27ZM21.4499 24.8059C21.511 24.9657 21.3685 25.3606 21.2159 25.4547C20.8294 25.6709 20.4631 25.088 20.748 24.6931C20.8802 24.505 20.9311 24.4862 21.1549 24.5802C21.2872 24.6366 21.4194 24.7401 21.4499 24.8059Z"/>
</mask>
<path d="M20.3614 24.27C20.0969 24.5614 19.9341 25.1162 20.0257 25.3888C20.1172 25.6333 20.7683 26 21.1244 26C21.511 26 21.8772 25.6427 21.9789 25.1632C22.0603 24.7307 21.9077 24.4204 21.4906 24.1853C21.0125 23.9127 20.6666 23.9409 20.3614 24.27ZM21.4499 24.8059C21.511 24.9657 21.3685 25.3606 21.2159 25.4547C20.8294 25.6709 20.4631 25.088 20.748 24.6931C20.8802 24.505 20.9311 24.4862 21.1549 24.5802C21.2872 24.6366 21.4194 24.7401 21.4499 24.8059Z" fill="black"/>
<path d="M20.3614 24.27C20.0969 24.5614 19.9341 25.1162 20.0257 25.3888C20.1172 25.6333 20.7683 26 21.1244 26C21.511 26 21.8772 25.6427 21.9789 25.1632C22.0603 24.7307 21.9077 24.4204 21.4906 24.1853C21.0125 23.9127 20.6666 23.9409 20.3614 24.27ZM21.4499 24.8059C21.511 24.9657 21.3685 25.3606 21.2159 25.4547C20.8294 25.6709 20.4631 25.088 20.748 24.6931C20.8802 24.505 20.9311 24.4862 21.1549 24.5802C21.2872 24.6366 21.4194 24.7401 21.4499 24.8059Z" stroke="black" stroke-width="0.4" mask="url(#path-6-outside-5_147_134)"/>
<mask id="path-7-outside-6_147_134" maskUnits="userSpaceOnUse" x="13.2764" y="23.6443" width="4" height="4" fill="black">
<rect fill="white" x="13.2764" y="23.6443" width="4" height="4"/>
<path d="M14.9086 24.7781C14.3183 25.1339 14.1242 25.6191 14.3991 26.0153C14.7631 26.5248 15.1836 26.727 15.6364 26.6138C16.0731 26.5005 16.3885 25.6272 16.1701 25.1096C15.9761 24.6487 15.3776 24.495 14.9086 24.7781ZM15.6849 25.1905C15.7739 25.2794 15.8467 25.4088 15.8467 25.4735C15.8467 25.6838 15.6202 26.1609 15.4909 26.2094C15.321 26.2741 14.8763 26.0153 14.8763 25.8536C14.8763 25.7808 14.852 25.6434 14.8277 25.5463C14.7954 25.4169 14.8439 25.3361 15.0542 25.2067C15.3857 24.9883 15.4828 24.9883 15.6849 25.1905Z"/>
</mask>
<path d="M14.9086 24.7781C14.3183 25.1339 14.1242 25.6191 14.3991 26.0153C14.7631 26.5248 15.1836 26.727 15.6364 26.6138C16.0731 26.5005 16.3885 25.6272 16.1701 25.1096C15.9761 24.6487 15.3776 24.495 14.9086 24.7781ZM15.6849 25.1905C15.7739 25.2794 15.8467 25.4088 15.8467 25.4735C15.8467 25.6838 15.6202 26.1609 15.4909 26.2094C15.321 26.2741 14.8763 26.0153 14.8763 25.8536C14.8763 25.7808 14.852 25.6434 14.8277 25.5463C14.7954 25.4169 14.8439 25.3361 15.0542 25.2067C15.3857 24.9883 15.4828 24.9883 15.6849 25.1905Z" fill="black"/>
<path d="M14.9086 24.7781C14.3183 25.1339 14.1242 25.6191 14.3991 26.0153C14.7631 26.5248 15.1836 26.727 15.6364 26.6138C16.0731 26.5005 16.3885 25.6272 16.1701 25.1096C15.9761 24.6487 15.3776 24.495 14.9086 24.7781ZM15.6849 25.1905C15.7739 25.2794 15.8467 25.4088 15.8467 25.4735C15.8467 25.6838 15.6202 26.1609 15.4909 26.2094C15.321 26.2741 14.8763 26.0153 14.8763 25.8536C14.8763 25.7808 14.852 25.6434 14.8277 25.5463C14.7954 25.4169 14.8439 25.3361 15.0542 25.2067C15.3857 24.9883 15.4828 24.9883 15.6849 25.1905Z" stroke="black" stroke-width="0.4" mask="url(#path-7-outside-6_147_134)"/>
<mask id="path-8-outside-7_147_134" maskUnits="userSpaceOnUse" x="16" y="27" width="4" height="4" fill="black">
<rect fill="white" x="16" y="27" width="4" height="4"/>
<path d="M17.7652 28.1638C17.6578 28.2488 17.4788 28.3445 17.3625 28.3658C16.8883 28.4828 16.8793 29.0463 17.3357 29.578C17.6757 29.9715 18.1857 30.1097 18.5079 29.9077C18.7584 29.7482 19 29.2058 19 28.8018C19 28.1531 18.2394 27.7597 17.7652 28.1638ZM18.4452 28.8549C18.4721 29.1208 18.2752 29.4823 18.1052 29.4823C18.0694 29.4823 17.9441 29.3973 17.8368 29.2909L17.6399 29.1101L17.8726 28.8124C18.1589 28.4509 18.4094 28.4721 18.4452 28.8549Z"/>
</mask>
<path d="M17.7652 28.1638C17.6578 28.2488 17.4788 28.3445 17.3625 28.3658C16.8883 28.4828 16.8793 29.0463 17.3357 29.578C17.6757 29.9715 18.1857 30.1097 18.5079 29.9077C18.7584 29.7482 19 29.2058 19 28.8018C19 28.1531 18.2394 27.7597 17.7652 28.1638ZM18.4452 28.8549C18.4721 29.1208 18.2752 29.4823 18.1052 29.4823C18.0694 29.4823 17.9441 29.3973 17.8368 29.2909L17.6399 29.1101L17.8726 28.8124C18.1589 28.4509 18.4094 28.4721 18.4452 28.8549Z" fill="black"/>
<path d="M17.7652 28.1638C17.6578 28.2488 17.4788 28.3445 17.3625 28.3658C16.8883 28.4828 16.8793 29.0463 17.3357 29.578C17.6757 29.9715 18.1857 30.1097 18.5079 29.9077C18.7584 29.7482 19 29.2058 19 28.8018C19 28.1531 18.2394 27.7597 17.7652 28.1638ZM18.4452 28.8549C18.4721 29.1208 18.2752 29.4823 18.1052 29.4823C18.0694 29.4823 17.9441 29.3973 17.8368 29.2909L17.6399 29.1101L17.8726 28.8124C18.1589 28.4509 18.4094 28.4721 18.4452 28.8549Z" stroke="black" stroke-width="0.4" mask="url(#path-8-outside-7_147_134)"/>
</svg>
