<svg width="32" height="32" viewBox="0 0 32 32" fill="none" xmlns="http://www.w3.org/2000/svg">
<path d="M10 11L12.5 9.5H15L19 10.5L21.5 12.5L23 14.5V17.5L22 20.5L20 22L16.5 24H14L11.5 23.5L9.5 21.5L8 18L8.5 14.5L10 11Z" fill="#E8B952"/>
<mask id="path-2-outside-1_147_103" maskUnits="userSpaceOnUse" x="2.19995" y="2.19995" width="26" height="27" fill="black">
<rect fill="white" x="2.19995" y="2.19995" width="26" height="27"/>
<path d="M17.1814 3.60201C17.2008 3.51573 17.2147 3.4537 17.2218 3.42281C17.2717 3.16351 17.7005 3.11365 17.8002 3.36297C17.9099 3.65218 17.8601 4.13088 17.7105 4.24058C17.5709 4.34031 17.152 6.03571 16.8528 7.69121C16.7331 8.33944 16.6833 8.43917 16.4938 8.46909C16.3043 8.49901 16.2644 8.45912 16.2644 8.2098C16.2644 7.82085 16.5038 6.56427 16.8728 4.94866C17.0019 4.4017 17.1195 3.87788 17.1814 3.60201Z"/>
<path d="M22.5873 11.5508C22.8166 11.0322 23.4848 10.2044 24.5619 9.1074C25.26 8.40929 25.649 8.09016 25.8085 8.09016C26.2274 8.09016 26.0479 8.38935 25.0107 9.41656C23.8638 10.5535 23.046 11.6305 23.046 12.0095C23.046 12.3087 22.8067 12.4284 22.5972 12.2189C22.4078 12.0295 22.4078 11.9596 22.5873 11.5508Z"/>
<path d="M4.06753 8.90791C3.94785 9.24699 4.3368 9.63594 6.17181 11.0521C7.14915 11.81 7.52812 11.9596 7.46829 11.5607C7.44834 11.4211 7.07934 11.072 6.45105 10.5933C5.90254 10.1745 5.21441 9.59604 4.91522 9.30683C4.37669 8.78824 4.15728 8.67854 4.06753 8.90791Z"/>
<path fill-rule="evenodd" clip-rule="evenodd" d="M9.48281 11.2615C9.48281 10.8128 11.258 9.70578 12.5744 9.33678C13.3623 9.11738 15.5563 9.19716 16.5436 9.4764C19.1266 10.2244 20.7821 11.0721 21.7395 12.1491C23.046 13.6152 23.5945 15.7294 23.2055 17.7838C22.6869 20.4865 21.1611 22.3913 18.4484 23.6978C17.2018 24.2961 16.3142 24.4856 14.9679 24.4158C13.6914 24.346 12.9933 24.1665 11.8065 23.598C9.20357 22.3414 8.05669 20.4765 7.91707 17.3151C7.83728 15.4601 8.16639 14.0041 9.044 12.2688C9.28335 11.8001 9.48281 11.3513 9.48281 11.2615ZM19.5355 11.1618C18.4086 10.6033 16.2245 9.90523 15.2671 9.78556C14.1003 9.64594 13.5318 9.66589 12.724 9.88529C12.345 9.98502 11.996 10.0748 11.9661 10.0748C11.9262 10.0847 11.8763 10.1745 11.8464 10.2842C11.8165 10.3939 11.6768 10.5036 11.5173 10.5335C10.6895 10.7031 10.2607 11.1419 9.54265 12.4982C8.17636 15.0812 8.04671 18.1827 9.20357 20.5563C9.98146 22.1619 12.1256 23.4983 14.4593 23.8573C15.7558 24.0568 16.8428 23.8573 18.3188 23.1393C20.084 22.2916 21.3206 21.1247 22.0387 19.6188C23.026 17.5744 23.036 15.3704 22.0786 13.5453C21.6099 12.6578 20.5328 11.6405 19.5355 11.1618Z"/>
<path d="M23.4749 19.0206C23.3752 19.2799 23.6444 19.4294 24.9409 19.8383C25.629 20.0577 26.4668 20.337 26.7959 20.4567C27.3843 20.6761 27.7333 20.6761 27.7333 20.4567C27.7333 20.2672 27.115 19.978 25.6589 19.4993C24.8511 19.24 24.153 18.9906 24.1032 18.9408C23.9336 18.8012 23.5447 18.851 23.4749 19.0206Z"/>
<path d="M3.19995 22.2516C3.19995 22.0223 3.30965 21.9624 4.79562 21.3441C6.00234 20.8355 6.33144 20.7657 6.4212 20.9951C6.50098 21.2045 6.39128 21.2643 4.88537 21.8926C3.39941 22.501 3.19995 22.5508 3.19995 22.2516Z"/>
<path d="M20.6325 23.4584C20.5328 23.5083 20.453 23.638 20.453 23.7377C20.453 23.9272 22.0786 26.2409 22.308 26.3705C22.4775 26.4703 22.647 26.3805 22.647 26.181C22.647 26.1112 22.308 25.5727 21.8991 24.9943C21.4802 24.3959 21.1511 23.8374 21.1511 23.7078C21.1511 23.5781 21.0813 23.4385 20.9915 23.4086C20.9712 23.4011 20.9535 23.3943 20.9378 23.3882C20.8851 23.368 20.8557 23.3567 20.8269 23.3581C20.7905 23.3599 20.7551 23.382 20.6749 23.4321C20.662 23.4401 20.6479 23.4489 20.6325 23.4584Z"/>
<path d="M11.4476 28.794C11.3379 28.5247 12.2255 25.2935 12.4848 24.9844C12.6443 24.7949 13.0632 24.8048 13.143 25.0043C13.1829 25.104 13.123 25.2337 13.0033 25.3334C12.8139 25.483 12.1756 27.4078 12.016 28.3352C11.9163 28.8838 11.5772 29.1431 11.4476 28.794Z"/>
</mask>
<path d="M17.1814 3.60201C17.2008 3.51573 17.2147 3.4537 17.2218 3.42281C17.2717 3.16351 17.7005 3.11365 17.8002 3.36297C17.9099 3.65218 17.8601 4.13088 17.7105 4.24058C17.5709 4.34031 17.152 6.03571 16.8528 7.69121C16.7331 8.33944 16.6833 8.43917 16.4938 8.46909C16.3043 8.49901 16.2644 8.45912 16.2644 8.2098C16.2644 7.82085 16.5038 6.56427 16.8728 4.94866C17.0019 4.4017 17.1195 3.87788 17.1814 3.60201Z" fill="black"/>
<path d="M22.5873 11.5508C22.8166 11.0322 23.4848 10.2044 24.5619 9.1074C25.26 8.40929 25.649 8.09016 25.8085 8.09016C26.2274 8.09016 26.0479 8.38935 25.0107 9.41656C23.8638 10.5535 23.046 11.6305 23.046 12.0095C23.046 12.3087 22.8067 12.4284 22.5972 12.2189C22.4078 12.0295 22.4078 11.9596 22.5873 11.5508Z" fill="black"/>
<path d="M4.06753 8.90791C3.94785 9.24699 4.3368 9.63594 6.17181 11.0521C7.14915 11.81 7.52812 11.9596 7.46829 11.5607C7.44834 11.4211 7.07934 11.072 6.45105 10.5933C5.90254 10.1745 5.21441 9.59604 4.91522 9.30683C4.37669 8.78824 4.15728 8.67854 4.06753 8.90791Z" fill="black"/>
<path fill-rule="evenodd" clip-rule="evenodd" d="M9.48281 11.2615C9.48281 10.8128 11.258 9.70578 12.5744 9.33678C13.3623 9.11738 15.5563 9.19716 16.5436 9.4764C19.1266 10.2244 20.7821 11.0721 21.7395 12.1491C23.046 13.6152 23.5945 15.7294 23.2055 17.7838C22.6869 20.4865 21.1611 22.3913 18.4484 23.6978C17.2018 24.2961 16.3142 24.4856 14.9679 24.4158C13.6914 24.346 12.9933 24.1665 11.8065 23.598C9.20357 22.3414 8.05669 20.4765 7.91707 17.3151C7.83728 15.4601 8.16639 14.0041 9.044 12.2688C9.28335 11.8001 9.48281 11.3513 9.48281 11.2615ZM19.5355 11.1618C18.4086 10.6033 16.2245 9.90523 15.2671 9.78556C14.1003 9.64594 13.5318 9.66589 12.724 9.88529C12.345 9.98502 11.996 10.0748 11.9661 10.0748C11.9262 10.0847 11.8763 10.1745 11.8464 10.2842C11.8165 10.3939 11.6768 10.5036 11.5173 10.5335C10.6895 10.7031 10.2607 11.1419 9.54265 12.4982C8.17636 15.0812 8.04671 18.1827 9.20357 20.5563C9.98146 22.1619 12.1256 23.4983 14.4593 23.8573C15.7558 24.0568 16.8428 23.8573 18.3188 23.1393C20.084 22.2916 21.3206 21.1247 22.0387 19.6188C23.026 17.5744 23.036 15.3704 22.0786 13.5453C21.6099 12.6578 20.5328 11.6405 19.5355 11.1618Z" fill="black"/>
<path d="M23.4749 19.0206C23.3752 19.2799 23.6444 19.4294 24.9409 19.8383C25.629 20.0577 26.4668 20.337 26.7959 20.4567C27.3843 20.6761 27.7333 20.6761 27.7333 20.4567C27.7333 20.2672 27.115 19.978 25.6589 19.4993C24.8511 19.24 24.153 18.9906 24.1032 18.9408C23.9336 18.8012 23.5447 18.851 23.4749 19.0206Z" fill="black"/>
<path d="M3.19995 22.2516C3.19995 22.0223 3.30965 21.9624 4.79562 21.3441C6.00234 20.8355 6.33144 20.7657 6.4212 20.9951C6.50098 21.2045 6.39128 21.2643 4.88537 21.8926C3.39941 22.501 3.19995 22.5508 3.19995 22.2516Z" fill="black"/>
<path d="M20.6325 23.4584C20.5328 23.5083 20.453 23.638 20.453 23.7377C20.453 23.9272 22.0786 26.2409 22.308 26.3705C22.4775 26.4703 22.647 26.3805 22.647 26.181C22.647 26.1112 22.308 25.5727 21.8991 24.9943C21.4802 24.3959 21.1511 23.8374 21.1511 23.7078C21.1511 23.5781 21.0813 23.4385 20.9915 23.4086C20.9712 23.4011 20.9535 23.3943 20.9378 23.3882C20.8851 23.368 20.8557 23.3567 20.8269 23.3581C20.7905 23.3599 20.7551 23.382 20.6749 23.4321C20.662 23.4401 20.6479 23.4489 20.6325 23.4584Z" fill="black"/>
<path d="M11.4476 28.794C11.3379 28.5247 12.2255 25.2935 12.4848 24.9844C12.6443 24.7949 13.0632 24.8048 13.143 25.0043C13.1829 25.104 13.123 25.2337 13.0033 25.3334C12.8139 25.483 12.1756 27.4078 12.016 28.3352C11.9163 28.8838 11.5772 29.1431 11.4476 28.794Z" fill="black"/>
<path d="M17.1814 3.60201C17.2008 3.51573 17.2147 3.4537 17.2218 3.42281C17.2717 3.16351 17.7005 3.11365 17.8002 3.36297C17.9099 3.65218 17.8601 4.13088 17.7105 4.24058C17.5709 4.34031 17.152 6.03571 16.8528 7.69121C16.7331 8.33944 16.6833 8.43917 16.4938 8.46909C16.3043 8.49901 16.2644 8.45912 16.2644 8.2098C16.2644 7.82085 16.5038 6.56427 16.8728 4.94866C17.0019 4.4017 17.1195 3.87788 17.1814 3.60201Z" stroke="black" stroke-width="0.4" mask="url(#path-2-outside-1_147_103)"/>
<path d="M22.5873 11.5508C22.8166 11.0322 23.4848 10.2044 24.5619 9.1074C25.26 8.40929 25.649 8.09016 25.8085 8.09016C26.2274 8.09016 26.0479 8.38935 25.0107 9.41656C23.8638 10.5535 23.046 11.6305 23.046 12.0095C23.046 12.3087 22.8067 12.4284 22.5972 12.2189C22.4078 12.0295 22.4078 11.9596 22.5873 11.5508Z" stroke="black" stroke-width="0.4" mask="url(#path-2-outside-1_147_103)"/>
<path d="M4.06753 8.90791C3.94785 9.24699 4.3368 9.63594 6.17181 11.0521C7.14915 11.81 7.52812 11.9596 7.46829 11.5607C7.44834 11.4211 7.07934 11.072 6.45105 10.5933C5.90254 10.1745 5.21441 9.59604 4.91522 9.30683C4.37669 8.78824 4.15728 8.67854 4.06753 8.90791Z" stroke="black" stroke-width="0.4" mask="url(#path-2-outside-1_147_103)"/>
<path fill-rule="evenodd" clip-rule="evenodd" d="M9.48281 11.2615C9.48281 10.8128 11.258 9.70578 12.5744 9.33678C13.3623 9.11738 15.5563 9.19716 16.5436 9.4764C19.1266 10.2244 20.7821 11.0721 21.7395 12.1491C23.046 13.6152 23.5945 15.7294 23.2055 17.7838C22.6869 20.4865 21.1611 22.3913 18.4484 23.6978C17.2018 24.2961 16.3142 24.4856 14.9679 24.4158C13.6914 24.346 12.9933 24.1665 11.8065 23.598C9.20357 22.3414 8.05669 20.4765 7.91707 17.3151C7.83728 15.4601 8.16639 14.0041 9.044 12.2688C9.28335 11.8001 9.48281 11.3513 9.48281 11.2615ZM19.5355 11.1618C18.4086 10.6033 16.2245 9.90523 15.2671 9.78556C14.1003 9.64594 13.5318 9.66589 12.724 9.88529C12.345 9.98502 11.996 10.0748 11.9661 10.0748C11.9262 10.0847 11.8763 10.1745 11.8464 10.2842C11.8165 10.3939 11.6768 10.5036 11.5173 10.5335C10.6895 10.7031 10.2607 11.1419 9.54265 12.4982C8.17636 15.0812 8.04671 18.1827 9.20357 20.5563C9.98146 22.1619 12.1256 23.4983 14.4593 23.8573C15.7558 24.0568 16.8428 23.8573 18.3188 23.1393C20.084 22.2916 21.3206 21.1247 22.0387 19.6188C23.026 17.5744 23.036 15.3704 22.0786 13.5453C21.6099 12.6578 20.5328 11.6405 19.5355 11.1618Z" stroke="black" stroke-width="0.4" mask="url(#path-2-outside-1_147_103)"/>
<path d="M23.4749 19.0206C23.3752 19.2799 23.6444 19.4294 24.9409 19.8383C25.629 20.0577 26.4668 20.337 26.7959 20.4567C27.3843 20.6761 27.7333 20.6761 27.7333 20.4567C27.7333 20.2672 27.115 19.978 25.6589 19.4993C24.8511 19.24 24.153 18.9906 24.1032 18.9408C23.9336 18.8012 23.5447 18.851 23.4749 19.0206Z" stroke="black" stroke-width="0.4" mask="url(#path-2-outside-1_147_103)"/>
<path d="M3.19995 22.2516C3.19995 22.0223 3.30965 21.9624 4.79562 21.3441C6.00234 20.8355 6.33144 20.7657 6.4212 20.9951C6.50098 21.2045 6.39128 21.2643 4.88537 21.8926C3.39941 22.501 3.19995 22.5508 3.19995 22.2516Z" stroke="black" stroke-width="0.4" mask="url(#path-2-outside-1_147_103)"/>
<path d="M20.6325 23.4584C20.5328 23.5083 20.453 23.638 20.453 23.7377C20.453 23.9272 22.0786 26.2409 22.308 26.3705C22.4775 26.4703 22.647 26.3805 22.647 26.181C22.647 26.1112 22.308 25.5727 21.8991 24.9943C21.4802 24.3959 21.1511 23.8374 21.1511 23.7078C21.1511 23.5781 21.0813 23.4385 20.9915 23.4086C20.9712 23.4011 20.9535 23.3943 20.9378 23.3882C20.8851 23.368 20.8557 23.3567 20.8269 23.3581C20.7905 23.3599 20.7551 23.382 20.6749 23.4321C20.662 23.4401 20.6479 23.4489 20.6325 23.4584Z" stroke="black" stroke-width="0.4" mask="url(#path-2-outside-1_147_103)"/>
<path d="M11.4476 28.794C11.3379 28.5247 12.2255 25.2935 12.4848 24.9844C12.6443 24.7949 13.0632 24.8048 13.143 25.0043C13.1829 25.104 13.123 25.2337 13.0033 25.3334C12.8139 25.483 12.1756 27.4078 12.016 28.3352C11.9163 28.8838 11.5772 29.1431 11.4476 28.794Z" stroke="black" stroke-width="0.4" mask="url(#path-2-outside-1_147_103)"/>
</svg>
