<svg width="32" height="32" viewBox="0 0 32 32" fill="none" xmlns="http://www.w3.org/2000/svg">
<mask id="path-1-outside-1_147_314" maskUnits="userSpaceOnUse" x="13.6539" y="4.12964" width="3" height="5" fill="black">
<rect fill="white" x="13.6539" y="4.12964" width="3" height="5"/>
<path d="M15.8484 5.08184C15.6765 5.29902 14.6539 7.73317 14.6539 7.9413C14.6539 8.10418 14.6992 8.14943 14.844 8.12228C14.9525 8.10418 15.0792 8.03179 15.1154 7.9594C15.3778 7.47981 16.2013 5.32616 16.1741 5.19043C16.138 4.99135 15.9751 4.93706 15.8484 5.08184Z"/>
</mask>
<path d="M15.8484 5.08184C15.6765 5.29902 14.6539 7.73317 14.6539 7.9413C14.6539 8.10418 14.6992 8.14943 14.844 8.12228C14.9525 8.10418 15.0792 8.03179 15.1154 7.9594C15.3778 7.47981 16.2013 5.32616 16.1741 5.19043C16.138 4.99135 15.9751 4.93706 15.8484 5.08184Z" fill="black"/>
<path d="M15.8484 5.08184C15.6765 5.29902 14.6539 7.73317 14.6539 7.9413C14.6539 8.10418 14.6992 8.14943 14.844 8.12228C14.9525 8.10418 15.0792 8.03179 15.1154 7.9594C15.3778 7.47981 16.2013 5.32616 16.1741 5.19043C16.138 4.99135 15.9751 4.93706 15.8484 5.08184Z" stroke="black" stroke-width="0.4" mask="url(#path-1-outside-1_147_314)"/>
<mask id="path-2-outside-2_147_314" maskUnits="userSpaceOnUse" x="4.57117" y="5.95483" width="3" height="4" fill="black">
<rect fill="white" x="4.57117" y="5.95483" width="3" height="4"/>
<path d="M5.60531 6.36684C5.52387 6.47543 5.57816 6.67451 5.87678 7.38937C6.44686 8.71956 6.58259 8.95483 6.77262 8.95483C7.07124 8.95483 7.03504 8.76481 6.61879 7.86896C6.40162 7.39842 6.21159 6.87358 6.19349 6.70165C6.14825 6.2673 5.84058 6.09537 5.60531 6.36684Z"/>
</mask>
<path d="M5.60531 6.36684C5.52387 6.47543 5.57816 6.67451 5.87678 7.38937C6.44686 8.71956 6.58259 8.95483 6.77262 8.95483C7.07124 8.95483 7.03504 8.76481 6.61879 7.86896C6.40162 7.39842 6.21159 6.87358 6.19349 6.70165C6.14825 6.2673 5.84058 6.09537 5.60531 6.36684Z" fill="black"/>
<path d="M5.60531 6.36684C5.52387 6.47543 5.57816 6.67451 5.87678 7.38937C6.44686 8.71956 6.58259 8.95483 6.77262 8.95483C7.07124 8.95483 7.03504 8.76481 6.61879 7.86896C6.40162 7.39842 6.21159 6.87358 6.19349 6.70165C6.14825 6.2673 5.84058 6.09537 5.60531 6.36684Z" stroke="black" stroke-width="0.4" mask="url(#path-2-outside-2_147_314)"/>
<mask id="path-3-outside-3_147_314" maskUnits="userSpaceOnUse" x="2.95825" y="7.53369" width="29" height="21" fill="black">
<rect fill="white" x="2.95825" y="7.53369" width="29" height="21"/>
<path d="M10.8988 8.77391C9.43285 9.16301 8.95326 9.47068 7.95788 10.6289C6.79056 11.9953 6.44671 12.9545 6.53719 14.6467C6.59149 15.7325 6.81771 16.556 7.28826 17.3342L7.57782 17.8228L6.75437 18.2119C4.86314 19.1168 3.95825 20.2479 3.95825 21.7139C3.95825 23.7227 5.87662 25.5868 8.95326 26.555C11.496 27.3513 17.0973 27.7766 19.9929 27.3875C23.3591 26.926 24.4179 26.6636 26.101 25.8402C28.1189 24.8448 30.001 23.3246 30.5259 22.2478C31.1955 20.8633 31.0236 18.8816 30.1277 17.7414C29.621 17.0989 29.1414 16.8998 27.5759 16.6917L27.1506 16.6374L27.4131 16.1216C27.9741 14.9996 28.2999 13.416 28.137 12.5745C27.9288 11.5067 27.4221 10.8914 26.2819 10.3484C25.2594 9.86883 24.4541 9.73309 22.4814 9.74214C21.0607 9.74214 20.5992 9.76929 19.8301 9.94122C18.717 10.1765 17.6493 10.5475 16.862 10.9909C16.4005 11.2352 16.2829 11.2714 16.2829 11.1628C16.2829 10.9185 15.6495 10.1403 15.1608 9.76929C14.5274 9.29875 14.084 9.09062 13.161 8.81915C12.229 8.55673 11.7584 8.53864 10.8988 8.77391ZM13.0253 9.2897C14.084 9.57926 14.6541 9.91407 15.3961 10.6923L16.111 11.4252L15.8938 11.57C14.9617 12.2034 14.0207 13.3436 13.6406 14.3028C13.3963 14.9 13.1158 16.0945 13.1158 16.4926V16.7098L12.2199 16.6646C11.1974 16.6193 10.5278 16.746 9.16138 17.2527C8.11171 17.6419 7.97597 17.5966 7.54163 16.737C7.15252 15.9678 7.00774 15.2529 7.01679 14.2033C7.02584 12.7554 7.38779 11.9591 8.6275 10.6108C9.28807 9.89598 9.8129 9.57926 10.763 9.32589C11.8942 9.02728 12.0661 9.02728 13.0253 9.2897ZM24.6622 10.3575C26.2186 10.6289 27.3226 11.38 27.594 12.3482C27.8927 13.407 27.4493 15.1805 26.5263 16.6646C26.4267 16.8274 26.4086 16.9451 26.4629 16.9994C26.5172 17.0446 26.9606 17.1261 27.4583 17.1894C28.8518 17.3432 29.2319 17.479 29.6662 17.9676C30.2544 18.6463 30.4263 19.2073 30.3811 20.447C30.3359 21.8044 30.1911 22.1301 29.1957 23.1164C27.8927 24.4014 25.7119 25.6773 23.9564 26.184C23.1239 26.4193 20.8345 26.7994 19.2781 26.9622C16.7715 27.2066 12.4914 26.8989 9.8853 26.2836C4.93554 25.1072 2.81809 21.5057 5.77709 19.3249C6.82676 18.5558 10.3196 17.2346 11.5774 17.1351C12.428 17.0718 12.971 17.1804 13.0072 17.4156C13.0886 17.9495 13.1248 18.0129 13.3239 17.9857C13.4777 17.9676 13.523 17.8952 13.523 17.6871C13.532 17.4337 13.5501 17.4156 13.8487 17.4428C14.274 17.479 14.5093 17.2346 14.2469 17.0446C14.1564 16.9722 13.9664 16.9179 13.8216 16.9179C13.523 16.9179 13.523 16.9179 13.7039 15.8864C13.9935 14.2395 14.6993 13.0902 16.0567 12.0587C17.0611 11.2986 18.7532 10.6108 20.183 10.3665C21.2417 10.1855 23.6578 10.1855 24.6622 10.3575Z"/>
</mask>
<path d="M10.8988 8.77391C9.43285 9.16301 8.95326 9.47068 7.95788 10.6289C6.79056 11.9953 6.44671 12.9545 6.53719 14.6467C6.59149 15.7325 6.81771 16.556 7.28826 17.3342L7.57782 17.8228L6.75437 18.2119C4.86314 19.1168 3.95825 20.2479 3.95825 21.7139C3.95825 23.7227 5.87662 25.5868 8.95326 26.555C11.496 27.3513 17.0973 27.7766 19.9929 27.3875C23.3591 26.926 24.4179 26.6636 26.101 25.8402C28.1189 24.8448 30.001 23.3246 30.5259 22.2478C31.1955 20.8633 31.0236 18.8816 30.1277 17.7414C29.621 17.0989 29.1414 16.8998 27.5759 16.6917L27.1506 16.6374L27.4131 16.1216C27.9741 14.9996 28.2999 13.416 28.137 12.5745C27.9288 11.5067 27.4221 10.8914 26.2819 10.3484C25.2594 9.86883 24.4541 9.73309 22.4814 9.74214C21.0607 9.74214 20.5992 9.76929 19.8301 9.94122C18.717 10.1765 17.6493 10.5475 16.862 10.9909C16.4005 11.2352 16.2829 11.2714 16.2829 11.1628C16.2829 10.9185 15.6495 10.1403 15.1608 9.76929C14.5274 9.29875 14.084 9.09062 13.161 8.81915C12.229 8.55673 11.7584 8.53864 10.8988 8.77391ZM13.0253 9.2897C14.084 9.57926 14.6541 9.91407 15.3961 10.6923L16.111 11.4252L15.8938 11.57C14.9617 12.2034 14.0207 13.3436 13.6406 14.3028C13.3963 14.9 13.1158 16.0945 13.1158 16.4926V16.7098L12.2199 16.6646C11.1974 16.6193 10.5278 16.746 9.16138 17.2527C8.11171 17.6419 7.97597 17.5966 7.54163 16.737C7.15252 15.9678 7.00774 15.2529 7.01679 14.2033C7.02584 12.7554 7.38779 11.9591 8.6275 10.6108C9.28807 9.89598 9.8129 9.57926 10.763 9.32589C11.8942 9.02728 12.0661 9.02728 13.0253 9.2897ZM24.6622 10.3575C26.2186 10.6289 27.3226 11.38 27.594 12.3482C27.8927 13.407 27.4493 15.1805 26.5263 16.6646C26.4267 16.8274 26.4086 16.9451 26.4629 16.9994C26.5172 17.0446 26.9606 17.1261 27.4583 17.1894C28.8518 17.3432 29.2319 17.479 29.6662 17.9676C30.2544 18.6463 30.4263 19.2073 30.3811 20.447C30.3359 21.8044 30.1911 22.1301 29.1957 23.1164C27.8927 24.4014 25.7119 25.6773 23.9564 26.184C23.1239 26.4193 20.8345 26.7994 19.2781 26.9622C16.7715 27.2066 12.4914 26.8989 9.8853 26.2836C4.93554 25.1072 2.81809 21.5057 5.77709 19.3249C6.82676 18.5558 10.3196 17.2346 11.5774 17.1351C12.428 17.0718 12.971 17.1804 13.0072 17.4156C13.0886 17.9495 13.1248 18.0129 13.3239 17.9857C13.4777 17.9676 13.523 17.8952 13.523 17.6871C13.532 17.4337 13.5501 17.4156 13.8487 17.4428C14.274 17.479 14.5093 17.2346 14.2469 17.0446C14.1564 16.9722 13.9664 16.9179 13.8216 16.9179C13.523 16.9179 13.523 16.9179 13.7039 15.8864C13.9935 14.2395 14.6993 13.0902 16.0567 12.0587C17.0611 11.2986 18.7532 10.6108 20.183 10.3665C21.2417 10.1855 23.6578 10.1855 24.6622 10.3575Z" fill="black"/>
<path d="M10.8988 8.77391C9.43285 9.16301 8.95326 9.47068 7.95788 10.6289C6.79056 11.9953 6.44671 12.9545 6.53719 14.6467C6.59149 15.7325 6.81771 16.556 7.28826 17.3342L7.57782 17.8228L6.75437 18.2119C4.86314 19.1168 3.95825 20.2479 3.95825 21.7139C3.95825 23.7227 5.87662 25.5868 8.95326 26.555C11.496 27.3513 17.0973 27.7766 19.9929 27.3875C23.3591 26.926 24.4179 26.6636 26.101 25.8402C28.1189 24.8448 30.001 23.3246 30.5259 22.2478C31.1955 20.8633 31.0236 18.8816 30.1277 17.7414C29.621 17.0989 29.1414 16.8998 27.5759 16.6917L27.1506 16.6374L27.4131 16.1216C27.9741 14.9996 28.2999 13.416 28.137 12.5745C27.9288 11.5067 27.4221 10.8914 26.2819 10.3484C25.2594 9.86883 24.4541 9.73309 22.4814 9.74214C21.0607 9.74214 20.5992 9.76929 19.8301 9.94122C18.717 10.1765 17.6493 10.5475 16.862 10.9909C16.4005 11.2352 16.2829 11.2714 16.2829 11.1628C16.2829 10.9185 15.6495 10.1403 15.1608 9.76929C14.5274 9.29875 14.084 9.09062 13.161 8.81915C12.229 8.55673 11.7584 8.53864 10.8988 8.77391ZM13.0253 9.2897C14.084 9.57926 14.6541 9.91407 15.3961 10.6923L16.111 11.4252L15.8938 11.57C14.9617 12.2034 14.0207 13.3436 13.6406 14.3028C13.3963 14.9 13.1158 16.0945 13.1158 16.4926V16.7098L12.2199 16.6646C11.1974 16.6193 10.5278 16.746 9.16138 17.2527C8.11171 17.6419 7.97597 17.5966 7.54163 16.737C7.15252 15.9678 7.00774 15.2529 7.01679 14.2033C7.02584 12.7554 7.38779 11.9591 8.6275 10.6108C9.28807 9.89598 9.8129 9.57926 10.763 9.32589C11.8942 9.02728 12.0661 9.02728 13.0253 9.2897ZM24.6622 10.3575C26.2186 10.6289 27.3226 11.38 27.594 12.3482C27.8927 13.407 27.4493 15.1805 26.5263 16.6646C26.4267 16.8274 26.4086 16.9451 26.4629 16.9994C26.5172 17.0446 26.9606 17.1261 27.4583 17.1894C28.8518 17.3432 29.2319 17.479 29.6662 17.9676C30.2544 18.6463 30.4263 19.2073 30.3811 20.447C30.3359 21.8044 30.1911 22.1301 29.1957 23.1164C27.8927 24.4014 25.7119 25.6773 23.9564 26.184C23.1239 26.4193 20.8345 26.7994 19.2781 26.9622C16.7715 27.2066 12.4914 26.8989 9.8853 26.2836C4.93554 25.1072 2.81809 21.5057 5.77709 19.3249C6.82676 18.5558 10.3196 17.2346 11.5774 17.1351C12.428 17.0718 12.971 17.1804 13.0072 17.4156C13.0886 17.9495 13.1248 18.0129 13.3239 17.9857C13.4777 17.9676 13.523 17.8952 13.523 17.6871C13.532 17.4337 13.5501 17.4156 13.8487 17.4428C14.274 17.479 14.5093 17.2346 14.2469 17.0446C14.1564 16.9722 13.9664 16.9179 13.8216 16.9179C13.523 16.9179 13.523 16.9179 13.7039 15.8864C13.9935 14.2395 14.6993 13.0902 16.0567 12.0587C17.0611 11.2986 18.7532 10.6108 20.183 10.3665C21.2417 10.1855 23.6578 10.1855 24.6622 10.3575Z" stroke="black" stroke-width="0.4" mask="url(#path-3-outside-3_147_314)"/>
<mask id="path-4-outside-4_147_314" maskUnits="userSpaceOnUse" x="1" y="14.0566" width="4" height="2" fill="black">
<rect fill="white" x="1" y="14.0566" width="4" height="2"/>
<path d="M2.18473 14.4836C2.0309 14.5379 1.98566 14.6194 2.00376 14.7641C2.0309 14.9632 2.07615 14.9723 3.29775 15.0266C4.31123 15.0809 4.59175 15.0628 4.70033 14.9632C4.94465 14.7279 4.65509 14.6103 3.63256 14.556C3.09867 14.5289 2.60098 14.4836 2.52859 14.4474C2.4562 14.4203 2.30237 14.4293 2.18473 14.4836Z"/>
</mask>
<path d="M2.18473 14.4836C2.0309 14.5379 1.98566 14.6194 2.00376 14.7641C2.0309 14.9632 2.07615 14.9723 3.29775 15.0266C4.31123 15.0809 4.59175 15.0628 4.70033 14.9632C4.94465 14.7279 4.65509 14.6103 3.63256 14.556C3.09867 14.5289 2.60098 14.4836 2.52859 14.4474C2.4562 14.4203 2.30237 14.4293 2.18473 14.4836Z" fill="black"/>
<path d="M2.18473 14.4836C2.0309 14.5379 1.98566 14.6194 2.00376 14.7641C2.0309 14.9632 2.07615 14.9723 3.29775 15.0266C4.31123 15.0809 4.59175 15.0628 4.70033 14.9632C4.94465 14.7279 4.65509 14.6103 3.63256 14.556C3.09867 14.5289 2.60098 14.4836 2.52859 14.4474C2.4562 14.4203 2.30237 14.4293 2.18473 14.4836Z" stroke="black" stroke-width="0.4" mask="url(#path-4-outside-4_147_314)"/>
</svg>
