<svg width="32" height="32" viewBox="0 0 32 32" fill="none" xmlns="http://www.w3.org/2000/svg">
<mask id="path-1-outside-1_147_304" maskUnits="userSpaceOnUse" x="15.2644" y="2.47754" width="3" height="7" fill="black">
<rect fill="white" x="15.2644" y="2.47754" width="3" height="7"/>
<path d="M17.2218 3.4227C17.1919 3.55234 17.0423 4.2305 16.8728 4.94855C16.5038 6.56416 16.2644 7.82074 16.2644 8.20969C16.2644 8.45901 16.3043 8.4989 16.4938 8.46898C16.6833 8.43906 16.7331 8.33933 16.8528 7.6911C17.152 6.0356 17.5709 4.3402 17.7105 4.24047C17.8601 4.13077 17.9099 3.65207 17.8002 3.36286C17.7005 3.11354 17.2717 3.1634 17.2218 3.4227Z"/>
</mask>
<path d="M17.2218 3.4227C17.1919 3.55234 17.0423 4.2305 16.8728 4.94855C16.5038 6.56416 16.2644 7.82074 16.2644 8.20969C16.2644 8.45901 16.3043 8.4989 16.4938 8.46898C16.6833 8.43906 16.7331 8.33933 16.8528 7.6911C17.152 6.0356 17.5709 4.3402 17.7105 4.24047C17.8601 4.13077 17.9099 3.65207 17.8002 3.36286C17.7005 3.11354 17.2717 3.1634 17.2218 3.4227Z" fill="black"/>
<path d="M17.2218 3.4227C17.1919 3.55234 17.0423 4.2305 16.8728 4.94855C16.5038 6.56416 16.2644 7.82074 16.2644 8.20969C16.2644 8.45901 16.3043 8.4989 16.4938 8.46898C16.6833 8.43906 16.7331 8.33933 16.8528 7.6911C17.152 6.0356 17.5709 4.3402 17.7105 4.24047C17.8601 4.13077 17.9099 3.65207 17.8002 3.36286C17.7005 3.11354 17.2717 3.1634 17.2218 3.4227Z" stroke="black" stroke-width="0.4" mask="url(#path-1-outside-1_147_304)"/>
<mask id="path-2-outside-2_147_304" maskUnits="userSpaceOnUse" x="21.4539" y="7.32422" width="5" height="6" fill="black">
<rect fill="white" x="21.4539" y="7.32422" width="5" height="6"/>
<path d="M24.5619 9.10729C23.4848 10.2043 22.8166 11.0321 22.5873 11.5506C22.4078 11.9595 22.4078 12.0293 22.5972 12.2188C22.8067 12.4283 23.046 12.3086 23.046 12.0094C23.046 11.6304 23.8638 10.5534 25.0107 9.41645C26.0479 8.38924 26.2274 8.09005 25.8085 8.09005C25.6489 8.09005 25.26 8.40918 24.5619 9.10729Z"/>
</mask>
<path d="M24.5619 9.10729C23.4848 10.2043 22.8166 11.0321 22.5873 11.5506C22.4078 11.9595 22.4078 12.0293 22.5972 12.2188C22.8067 12.4283 23.046 12.3086 23.046 12.0094C23.046 11.6304 23.8638 10.5534 25.0107 9.41645C26.0479 8.38924 26.2274 8.09005 25.8085 8.09005C25.6489 8.09005 25.26 8.40918 24.5619 9.10729Z" fill="black"/>
<path d="M24.5619 9.10729C23.4848 10.2043 22.8166 11.0321 22.5873 11.5506C22.4078 11.9595 22.4078 12.0293 22.5972 12.2188C22.8067 12.4283 23.046 12.3086 23.046 12.0094C23.046 11.6304 23.8638 10.5534 25.0107 9.41645C26.0479 8.38924 26.2274 8.09005 25.8085 8.09005C25.6489 8.09005 25.26 8.40918 24.5619 9.10729Z" stroke="black" stroke-width="0.4" mask="url(#path-2-outside-2_147_304)"/>
<mask id="path-3-outside-3_147_304" maskUnits="userSpaceOnUse" x="3.04773" y="7.77539" width="5" height="5" fill="black">
<rect fill="white" x="3.04773" y="7.77539" width="5" height="5"/>
<path d="M4.06753 8.9078C3.94785 9.24688 4.3368 9.63583 6.17181 11.052C7.14915 11.8099 7.52812 11.9595 7.46829 11.5606C7.44834 11.421 7.07934 11.0719 6.45105 10.5932C5.90254 10.1744 5.21441 9.59593 4.91522 9.30672C4.37669 8.78813 4.15728 8.67843 4.06753 8.9078Z"/>
</mask>
<path d="M4.06753 8.9078C3.94785 9.24688 4.3368 9.63583 6.17181 11.052C7.14915 11.8099 7.52812 11.9595 7.46829 11.5606C7.44834 11.421 7.07934 11.0719 6.45105 10.5932C5.90254 10.1744 5.21441 9.59593 4.91522 9.30672C4.37669 8.78813 4.15728 8.67843 4.06753 8.9078Z" fill="black"/>
<path d="M4.06753 8.9078C3.94785 9.24688 4.3368 9.63583 6.17181 11.052C7.14915 11.8099 7.52812 11.9595 7.46829 11.5606C7.44834 11.421 7.07934 11.0719 6.45105 10.5932C5.90254 10.1744 5.21441 9.59593 4.91522 9.30672C4.37669 8.78813 4.15728 8.67843 4.06753 8.9078Z" stroke="black" stroke-width="0.4" mask="url(#path-3-outside-3_147_304)"/>
<mask id="path-4-outside-4_147_304" maskUnits="userSpaceOnUse" x="6.90552" y="8.42944" width="17" height="17" fill="black">
<rect fill="white" x="6.90552" y="8.42944" width="17" height="17"/>
<path d="M12.5744 9.33667C11.258 9.70567 9.48281 10.8127 9.48281 11.2614C9.48281 11.3512 9.28335 11.8 9.044 12.2687C8.16639 14.004 7.83728 15.46 7.91707 17.315C8.05669 20.4764 9.20357 22.3413 11.8065 23.5979C12.9933 24.1664 13.6914 24.3459 14.9679 24.4157C16.3142 24.4855 17.2018 24.296 18.4484 23.6976C21.1611 22.3912 22.6869 20.4864 23.2055 17.7837C23.5945 15.7293 23.046 13.615 21.7395 12.149C20.7821 11.072 19.1266 10.2243 16.5436 9.47629C15.5563 9.19705 13.3623 9.11727 12.5744 9.33667ZM15.2671 9.78545C16.2245 9.90512 18.4086 10.6032 19.5355 11.1617C20.5328 11.6404 21.6099 12.6576 22.0786 13.5452C23.036 15.3703 23.026 17.5743 22.0387 19.6187C21.3206 21.1246 20.084 22.2915 18.3188 23.1392C16.8428 23.8572 15.7558 24.0567 14.4593 23.8572C12.1256 23.4982 9.98146 22.1618 9.20357 20.5562C8.04671 18.1826 8.17636 15.0811 9.54265 12.4981C10.2607 11.1418 10.6895 10.703 11.5173 10.5334C11.6768 10.5035 11.8165 10.3938 11.8464 10.2841C11.8763 10.1744 11.9262 10.0846 11.9661 10.0747C11.996 10.0747 12.345 9.98491 12.724 9.88518C13.5318 9.66578 14.1003 9.64583 15.2671 9.78545Z"/>
</mask>
<path d="M12.5744 9.33667C11.258 9.70567 9.48281 10.8127 9.48281 11.2614C9.48281 11.3512 9.28335 11.8 9.044 12.2687C8.16639 14.004 7.83728 15.46 7.91707 17.315C8.05669 20.4764 9.20357 22.3413 11.8065 23.5979C12.9933 24.1664 13.6914 24.3459 14.9679 24.4157C16.3142 24.4855 17.2018 24.296 18.4484 23.6976C21.1611 22.3912 22.6869 20.4864 23.2055 17.7837C23.5945 15.7293 23.046 13.615 21.7395 12.149C20.7821 11.072 19.1266 10.2243 16.5436 9.47629C15.5563 9.19705 13.3623 9.11727 12.5744 9.33667ZM15.2671 9.78545C16.2245 9.90512 18.4086 10.6032 19.5355 11.1617C20.5328 11.6404 21.6099 12.6576 22.0786 13.5452C23.036 15.3703 23.026 17.5743 22.0387 19.6187C21.3206 21.1246 20.084 22.2915 18.3188 23.1392C16.8428 23.8572 15.7558 24.0567 14.4593 23.8572C12.1256 23.4982 9.98146 22.1618 9.20357 20.5562C8.04671 18.1826 8.17636 15.0811 9.54265 12.4981C10.2607 11.1418 10.6895 10.703 11.5173 10.5334C11.6768 10.5035 11.8165 10.3938 11.8464 10.2841C11.8763 10.1744 11.9262 10.0846 11.9661 10.0747C11.996 10.0747 12.345 9.98491 12.724 9.88518C13.5318 9.66578 14.1003 9.64583 15.2671 9.78545Z" fill="black"/>
<path d="M12.5744 9.33667C11.258 9.70567 9.48281 10.8127 9.48281 11.2614C9.48281 11.3512 9.28335 11.8 9.044 12.2687C8.16639 14.004 7.83728 15.46 7.91707 17.315C8.05669 20.4764 9.20357 22.3413 11.8065 23.5979C12.9933 24.1664 13.6914 24.3459 14.9679 24.4157C16.3142 24.4855 17.2018 24.296 18.4484 23.6976C21.1611 22.3912 22.6869 20.4864 23.2055 17.7837C23.5945 15.7293 23.046 13.615 21.7395 12.149C20.7821 11.072 19.1266 10.2243 16.5436 9.47629C15.5563 9.19705 13.3623 9.11727 12.5744 9.33667ZM15.2671 9.78545C16.2245 9.90512 18.4086 10.6032 19.5355 11.1617C20.5328 11.6404 21.6099 12.6576 22.0786 13.5452C23.036 15.3703 23.026 17.5743 22.0387 19.6187C21.3206 21.1246 20.084 22.2915 18.3188 23.1392C16.8428 23.8572 15.7558 24.0567 14.4593 23.8572C12.1256 23.4982 9.98146 22.1618 9.20357 20.5562C8.04671 18.1826 8.17636 15.0811 9.54265 12.4981C10.2607 11.1418 10.6895 10.703 11.5173 10.5334C11.6768 10.5035 11.8165 10.3938 11.8464 10.2841C11.8763 10.1744 11.9262 10.0846 11.9661 10.0747C11.996 10.0747 12.345 9.98491 12.724 9.88518C13.5318 9.66578 14.1003 9.64583 15.2671 9.78545Z" stroke="black" stroke-width="0.4" mask="url(#path-4-outside-4_147_304)"/>
<mask id="path-5-outside-5_147_304" maskUnits="userSpaceOnUse" x="22.4561" y="18.6211" width="6" height="3" fill="black">
<rect fill="white" x="22.4561" y="18.6211" width="6" height="3"/>
<path d="M23.4749 19.0204C23.3752 19.2797 23.6444 19.4293 24.9409 19.8382C25.629 20.0576 26.4668 20.3369 26.7959 20.4565C27.3843 20.6759 27.7333 20.6759 27.7333 20.4565C27.7333 20.2671 27.115 19.9778 25.6589 19.4991C24.8511 19.2398 24.153 18.9905 24.1032 18.9407C23.9336 18.801 23.5447 18.8509 23.4749 19.0204Z"/>
</mask>
<path d="M23.4749 19.0204C23.3752 19.2797 23.6444 19.4293 24.9409 19.8382C25.629 20.0576 26.4668 20.3369 26.7959 20.4565C27.3843 20.6759 27.7333 20.6759 27.7333 20.4565C27.7333 20.2671 27.115 19.9778 25.6589 19.4991C24.8511 19.2398 24.153 18.9905 24.1032 18.9407C23.9336 18.801 23.5447 18.8509 23.4749 19.0204Z" fill="black"/>
<path d="M23.4749 19.0204C23.3752 19.2797 23.6444 19.4293 24.9409 19.8382C25.629 20.0576 26.4668 20.3369 26.7959 20.4565C27.3843 20.6759 27.7333 20.6759 27.7333 20.4565C27.7333 20.2671 27.115 19.9778 25.6589 19.4991C24.8511 19.2398 24.153 18.9905 24.1032 18.9407C23.9336 18.801 23.5447 18.8509 23.4749 19.0204Z" stroke="black" stroke-width="0.4" mask="url(#path-5-outside-5_147_304)"/>
<mask id="path-6-outside-6_147_304" maskUnits="userSpaceOnUse" x="2.19995" y="20.4299" width="5" height="3" fill="black">
<rect fill="white" x="2.19995" y="20.4299" width="5" height="3"/>
<path d="M4.79562 21.344C3.30965 21.9623 3.19995 22.0222 3.19995 22.2515C3.19995 22.5507 3.39941 22.5009 4.88537 21.8925C6.39128 21.2642 6.50098 21.2044 6.4212 20.995C6.33144 20.7656 6.00234 20.8354 4.79562 21.344Z"/>
</mask>
<path d="M4.79562 21.344C3.30965 21.9623 3.19995 22.0222 3.19995 22.2515C3.19995 22.5507 3.39941 22.5009 4.88537 21.8925C6.39128 21.2642 6.50098 21.2044 6.4212 20.995C6.33144 20.7656 6.00234 20.8354 4.79562 21.344Z" fill="black"/>
<path d="M4.79562 21.344C3.30965 21.9623 3.19995 22.0222 3.19995 22.2515C3.19995 22.5507 3.39941 22.5009 4.88537 21.8925C6.39128 21.2642 6.50098 21.2044 6.4212 20.995C6.33144 20.7656 6.00234 20.8354 4.79562 21.344Z" stroke="black" stroke-width="0.4" mask="url(#path-6-outside-6_147_304)"/>
<mask id="path-7-outside-7_147_304" maskUnits="userSpaceOnUse" x="19.453" y="22.4114" width="4" height="5" fill="black">
<rect fill="white" x="19.453" y="22.4114" width="4" height="5"/>
<path d="M20.6325 23.4583C20.5328 23.5082 20.453 23.6378 20.453 23.7376C20.453 23.9271 22.0786 26.2408 22.308 26.3704C22.4775 26.4701 22.647 26.3804 22.647 26.1809C22.647 26.1111 22.308 25.5726 21.8991 24.9942C21.4802 24.3958 21.1511 23.8373 21.1511 23.7077C21.1511 23.578 21.0813 23.4384 20.9915 23.4085C20.8021 23.3387 20.8419 23.3287 20.6325 23.4583Z"/>
</mask>
<path d="M20.6325 23.4583C20.5328 23.5082 20.453 23.6378 20.453 23.7376C20.453 23.9271 22.0786 26.2408 22.308 26.3704C22.4775 26.4701 22.647 26.3804 22.647 26.1809C22.647 26.1111 22.308 25.5726 21.8991 24.9942C21.4802 24.3958 21.1511 23.8373 21.1511 23.7077C21.1511 23.578 21.0813 23.4384 20.9915 23.4085C20.8021 23.3387 20.8419 23.3287 20.6325 23.4583Z" fill="black"/>
<path d="M20.6325 23.4583C20.5328 23.5082 20.453 23.6378 20.453 23.7376C20.453 23.9271 22.0786 26.2408 22.308 26.3704C22.4775 26.4701 22.647 26.3804 22.647 26.1809C22.647 26.1111 22.308 25.5726 21.8991 24.9942C21.4802 24.3958 21.1511 23.8373 21.1511 23.7077C21.1511 23.578 21.0813 23.4384 20.9915 23.4085C20.8021 23.3387 20.8419 23.3287 20.6325 23.4583Z" stroke="black" stroke-width="0.4" mask="url(#path-7-outside-7_147_304)"/>
<mask id="path-8-outside-8_147_304" maskUnits="userSpaceOnUse" x="10.4382" y="23.9526" width="3" height="6" fill="black">
<rect fill="white" x="10.4382" y="23.9526" width="3" height="6"/>
<path d="M12.4848 24.9842C12.2255 25.2934 11.3379 28.5246 11.4476 28.7939C11.5772 29.1429 11.9163 28.8836 12.016 28.3351C12.1756 27.4077 12.8139 25.4829 13.0033 25.3333C13.123 25.2336 13.1829 25.1039 13.143 25.0042C13.0632 24.8047 12.6443 24.7948 12.4848 24.9842Z"/>
</mask>
<path d="M12.4848 24.9842C12.2255 25.2934 11.3379 28.5246 11.4476 28.7939C11.5772 29.1429 11.9163 28.8836 12.016 28.3351C12.1756 27.4077 12.8139 25.4829 13.0033 25.3333C13.123 25.2336 13.1829 25.1039 13.143 25.0042C13.0632 24.8047 12.6443 24.7948 12.4848 24.9842Z" fill="black"/>
<path d="M12.4848 24.9842C12.2255 25.2934 11.3379 28.5246 11.4476 28.7939C11.5772 29.1429 11.9163 28.8836 12.016 28.3351C12.1756 27.4077 12.8139 25.4829 13.0033 25.3333C13.123 25.2336 13.1829 25.1039 13.143 25.0042C13.0632 24.8047 12.6443 24.7948 12.4848 24.9842Z" stroke="black" stroke-width="0.4" mask="url(#path-8-outside-8_147_304)"/>
</svg>
